{"glyphs":{"0":{"ha":633,"x_min":53,"x_max":608,"o":"m 385 970 q 477 956 436 970 q 548 908 519 942 q 593 819 577 875 q 608 679 608 763 q 604 586 608 636 q 591 476 600 536 q 542 236 572 331 q 472 84 512 140 q 384 6 433 28 q 275 -17 334 -17 q 182 -3 224 -17 q 112 44 141 11 q 68 132 83 77 q 53 268 53 186 q 69 476 53 356 q 118 717 88 621 q 187 868 147 812 q 276 947 227 924 q 385 970 326 970 m 385 868 q 311 842 342 868 q 256 771 279 817 q 218 662 233 725 q 192 525 202 600 q 179 433 184 471 q 171 366 174 394 q 166 317 168 337 q 165 279 165 296 q 171 200 165 235 q 189 138 176 164 q 222 99 201 113 q 275 85 243 85 q 349 111 318 85 q 403 182 380 136 q 441 291 426 228 q 468 428 457 353 q 480 527 475 486 q 489 597 486 568 q 493 646 492 626 q 494 684 494 666 q 489 760 494 726 q 470 818 483 794 q 436 855 456 842 q 385 868 415 868 z "},"1":{"ha":633,"x_min":11,"x_max":575,"o":"m 367 102 l 575 102 l 559 0 l 11 0 l 26 102 l 253 102 l 347 779 l 119 779 l 129 851 q 198 863 159 854 q 279 885 237 872 q 363 916 321 899 q 441 953 405 933 l 486 953 l 367 102 z "},"2":{"ha":633,"x_min":14,"x_max":632,"o":"m 408 970 q 497 958 456 970 q 568 923 538 947 q 615 861 598 899 q 632 771 632 823 q 610 646 632 705 q 552 534 588 587 q 470 434 516 481 q 377 341 425 386 q 285 252 330 296 q 205 165 240 209 q 188 140 195 153 q 174 117 180 128 l 547 117 l 530 0 l 14 0 l 17 18 q 111 225 33 131 q 190 309 146 267 q 277 391 233 350 q 363 475 321 433 q 438 561 405 517 q 490 653 471 606 q 510 751 510 700 q 505 792 510 772 q 487 828 499 812 q 453 854 474 844 q 399 864 431 864 q 334 849 362 864 q 287 810 307 835 q 255 752 267 785 q 239 682 243 719 l 232 625 l 114 625 q 132 758 114 695 q 187 867 151 820 q 279 942 224 914 q 408 970 334 970 z "},"3":{"ha":633,"x_min":33,"x_max":615,"o":"m 392 970 q 484 956 443 970 q 554 916 526 943 q 599 851 583 890 q 615 761 615 812 q 603 664 615 706 q 568 590 590 623 q 518 535 547 558 q 457 494 490 511 l 457 489 q 537 424 506 469 q 568 306 568 378 q 545 172 568 231 q 482 70 522 112 q 390 5 442 28 q 279 -17 338 -17 q 172 -1 218 -17 q 95 44 126 15 q 49 116 64 74 q 33 211 33 158 q 34 241 33 224 q 39 281 35 257 l 154 281 q 149 241 150 257 q 149 218 149 224 q 182 119 149 153 q 278 85 215 85 q 343 98 312 85 q 398 137 374 111 q 437 206 422 164 q 452 306 452 248 q 440 368 452 343 q 410 407 429 393 q 367 428 391 422 q 315 433 342 433 l 236 433 l 250 534 l 332 534 q 391 547 362 534 q 444 585 420 559 q 481 650 467 611 q 496 742 496 689 q 487 799 496 775 q 464 839 479 823 q 429 861 449 854 q 386 868 409 868 q 332 858 357 868 q 286 825 307 847 q 250 767 265 802 q 228 684 235 732 l 111 684 q 141 804 116 751 q 204 894 165 857 q 291 950 242 930 q 392 970 339 970 z "},"4":{"ha":633,"x_min":16,"x_max":607,"o":"m 481 970 q 429 840 458 906 q 366 709 399 773 q 299 586 333 645 q 233 478 264 527 q 176 392 202 429 q 135 336 151 355 l 396 336 l 439 636 q 464 684 453 661 q 485 730 475 707 q 504 777 494 753 q 524 828 513 800 l 579 828 l 510 336 l 607 336 l 593 235 l 496 235 l 463 0 l 349 0 l 382 235 l 16 235 l 29 338 q 122 483 76 406 q 212 641 169 559 q 294 805 255 722 q 366 970 333 888 l 481 970 z "},"5":{"ha":633,"x_min":37,"x_max":628,"o":"m 611 836 l 277 836 l 216 546 q 247 570 229 557 q 286 594 264 583 q 333 612 307 605 q 389 619 359 619 q 466 605 431 619 q 528 562 502 591 q 569 490 554 534 q 583 389 583 447 q 559 216 583 292 q 494 89 535 141 q 398 10 453 37 q 279 -17 342 -17 q 178 0 223 -17 q 102 48 133 16 q 54 125 71 79 q 37 228 37 170 q 38 261 37 243 q 43 296 39 278 l 161 296 q 158 271 159 283 q 157 248 157 259 q 166 179 157 210 q 192 127 175 149 q 231 95 208 106 q 281 83 254 83 q 346 100 313 83 q 405 152 378 117 q 447 240 431 187 q 464 364 464 293 q 433 477 464 438 q 350 517 402 517 q 263 486 304 517 q 193 407 222 456 l 87 425 l 195 953 l 628 953 l 611 836 z "},"6":{"ha":633,"x_min":61,"x_max":607,"o":"m 407 970 q 498 953 460 970 q 560 905 536 936 q 596 833 585 875 q 607 741 607 791 q 606 701 607 722 q 602 660 605 681 l 486 660 q 490 695 488 679 q 492 728 492 712 q 470 832 492 795 q 401 868 448 868 q 324 843 357 868 q 268 771 292 818 q 229 658 245 724 q 200 509 212 591 q 282 574 236 550 q 380 599 328 599 q 470 581 432 599 q 532 531 507 563 q 569 457 557 500 q 581 363 581 414 q 557 206 581 276 q 493 86 533 136 q 400 10 453 37 q 290 -17 348 -17 q 194 -2 237 -17 q 122 47 151 13 q 77 137 92 81 q 61 273 61 192 q 64 355 61 311 q 75 449 68 398 q 126 697 96 597 q 199 858 157 798 q 293 944 241 919 q 407 970 345 970 m 349 498 q 275 477 307 498 q 220 419 243 455 q 186 335 198 382 q 175 236 175 288 q 181 176 175 203 q 200 127 187 148 q 234 96 214 107 q 283 85 255 85 q 342 97 316 85 q 388 130 368 109 q 422 178 408 151 q 445 234 436 205 q 458 292 454 262 q 463 346 463 321 q 456 407 463 378 q 435 455 449 435 q 400 487 421 475 q 349 498 378 498 z "},"7":{"ha":633,"x_min":121,"x_max":679,"o":"m 668 879 q 586 772 629 829 q 503 651 544 715 q 424 517 462 587 q 354 374 385 447 q 299 224 322 300 q 265 71 276 148 q 263 53 264 61 q 261 38 262 45 q 259 21 260 31 l 257 0 l 122 0 q 157 162 134 82 q 211 318 180 242 q 279 467 241 395 q 356 604 316 538 q 436 728 395 669 q 514 836 476 787 l 121 836 l 138 953 l 679 953 l 668 879 z "},"8":{"ha":633,"x_min":36,"x_max":608,"o":"m 393 970 q 489 953 448 970 q 555 907 529 937 q 595 838 582 878 q 608 753 608 798 q 599 673 608 712 q 572 600 590 634 q 529 537 555 566 q 471 489 503 509 q 544 416 522 462 q 566 313 566 371 q 548 187 566 247 q 493 82 530 127 q 400 10 456 37 q 269 -17 345 -17 q 163 0 207 -17 q 91 46 119 16 q 49 116 62 75 q 36 203 36 156 q 45 289 36 246 q 73 370 54 332 q 122 438 92 408 q 195 489 153 469 q 137 560 156 517 q 118 656 118 603 q 137 775 118 718 q 191 875 155 832 q 277 944 226 918 q 393 970 328 970 m 325 436 q 251 419 283 436 q 198 372 219 401 q 165 303 176 342 q 154 218 154 263 q 184 120 154 155 q 277 85 215 85 q 347 100 315 85 q 401 144 378 116 q 436 213 424 173 q 449 302 449 253 q 418 401 449 366 q 325 436 387 436 m 386 868 q 320 851 349 868 q 272 805 292 833 q 242 741 252 777 q 232 665 232 704 q 260 571 232 604 q 340 538 289 538 q 400 552 372 538 q 449 593 429 566 q 482 657 470 619 q 494 742 494 695 q 466 835 494 802 q 386 868 437 868 z "},"9":{"ha":633,"x_min":65,"x_max":611,"o":"m 382 970 q 478 955 435 970 q 550 906 521 940 q 595 816 580 871 q 611 679 611 760 q 608 598 611 642 q 597 504 605 555 q 546 255 577 355 q 473 95 515 155 q 379 8 431 34 q 265 -17 327 -17 q 174 0 212 -17 q 112 47 136 17 q 76 120 87 78 q 65 212 65 162 q 66 252 65 231 q 71 293 67 272 l 186 293 q 182 257 184 274 q 180 225 180 241 q 202 121 180 157 q 271 85 224 85 q 348 110 315 85 q 404 182 380 135 q 444 295 427 229 q 472 444 460 361 q 390 378 437 402 q 292 354 344 354 q 202 372 240 354 q 140 421 165 389 q 103 496 115 452 q 92 590 92 539 q 115 746 92 676 q 179 866 139 817 q 272 943 219 916 q 382 970 324 970 m 389 868 q 330 856 355 868 q 284 822 304 843 q 250 775 264 802 q 227 719 235 748 q 214 661 218 690 q 210 607 210 632 q 216 546 210 574 q 237 498 223 518 q 272 466 251 477 q 323 454 294 454 q 397 476 365 454 q 452 534 429 498 q 486 618 474 570 q 497 717 497 665 q 491 777 497 749 q 472 825 485 805 q 438 857 458 846 q 389 868 417 868 z "},"\r":{"ha":0,"x_min":0,"x_max":0,"o":""}," ":{"ha":317,"x_min":0,"x_max":0,"o":""},"!":{"ha":317,"x_min":53,"x_max":335,"o":"m 335 953 q 322 890 330 933 q 302 788 313 846 q 277 660 291 730 q 250 517 264 590 q 223 372 237 444 q 197 237 210 300 l 111 237 q 145 595 128 416 q 178 953 163 774 l 335 953 m 192 0 l 53 0 l 74 150 l 212 150 l 192 0 z "},"\"":{"ha":404,"x_min":104,"x_max":432,"o":"m 403 749 q 374 657 388 702 q 347 566 361 612 l 293 566 l 289 749 l 318 953 l 432 953 l 403 749 m 218 749 q 191 657 205 702 q 164 566 178 612 l 110 566 l 104 749 l 134 953 l 248 953 l 218 749 z "},"#":{"ha":633,"x_min":24,"x_max":627,"o":"m 543 675 l 627 675 l 627 570 l 519 570 l 472 354 l 571 354 l 571 249 l 449 249 l 393 0 l 288 0 l 343 249 l 218 249 l 163 0 l 57 0 l 113 249 l 24 249 l 24 354 l 136 354 l 183 570 l 78 570 l 78 675 l 207 675 l 272 966 l 378 966 l 313 675 l 437 675 l 503 966 l 608 966 l 543 675 m 289 570 l 241 354 l 367 354 l 414 570 l 289 570 z "},"$":{"ha":633,"x_min":77,"x_max":591,"o":"m 427 854 q 502 825 471 846 q 553 772 533 803 q 582 705 573 742 q 591 629 591 668 l 479 629 q 460 709 479 681 q 412 749 441 737 l 382 532 q 443 500 412 517 q 498 459 473 483 q 538 400 523 435 q 554 317 554 366 q 537 224 554 264 q 490 155 521 183 q 416 111 460 127 q 319 94 373 96 l 297 -69 l 231 -69 l 254 100 q 183 126 216 108 q 127 174 151 145 q 90 239 103 202 q 77 319 77 275 q 77 341 77 330 q 79 364 77 353 l 192 364 q 189 341 190 353 q 187 319 187 330 q 210 244 187 273 q 268 203 233 216 l 302 447 q 246 481 274 463 q 195 523 218 499 q 158 577 172 546 q 144 653 144 609 q 158 731 144 694 q 199 794 172 767 q 267 839 227 822 q 361 859 307 856 l 382 1004 l 449 1004 l 427 854 m 334 195 q 378 205 358 197 q 412 228 398 214 q 434 260 426 242 q 441 298 441 278 q 419 364 441 338 q 364 411 397 390 l 334 195 m 347 757 q 315 747 331 754 q 286 729 299 741 q 265 703 273 718 q 257 669 257 688 q 275 610 257 634 q 319 568 292 586 l 347 757 z "},"%":{"ha":1013,"x_min":102,"x_max":946,"o":"m 215 0 l 118 0 l 833 953 l 932 953 l 215 0 m 786 485 q 854 476 824 485 q 904 448 884 468 q 935 396 924 429 q 946 317 946 364 q 943 246 946 283 q 930 171 939 208 q 907 100 922 134 q 869 40 892 66 q 814 -1 846 14 q 739 -17 782 -17 q 672 -8 702 -17 q 621 20 642 0 q 589 72 600 39 q 578 151 578 104 q 595 312 578 248 q 641 415 612 376 q 707 469 669 453 q 786 485 745 485 m 786 403 q 744 391 761 403 q 714 359 726 380 q 695 309 703 338 q 682 244 687 279 q 675 191 677 210 q 673 157 673 172 q 688 90 673 114 q 739 65 703 65 q 782 77 764 65 q 811 110 799 89 q 830 160 823 131 q 843 224 838 189 q 849 277 848 258 q 851 311 851 296 q 837 378 851 353 q 786 403 823 403 m 310 970 q 377 961 348 970 q 427 933 407 953 q 458 881 448 913 q 469 802 469 849 q 466 731 469 768 q 454 656 463 693 q 431 585 446 618 q 393 525 416 551 q 337 484 370 499 q 262 468 305 468 q 196 476 226 468 q 145 505 166 485 q 113 556 124 524 q 102 636 102 589 q 119 797 102 733 q 164 900 136 861 q 231 954 193 938 q 310 970 269 970 m 310 888 q 267 876 285 888 q 238 843 250 864 q 218 793 226 822 q 205 729 211 764 q 199 676 200 695 q 197 642 197 656 q 212 574 197 599 q 262 550 226 550 q 305 562 288 550 q 334 594 322 573 q 354 644 347 615 q 367 708 361 673 q 374 762 372 743 q 375 796 375 781 q 360 863 375 838 q 310 888 346 888 z "},"&":{"ha":760,"x_min":25,"x_max":760,"o":"m 421 970 q 532 955 482 970 q 616 910 581 939 q 671 841 652 882 q 690 749 690 800 q 689 726 690 739 q 684 684 688 713 l 570 684 q 574 712 573 702 q 575 729 575 722 q 564 790 575 764 q 531 832 552 816 q 482 857 511 849 q 419 865 453 865 q 349 854 383 865 q 287 820 314 844 q 243 759 260 797 q 227 668 227 722 q 236 609 227 634 q 263 567 246 584 q 303 543 280 551 q 351 534 326 534 l 422 534 l 408 433 l 340 433 q 274 424 308 433 q 212 392 239 415 q 166 328 184 368 q 149 225 149 288 q 160 162 149 189 q 192 120 171 136 q 242 95 213 103 q 309 87 272 87 q 511 265 486 87 l 549 534 l 760 534 l 746 432 l 648 432 l 627 269 q 593 151 618 204 q 525 61 567 98 q 427 3 484 24 q 300 -17 370 -17 q 187 -1 237 -17 q 100 44 136 14 q 45 116 64 73 q 25 212 25 158 q 40 314 25 269 q 79 395 55 360 q 136 453 104 429 q 201 489 168 477 l 201 494 q 132 561 159 520 q 106 665 106 601 q 130 795 106 739 q 197 891 155 852 q 298 950 240 930 q 421 970 355 970 z "},"'":{"ha":218,"x_min":104,"x_max":248,"o":"m 218 749 q 191 657 205 702 q 164 566 178 612 l 110 566 l 104 749 l 134 953 l 248 953 l 218 749 z "},"(":{"ha":379,"x_min":45,"x_max":444,"o":"m 444 1021 q 334 851 385 942 q 245 662 283 760 q 186 464 208 564 q 164 265 164 363 q 172 135 164 199 q 194 8 180 70 q 227 -111 208 -54 q 271 -218 247 -168 l 196 -218 q 83 9 121 -115 q 45 268 45 133 q 47 333 45 300 q 54 400 49 366 q 93 569 66 486 q 160 732 120 653 q 253 883 201 810 q 370 1021 306 956 l 444 1021 z "},")":{"ha":379,"x_min":-65,"x_max":332,"o":"m 182 1021 q 294 793 256 918 q 332 533 332 669 q 329 467 332 500 q 322 400 326 433 q 283 231 310 315 q 217 70 257 148 q 124 -82 177 -9 q 8 -218 72 -155 l -65 -218 q 44 -48 -7 -140 q 133 141 95 43 q 193 340 171 239 q 215 538 215 441 q 207 668 215 604 q 185 794 199 733 q 151 913 171 856 q 107 1021 131 970 l 182 1021 z "},"*":{"ha":443,"x_min":90,"x_max":475,"o":"m 326 831 l 439 901 l 475 821 l 354 768 l 460 715 l 401 633 l 309 705 l 304 582 l 210 582 l 239 705 l 126 633 l 90 715 l 212 768 l 106 821 l 164 901 l 257 829 l 261 953 l 355 953 l 326 831 z "},"+":{"ha":665,"x_min":52,"x_max":611,"o":"m 396 412 l 611 412 l 596 296 l 380 296 l 339 0 l 224 0 l 265 296 l 52 296 l 66 412 l 281 412 l 322 710 l 437 710 l 396 412 z "},",":{"ha":317,"x_min":25,"x_max":210,"o":"m 191 12 l 102 -172 l 25 -172 l 96 0 l 50 0 l 71 150 l 210 150 l 191 12 z "},"-":{"ha":379,"x_min":4,"x_max":372,"o":"m 354 307 l 4 307 l 22 443 l 372 443 l 354 307 z "},".":{"ha":317,"x_min":53,"x_max":212,"o":"m 192 0 l 53 0 l 74 150 l 212 150 l 192 0 z "},"/":{"ha":317,"x_min":-65,"x_max":403,"o":"m 32 -68 l -65 -68 l 306 1021 l 403 1021 l 32 -68 z "},":":{"ha":317,"x_min":50,"x_max":292,"o":"m 271 581 l 132 581 l 153 730 l 292 730 l 271 581 m 189 0 l 50 0 l 71 150 l 210 150 l 189 0 z "},";":{"ha":317,"x_min":25,"x_max":292,"o":"m 191 12 l 102 -172 l 25 -172 l 96 0 l 50 0 l 71 150 l 210 150 l 191 12 m 271 581 l 132 581 l 153 730 l 292 730 l 271 581 z "},"<":{"ha":665,"x_min":50,"x_max":654,"o":"m 636 575 l 174 353 l 574 131 l 555 5 l 50 278 l 71 427 l 654 700 l 636 575 z "},"=":{"ha":665,"x_min":31,"x_max":632,"o":"m 615 441 l 71 441 l 87 558 l 632 558 l 615 441 m 575 147 l 31 147 l 46 262 l 590 262 l 575 147 z "},">":{"ha":665,"x_min":11,"x_max":615,"o":"m 615 427 l 595 278 l 11 5 l 29 131 l 493 353 l 92 575 l 110 700 l 615 427 z "},"?":{"ha":633,"x_min":94,"x_max":614,"o":"m 392 970 q 483 955 441 970 q 553 912 524 940 q 598 846 582 885 q 614 761 614 808 q 597 642 614 692 q 556 556 581 593 q 502 490 532 519 q 445 435 472 462 q 398 377 418 408 q 372 307 378 347 l 364 250 l 243 250 l 254 328 q 281 411 261 376 q 326 474 300 446 q 380 527 352 502 q 431 582 408 552 q 469 649 454 611 q 485 739 484 686 q 481 779 485 758 q 466 820 477 801 q 434 850 454 838 q 380 863 413 863 q 315 847 342 863 q 270 807 288 831 q 241 754 252 783 q 226 701 231 726 q 220 658 221 675 q 218 637 218 640 l 94 637 q 115 764 95 703 q 173 870 136 824 q 266 943 211 916 q 392 970 321 970 m 336 0 l 197 0 l 220 150 l 358 150 l 336 0 z "},"@":{"ha":1156,"x_min":77,"x_max":1108,"o":"m 810 31 q 748 41 773 31 q 707 66 723 52 q 682 98 690 81 q 669 127 673 115 q 602 55 642 79 q 519 31 562 31 q 452 45 483 31 q 399 90 421 60 q 364 166 376 119 q 351 277 351 212 q 374 475 351 391 q 433 614 397 559 q 515 696 469 669 q 607 724 561 724 q 651 719 630 724 q 689 701 671 713 q 721 668 707 688 q 745 616 735 647 l 768 708 l 848 708 q 812 473 828 580 q 799 382 806 427 q 788 298 793 336 q 780 231 783 259 q 777 191 777 202 q 782 155 777 169 q 797 134 787 142 q 817 124 806 127 q 840 121 828 121 q 895 141 866 121 q 949 197 924 161 q 1005 330 983 250 q 1026 511 1026 410 q 1019 630 1026 575 q 993 729 1012 685 q 883 852 958 811 q 685 893 808 893 q 476 860 572 893 q 308 754 379 827 q 197 562 237 680 q 157 272 157 444 q 186 78 157 157 q 269 -48 216 0 q 394 -117 321 -96 q 551 -138 466 -138 q 632 -134 598 -138 q 690 -124 667 -130 q 734 -110 716 -118 l 724 -189 q 702 -195 718 -191 q 664 -203 686 -199 q 616 -211 642 -208 q 564 -214 590 -214 q 359 -186 450 -214 q 206 -101 269 -159 q 110 49 143 -43 q 77 269 77 140 q 117 572 77 441 q 234 791 158 703 q 418 925 310 880 q 661 970 526 970 q 825 955 755 970 q 944 911 895 939 q 1026 842 994 883 q 1076 751 1058 802 q 1101 640 1094 700 q 1108 513 1108 580 q 1101 398 1108 456 q 1078 287 1094 340 q 1039 186 1063 233 q 982 105 1015 140 q 906 51 949 71 q 810 31 863 31 m 623 632 q 563 612 589 632 q 519 561 538 593 q 489 490 501 530 q 470 410 477 450 q 460 331 463 369 q 457 267 457 294 q 481 158 457 195 q 551 122 505 122 q 605 142 581 122 q 647 195 629 163 q 677 268 665 227 q 697 349 689 309 q 708 427 705 390 q 711 489 711 464 q 623 632 711 632 z "},"A":{"ha":760,"x_min":-50,"x_max":711,"o":"m 549 212 l 167 212 l 71 0 l -50 0 l 386 953 l 543 953 l 711 0 l 585 0 l 549 212 m 216 323 l 530 323 l 460 747 q 456 777 458 759 q 454 812 455 795 q 453 852 453 831 l 447 852 q 433 811 440 831 q 420 777 427 794 q 408 747 414 759 l 216 323 z "},"B":{"ha":760,"x_min":47,"x_max":746,"o":"m 182 953 l 517 953 q 611 939 568 953 q 683 898 653 924 q 729 834 713 871 q 746 751 746 797 q 731 664 746 705 q 692 591 717 623 q 635 535 667 558 q 567 500 602 512 l 566 494 q 621 465 595 484 q 664 420 646 446 q 692 359 682 393 q 703 286 703 326 q 677 166 703 219 q 610 76 652 113 q 516 20 569 39 q 407 0 463 0 l 47 0 l 182 953 m 231 432 l 186 111 l 407 111 q 470 123 439 111 q 524 157 500 134 q 562 212 548 179 q 576 286 576 244 q 567 342 576 316 q 538 389 557 369 q 493 420 520 409 q 432 432 467 432 l 231 432 m 288 842 l 245 543 l 436 543 q 510 558 477 543 q 566 597 543 573 q 601 654 589 622 q 614 720 614 686 q 575 812 614 782 q 472 842 536 842 l 288 842 z "},"C":{"ha":822,"x_min":71,"x_max":791,"o":"m 490 970 q 715 886 638 970 q 791 629 791 803 l 791 607 l 665 607 l 665 637 q 622 802 665 747 q 489 857 579 857 q 401 839 440 857 q 333 791 363 821 q 281 721 303 761 q 244 638 260 682 q 220 550 229 594 q 205 466 210 505 q 198 393 200 426 q 196 342 196 361 q 246 160 196 223 q 392 97 296 97 q 486 117 445 97 q 557 169 527 136 q 605 245 587 202 q 631 336 623 289 l 751 336 q 715 201 742 265 q 643 89 688 137 q 537 12 599 40 q 396 -17 475 -17 q 261 4 321 -17 q 159 68 201 25 q 94 178 117 111 q 71 335 71 244 q 79 469 71 397 q 107 610 87 540 q 158 746 126 681 q 236 861 189 811 q 346 940 283 910 q 490 970 408 970 z "},"D":{"ha":822,"x_min":47,"x_max":782,"o":"m 47 0 l 182 953 l 464 953 q 598 930 539 953 q 699 863 658 908 q 761 752 739 819 q 782 596 782 685 q 772 466 782 534 q 742 332 763 398 q 689 205 722 265 q 610 100 656 145 q 504 27 564 54 q 368 0 444 0 l 47 0 m 288 842 l 186 111 l 354 111 q 459 134 414 111 q 538 193 505 156 q 594 280 572 231 q 631 383 617 329 q 650 491 644 437 q 656 595 656 546 q 642 704 656 657 q 602 781 628 750 q 537 826 575 811 q 450 842 498 842 l 288 842 z "},"E":{"ha":760,"x_min":47,"x_max":770,"o":"m 47 0 l 182 953 l 770 953 l 753 842 l 288 842 l 245 543 l 650 543 l 635 432 l 231 432 l 186 111 l 660 111 l 643 0 l 47 0 z "},"F":{"ha":696,"x_min":47,"x_max":732,"o":"m 47 0 l 182 953 l 732 953 l 715 842 l 288 842 l 244 533 l 623 533 l 607 422 l 229 422 l 170 0 l 47 0 z "},"G":{"ha":886,"x_min":69,"x_max":828,"o":"m 648 106 q 542 16 604 49 q 396 -17 480 -17 q 261 4 321 -17 q 158 68 201 25 q 92 178 115 111 q 69 335 69 244 q 78 469 69 397 q 107 610 87 540 q 160 746 127 681 q 241 861 193 811 q 355 940 290 910 q 505 970 420 970 q 746 886 665 970 q 828 628 828 802 l 701 628 l 701 637 q 653 802 701 747 q 504 857 606 857 q 412 840 452 857 q 340 794 372 823 q 286 727 309 765 q 247 646 263 688 q 220 559 231 604 q 204 474 210 515 q 197 399 199 434 q 195 342 195 365 q 247 160 195 224 q 407 97 298 97 q 509 116 465 97 q 585 169 553 136 q 636 245 617 201 q 664 336 656 288 l 672 389 l 422 389 l 437 496 l 811 496 l 741 0 l 660 0 l 648 106 z "},"H":{"ha":822,"x_min":47,"x_max":810,"o":"m 675 0 l 553 0 l 614 432 l 231 432 l 170 0 l 47 0 l 182 953 l 304 953 l 245 543 l 629 543 l 688 953 l 810 953 l 675 0 z "},"I":{"ha":317,"x_min":47,"x_max":304,"o":"m 170 0 l 47 0 l 182 953 l 304 953 l 170 0 z "},"J":{"ha":570,"x_min":-1,"x_max":566,"o":"m 463 227 q 381 45 446 106 q 211 -17 316 -17 q 54 31 109 -17 q -1 172 -1 79 q -1 186 -1 178 q 1 206 -1 193 q 4 239 2 219 q 11 289 7 258 l 132 289 q 125 241 128 259 q 121 214 123 224 q 120 199 120 203 q 119 191 119 194 q 143 119 119 143 q 214 96 168 96 q 298 127 267 96 q 339 220 330 159 l 443 953 l 566 953 l 463 227 z "},"K":{"ha":760,"x_min":47,"x_max":818,"o":"m 233 457 l 672 953 l 818 953 l 478 568 l 693 0 l 557 0 l 387 465 l 211 296 l 170 0 l 47 0 l 182 953 l 304 953 l 233 457 z "},"L":{"ha":633,"x_min":47,"x_max":575,"o":"m 47 0 l 182 953 l 304 953 l 186 111 l 575 111 l 558 0 l 47 0 z "},"M":{"ha":949,"x_min":33,"x_max":945,"o":"m 810 0 l 688 0 l 785 692 q 790 722 786 702 q 797 762 793 742 q 806 811 801 785 l 800 811 q 783 762 791 785 q 769 722 776 742 q 757 692 762 702 l 469 0 l 359 0 l 269 692 q 266 719 268 699 q 263 760 264 739 q 260 811 261 783 l 254 811 q 248 760 251 783 q 243 720 245 739 q 240 692 241 700 l 143 0 l 33 0 l 168 953 l 351 953 l 431 328 q 435 273 434 304 q 438 212 437 241 q 440 142 439 178 l 446 142 q 463 213 454 178 q 471 243 467 228 q 480 274 475 259 q 489 303 485 289 q 498 328 494 317 l 757 953 l 945 953 l 810 0 z "},"N":{"ha":822,"x_min":46,"x_max":808,"o":"m 673 0 l 578 0 l 304 607 q 290 644 297 622 q 275 686 282 665 q 258 734 267 709 l 254 733 q 250 684 253 707 q 246 643 248 665 q 241 607 243 621 l 155 0 l 46 0 l 180 953 l 281 953 l 551 354 q 565 319 557 340 q 580 277 572 297 q 596 227 588 253 l 600 228 q 606 279 603 255 q 610 321 608 300 q 614 354 612 342 l 699 953 l 808 953 l 673 0 z "},"O":{"ha":886,"x_min":71,"x_max":840,"o":"m 510 970 q 649 947 588 970 q 753 879 711 924 q 818 766 795 834 q 840 607 840 698 q 831 469 840 541 q 800 327 821 397 q 745 195 779 258 q 663 86 711 133 q 549 11 614 39 q 400 -17 484 -17 q 261 5 322 -17 q 157 73 199 28 q 93 185 115 117 q 71 343 71 252 q 80 482 71 410 q 110 624 89 554 q 164 756 131 693 q 247 866 198 819 q 361 942 296 913 q 510 970 427 970 m 509 857 q 399 834 446 857 q 316 771 351 810 q 258 679 281 731 q 221 570 235 627 q 202 455 208 513 q 196 346 196 397 q 250 158 196 220 q 401 96 303 96 q 512 119 465 96 q 594 183 559 143 q 652 275 629 222 q 689 384 675 327 q 708 498 703 441 q 714 607 714 556 q 700 716 714 669 q 660 795 686 764 q 595 842 633 826 q 509 857 557 857 z "},"P":{"ha":760,"x_min":47,"x_max":771,"o":"m 225 393 l 170 0 l 47 0 l 182 953 l 509 953 q 624 935 574 953 q 706 886 673 918 q 755 809 739 854 q 771 711 771 765 q 747 577 771 636 q 681 477 724 517 q 579 415 639 436 q 449 393 520 393 l 225 393 m 288 842 l 241 504 l 461 504 q 533 517 500 504 q 590 554 566 530 q 628 612 614 578 q 642 689 642 646 q 632 752 642 724 q 606 800 623 780 q 562 831 588 820 q 501 842 536 842 l 288 842 z "},"Q":{"ha":886,"x_min":71,"x_max":840,"o":"m 71 343 q 80 482 71 410 q 110 624 89 554 q 164 756 131 693 q 247 866 198 819 q 361 942 296 913 q 510 970 427 970 q 649 947 588 970 q 753 879 711 924 q 818 766 795 834 q 840 607 840 698 q 833 490 840 551 q 812 370 827 430 q 774 254 798 311 q 717 150 751 198 q 640 65 684 102 q 539 7 595 28 l 708 -172 l 555 -172 l 411 -17 l 400 -17 q 261 5 322 -17 q 157 73 199 28 q 93 185 115 117 q 71 343 71 252 m 509 857 q 399 834 446 857 q 316 771 351 810 q 258 679 281 731 q 221 570 235 627 q 202 455 208 513 q 196 346 196 397 q 250 158 196 220 q 401 96 303 96 q 512 119 465 96 q 594 183 559 143 q 652 275 629 222 q 689 384 675 327 q 708 498 703 441 q 714 607 714 556 q 700 716 714 669 q 660 795 686 764 q 595 842 633 826 q 509 857 557 857 z "},"R":{"ha":822,"x_min":47,"x_max":810,"o":"m 810 732 q 795 633 810 679 q 755 550 781 587 q 692 485 730 513 q 610 441 655 457 l 737 0 l 608 0 l 486 421 l 229 421 l 170 0 l 47 0 l 182 953 l 551 953 q 668 937 619 953 q 748 892 717 921 q 795 822 780 863 q 810 732 810 781 m 288 842 l 244 532 l 490 532 q 565 545 530 532 q 626 582 600 558 q 667 639 652 606 q 682 713 682 673 q 645 808 682 774 q 533 842 607 842 l 288 842 z "},"S":{"ha":760,"x_min":46,"x_max":730,"o":"m 436 970 q 574 947 518 970 q 665 885 631 924 q 715 791 700 845 q 730 673 730 736 l 604 673 q 588 769 604 733 q 546 825 572 805 q 490 851 521 844 q 429 857 458 857 q 383 853 411 857 q 330 833 355 848 q 285 790 304 819 q 267 711 267 761 q 284 648 267 674 q 331 602 302 622 q 397 566 360 583 q 474 533 435 550 q 550 495 513 516 q 616 446 587 475 q 663 377 645 417 q 681 282 681 338 q 675 216 681 250 q 654 148 669 181 q 614 85 639 115 q 552 32 589 55 q 464 -4 515 9 q 346 -17 413 -17 q 222 1 277 -17 q 128 55 167 20 q 67 143 89 91 q 46 261 46 195 q 46 292 46 277 q 50 325 47 308 l 176 325 q 171 291 173 307 q 170 260 170 275 q 182 186 170 217 q 220 135 195 155 q 278 105 244 115 q 355 96 313 96 q 418 103 384 96 q 482 129 452 111 q 532 180 512 148 q 553 264 553 213 q 535 331 553 303 q 488 380 517 359 q 422 419 459 402 q 347 454 385 436 q 271 492 308 471 q 205 541 234 513 q 158 606 176 568 q 140 697 140 644 q 160 814 140 763 q 218 899 180 865 q 311 952 256 934 q 436 970 366 970 z "},"T":{"ha":696,"x_min":89,"x_max":747,"o":"m 106 953 l 747 953 l 730 842 l 471 842 l 353 0 l 231 0 l 349 842 l 89 842 l 106 953 z "},"U":{"ha":822,"x_min":79,"x_max":804,"o":"m 713 310 q 672 168 701 229 q 600 66 644 107 q 497 4 555 25 q 367 -17 438 -17 q 155 48 230 -17 q 79 240 79 114 q 83 289 79 252 q 94 378 87 326 q 110 494 101 431 q 127 621 118 557 q 176 953 149 770 l 298 953 q 250 616 271 766 q 233 491 241 553 q 218 378 224 429 q 207 295 211 328 q 203 257 203 262 q 246 136 203 177 q 370 96 290 96 q 517 149 459 96 q 590 302 576 201 l 682 953 l 804 953 l 713 310 z "},"V":{"ha":760,"x_min":103,"x_max":840,"o":"m 415 0 l 258 0 l 103 953 l 229 953 l 357 134 l 363 134 l 718 953 l 840 953 l 415 0 z "},"W":{"ha":1075,"x_min":107,"x_max":1154,"o":"m 799 0 l 640 0 l 612 838 l 606 838 q 589 766 597 801 q 581 734 585 751 q 573 703 577 718 q 564 672 568 687 q 557 646 560 658 l 351 0 l 193 0 l 107 953 l 231 953 l 285 294 q 287 244 286 273 q 289 189 288 215 q 290 125 290 157 l 296 125 q 310 178 302 151 q 325 232 317 202 q 343 294 334 262 l 543 953 l 720 953 l 743 294 q 744 250 744 278 q 745 193 745 222 l 745 125 l 750 125 q 768 186 760 155 q 785 241 776 212 q 803 294 794 271 l 1040 953 l 1154 953 l 799 0 z "},"X":{"ha":760,"x_min":-43,"x_max":808,"o":"m 808 953 l 793 933 q 755 882 779 913 q 701 809 732 850 q 639 726 671 768 l 469 501 l 704 0 l 567 0 l 385 389 l 92 0 l -43 0 l 332 500 l 118 953 l 257 953 l 418 612 l 544 782 q 590 844 568 814 q 631 899 613 875 q 660 938 649 923 l 671 953 l 808 953 z "},"Y":{"ha":760,"x_min":97,"x_max":835,"o":"m 449 395 l 393 0 l 271 0 l 326 395 l 97 953 l 231 953 l 404 511 l 410 511 l 707 953 l 835 953 l 449 395 z "},"Z":{"ha":696,"x_min":-22,"x_max":730,"o":"m -22 0 l -18 53 l 539 842 l 119 842 l 136 953 l 730 953 l 726 900 l 168 111 l 627 111 l 610 0 l -22 0 z "},"[":{"ha":317,"x_min":-18,"x_max":375,"o":"m 363 930 l 248 930 l 98 -134 l 214 -134 l 201 -224 l -18 -224 l 154 1021 l 375 1021 l 363 930 z "},"\\":{"ha":317,"x_min":68,"x_max":317,"o":"m 317 -68 l 218 -68 l 68 1021 l 165 1021 l 317 -68 z "},"]":{"ha":317,"x_min":-58,"x_max":335,"o":"m 161 -224 l -58 -224 l -46 -134 l 68 -134 l 216 930 l 102 930 l 114 1021 l 335 1021 l 161 -224 z "},"^":{"ha":534,"x_min":12,"x_max":539,"o":"m 539 408 l 414 408 l 335 846 l 136 408 l 12 408 l 277 953 l 425 953 l 539 408 z "},"_":{"ha":633,"x_min":-62,"x_max":578,"o":"m 568 -172 l -62 -172 l -54 -98 l 578 -98 l 568 -172 z "},"`":{"ha":379,"x_min":89,"x_max":310,"o":"m 310 821 l 214 821 l 89 1000 l 92 1004 l 216 1004 l 310 821 z "},"a":{"ha":633,"x_min":46,"x_max":595,"o":"m 328 747 q 376 742 353 747 q 418 722 399 736 q 454 686 438 709 q 479 629 469 663 l 504 730 l 595 730 q 552 433 570 565 q 536 323 544 377 q 523 225 529 269 q 514 154 517 182 q 510 123 510 126 q 520 94 510 102 q 543 85 530 85 l 587 85 l 576 5 q 546 -9 566 -2 q 498 -17 526 -17 q 458 -11 477 -17 q 427 10 440 -4 q 407 46 414 24 q 399 98 399 68 q 319 11 359 39 q 231 -17 279 -17 q 157 -1 191 -17 q 98 48 123 15 q 60 133 74 81 q 46 254 46 184 q 71 472 46 380 q 136 626 96 565 q 227 717 176 687 q 328 747 277 747 m 345 646 q 279 624 307 646 q 231 568 252 603 q 198 489 211 533 q 177 401 184 446 q 166 314 169 356 q 163 243 163 273 q 265 85 163 85 q 324 107 298 85 q 369 165 350 130 q 402 245 389 201 q 424 335 416 290 q 436 420 433 380 q 440 489 440 461 q 345 646 440 646 z "},"b":{"ha":633,"x_min":32,"x_max":586,"o":"m 286 1004 l 237 647 q 315 724 276 700 q 401 747 353 747 q 475 731 441 747 q 534 682 509 715 q 572 598 558 649 q 586 476 586 547 q 561 258 586 351 q 496 104 536 165 q 406 13 456 43 q 304 -17 355 -17 q 254 -11 278 -17 q 211 8 231 -5 q 174 45 191 22 q 147 102 158 68 l 122 0 l 32 0 l 172 1004 l 286 1004 m 288 85 q 353 106 325 85 q 401 163 380 128 q 434 241 421 197 q 455 330 448 286 q 466 416 463 375 q 469 488 469 458 q 367 646 469 646 q 303 623 331 646 q 256 565 276 601 q 222 485 235 530 q 201 396 209 441 q 189 310 193 351 q 186 241 186 269 q 288 85 186 85 z "},"c":{"ha":570,"x_min":43,"x_max":542,"o":"m 334 747 q 489 683 435 747 q 542 485 542 619 l 542 460 l 424 460 l 424 484 q 402 605 424 564 q 334 646 380 646 q 268 622 295 646 q 221 563 240 599 q 190 481 201 526 q 172 394 178 437 q 163 314 165 351 q 161 258 161 278 q 188 130 161 176 q 264 85 214 85 q 317 100 293 85 q 360 140 342 115 q 390 198 378 165 q 406 267 401 231 l 519 267 q 493 160 513 211 q 442 69 473 109 q 366 6 410 30 q 267 -17 322 -17 q 174 -1 215 -17 q 103 47 132 15 q 58 130 74 80 q 43 249 43 180 q 48 360 43 302 q 65 474 53 418 q 99 579 78 529 q 152 666 120 629 q 229 725 184 703 q 334 747 274 747 z "},"d":{"ha":633,"x_min":47,"x_max":639,"o":"m 498 0 l 408 0 l 408 98 q 327 11 372 39 q 232 -17 282 -17 q 158 -1 192 -17 q 100 48 124 15 q 61 133 75 81 q 47 254 47 184 q 72 472 47 380 q 137 626 97 565 q 228 717 178 687 q 329 747 278 747 q 413 725 374 747 q 475 650 451 702 l 525 1004 l 639 1004 l 498 0 m 346 646 q 281 624 309 646 q 233 568 253 603 q 199 489 212 533 q 178 401 186 446 q 167 314 170 356 q 164 243 164 273 q 267 85 164 85 q 330 107 302 85 q 377 165 357 130 q 411 245 397 201 q 432 335 425 290 q 444 420 440 380 q 447 489 447 461 q 346 646 447 646 z "},"e":{"ha":633,"x_min":49,"x_max":583,"o":"m 358 747 q 525 683 467 747 q 583 485 583 619 q 581 410 583 449 q 572 332 578 372 l 171 332 q 167 258 167 288 q 285 85 167 85 q 342 98 315 85 q 388 134 368 111 q 421 185 408 156 q 439 248 434 215 l 554 248 q 525 146 546 195 q 469 62 503 98 q 389 4 435 26 q 285 -17 343 -17 q 185 -1 229 -17 q 111 47 141 15 q 65 130 81 80 q 49 249 49 180 q 54 358 49 301 q 73 471 60 415 q 109 576 86 526 q 166 665 132 627 q 248 725 200 703 q 358 747 295 747 m 358 646 q 291 627 320 646 q 242 579 262 609 q 207 511 221 549 q 184 433 193 473 l 464 433 q 465 460 465 447 l 465 484 q 438 605 465 564 q 358 646 412 646 z "},"f":{"ha":317,"x_min":-123,"x_max":408,"o":"m 315 1015 q 366 1010 340 1015 q 408 999 391 1005 l 397 920 l 336 920 q 284 902 304 920 q 261 852 265 885 l 244 730 l 371 730 l 357 629 l 231 629 l 136 -85 q 121 -146 132 -116 q 90 -200 110 -176 q 40 -238 70 -224 q -31 -253 11 -253 q -81 -248 -56 -253 q -123 -236 -107 -242 l -113 -157 l -52 -157 q 22 -90 14 -157 l 117 629 l 53 629 l 66 730 l 131 730 l 147 847 q 162 908 151 878 q 194 962 174 939 q 243 1001 214 986 q 315 1015 273 1015 z "},"g":{"ha":633,"x_min":9,"x_max":603,"o":"m 347 646 q 281 625 309 646 q 234 569 254 604 q 201 492 214 535 q 181 406 189 450 q 171 322 174 362 q 168 253 168 281 q 195 146 168 180 q 273 113 222 113 q 334 133 307 113 q 380 187 360 154 q 413 262 399 220 q 435 346 427 304 q 447 425 443 387 q 450 489 450 463 q 347 646 448 646 m 407 126 q 329 39 369 67 q 237 11 289 11 q 150 33 186 11 q 93 91 115 55 q 61 172 71 127 q 52 264 52 218 q 76 480 52 389 q 141 631 101 571 q 231 719 180 690 q 332 747 281 747 q 382 742 358 747 q 426 722 406 736 q 462 686 446 709 q 489 629 478 663 l 513 730 l 603 730 l 510 68 q 475 -78 498 -18 q 416 -178 452 -139 q 335 -235 381 -217 q 229 -253 288 -253 q 132 -235 173 -253 q 63 -187 90 -217 q 23 -117 36 -157 q 9 -33 9 -77 l 123 -33 q 233 -153 123 -153 q 339 -107 301 -153 q 392 35 376 -62 l 407 126 z "},"h":{"ha":633,"x_min":31,"x_max":574,"o":"m 235 646 q 261 680 245 662 q 299 713 277 698 q 350 738 321 728 q 415 747 378 747 q 491 733 460 747 q 540 696 522 720 q 566 644 558 673 q 574 583 574 614 q 570 546 574 575 q 562 474 567 516 q 549 380 556 431 q 534 275 542 328 q 496 0 517 152 l 382 0 q 419 262 402 144 q 433 361 426 312 q 445 451 440 410 q 454 520 450 492 q 457 557 457 549 q 436 625 457 604 q 374 646 414 646 q 310 628 339 646 q 259 579 281 611 q 222 505 237 548 q 200 408 208 461 l 143 0 l 31 0 l 171 1004 l 285 1004 l 235 646 z "},"i":{"ha":253,"x_min":22,"x_max":275,"o":"m 135 0 l 22 0 l 123 730 l 237 730 l 135 0 m 257 868 l 143 868 l 161 1004 l 275 1004 l 257 868 z "},"j":{"ha":253,"x_min":-138,"x_max":275,"o":"m 122 -85 q 106 -146 117 -116 q 75 -200 95 -176 q 26 -238 56 -224 q -45 -253 -3 -253 q -95 -248 -70 -253 q -138 -236 -121 -242 l -126 -157 l -65 -157 q 7 -90 1 -157 l 122 730 l 236 730 l 122 -85 m 256 868 l 142 868 l 161 1004 l 275 1004 l 256 868 z "},"k":{"ha":570,"x_min":26,"x_max":606,"o":"m 196 406 l 469 730 l 606 730 l 347 431 l 514 0 l 389 0 l 267 336 l 176 260 l 140 0 l 26 0 l 167 1004 l 281 1004 l 196 406 z "},"l":{"ha":253,"x_min":22,"x_max":275,"o":"m 135 0 l 22 0 l 161 1004 l 275 1004 l 135 0 z "},"m":{"ha":949,"x_min":31,"x_max":890,"o":"m 743 747 q 813 733 785 747 q 859 696 842 720 q 883 644 876 673 q 890 583 890 614 q 887 546 890 575 q 878 474 884 516 q 866 380 873 431 q 851 275 859 328 q 812 0 833 152 l 699 0 q 736 262 719 144 q 750 361 743 312 q 762 451 757 410 q 770 520 767 492 q 774 557 774 549 q 754 625 774 604 q 701 646 735 646 q 643 630 669 646 q 595 586 616 614 q 560 516 574 557 q 539 427 546 476 l 479 0 l 366 0 q 403 262 386 144 q 416 361 410 312 q 428 451 423 410 q 437 520 433 492 q 440 557 440 549 q 421 625 440 604 q 368 646 401 646 q 308 628 335 646 q 259 579 280 611 q 223 505 238 548 q 201 408 209 461 l 144 0 l 31 0 l 134 730 l 222 730 l 222 623 q 244 660 229 638 q 281 701 258 681 q 336 734 304 720 q 410 747 368 747 q 471 737 445 747 q 514 709 496 727 q 541 669 531 692 q 554 619 551 646 q 576 656 562 634 q 613 699 590 678 q 668 733 635 719 q 743 747 700 747 z "},"n":{"ha":633,"x_min":31,"x_max":575,"o":"m 416 747 q 492 733 462 747 q 541 696 523 720 q 567 644 559 673 q 575 583 575 614 q 572 546 575 575 q 563 474 568 516 q 550 380 557 431 q 536 275 543 328 q 497 0 518 152 l 383 0 q 420 262 404 144 q 434 361 427 312 q 447 451 441 410 q 455 520 452 492 q 458 557 458 549 q 437 625 458 604 q 375 646 416 646 q 312 628 340 646 q 261 579 283 611 q 224 505 239 548 q 201 408 209 461 l 144 0 l 31 0 l 134 730 l 222 730 l 222 623 q 245 660 230 638 q 283 701 260 681 q 339 734 307 720 q 416 747 372 747 z "},"o":{"ha":633,"x_min":46,"x_max":586,"o":"m 355 747 q 527 683 468 747 q 586 485 586 619 q 581 378 586 435 q 562 266 575 321 q 526 159 549 210 q 469 69 503 108 q 387 6 435 30 q 277 -17 340 -17 q 105 46 163 -17 q 46 243 46 109 q 52 350 46 293 q 70 463 57 406 q 106 570 83 519 q 163 661 129 622 q 245 724 197 701 q 355 747 292 747 m 355 646 q 283 624 313 646 q 231 567 252 602 q 197 488 210 532 q 176 401 184 444 q 166 320 169 358 q 164 258 164 282 q 191 127 164 170 q 277 85 217 85 q 349 107 319 85 q 401 166 380 130 q 436 247 422 202 q 456 336 449 292 q 466 419 463 380 q 468 484 468 458 q 440 605 468 564 q 355 646 412 646 z "},"p":{"ha":633,"x_min":-1,"x_max":587,"o":"m 403 747 q 477 731 443 747 q 535 682 511 715 q 573 598 559 649 q 587 476 587 547 q 563 258 587 351 q 497 104 538 165 q 407 13 457 43 q 306 -17 357 -17 q 222 6 260 -17 q 160 81 184 28 l 113 -253 l -1 -253 l 136 730 l 227 730 l 227 632 q 308 720 263 692 q 403 747 353 747 m 368 646 q 305 623 332 646 q 257 565 277 601 q 223 485 237 530 q 202 396 210 441 q 191 310 194 351 q 187 241 187 269 q 289 85 187 85 q 354 106 326 85 q 402 163 382 128 q 436 241 422 197 q 457 330 449 286 q 468 416 465 375 q 471 488 471 458 q 368 646 471 646 z "},"q":{"ha":633,"x_min":46,"x_max":600,"o":"m 350 -240 l 395 83 q 317 7 356 31 q 231 -17 279 -17 q 157 -1 191 -17 q 98 48 123 15 q 60 133 74 81 q 46 254 46 184 q 71 472 46 380 q 136 626 96 565 q 227 717 176 687 q 328 747 277 747 q 378 742 354 747 q 421 722 401 736 q 458 686 441 709 q 485 629 474 663 l 510 730 l 600 730 l 464 -240 l 350 -240 m 345 646 q 279 624 307 646 q 231 568 252 603 q 198 489 211 533 q 177 401 184 446 q 166 314 169 356 q 163 243 163 273 q 265 85 163 85 q 329 107 301 85 q 376 165 356 130 q 410 245 396 201 q 431 335 423 290 q 442 420 439 380 q 446 489 446 461 q 345 646 446 646 z "},"r":{"ha":379,"x_min":22,"x_max":412,"o":"m 359 747 q 380 745 371 747 q 397 741 390 743 q 412 736 406 739 l 396 618 l 358 618 q 305 605 331 618 q 257 568 279 593 q 219 507 235 544 q 196 422 203 471 l 136 0 l 22 0 l 125 730 l 214 730 l 214 614 q 236 658 224 635 q 266 701 248 682 q 306 734 283 721 q 359 747 328 747 z "},"s":{"ha":570,"x_min":29,"x_max":530,"o":"m 322 747 q 417 728 378 747 q 482 677 457 709 q 519 604 507 645 q 530 518 530 562 l 412 518 q 404 580 412 555 q 380 620 395 605 q 347 641 366 635 q 310 647 329 647 q 278 641 294 647 q 247 624 261 635 q 224 596 233 613 q 215 558 215 580 q 236 491 215 517 q 287 445 256 465 q 354 408 318 426 q 421 365 390 390 q 472 302 452 340 q 493 205 493 264 q 476 111 493 153 q 429 41 460 70 q 355 -2 399 13 q 258 -17 312 -17 q 169 -1 211 -17 q 96 44 127 15 q 47 115 65 73 q 29 208 29 157 q 30 230 29 219 q 32 253 30 241 l 150 253 q 146 208 146 229 q 156 152 146 176 q 182 114 165 129 q 222 91 199 98 q 269 83 244 83 q 313 92 294 83 q 346 114 332 100 q 368 147 360 128 q 375 187 375 166 q 363 240 375 218 q 332 281 351 263 q 287 314 312 299 q 236 344 262 329 q 185 377 210 359 q 140 417 160 395 q 109 471 121 440 q 97 542 97 501 q 111 623 97 585 q 154 688 125 660 q 224 731 182 715 q 322 747 267 747 z "},"t":{"ha":317,"x_min":47,"x_max":346,"o":"m 248 730 l 346 730 l 332 629 l 233 629 q 199 389 214 496 q 186 299 192 343 q 175 220 180 255 q 167 162 170 185 q 164 136 164 139 q 215 85 164 85 l 256 85 l 244 5 q 204 -8 228 -3 q 160 -14 180 -14 q 107 -4 128 -14 q 72 22 85 5 q 53 59 59 38 q 47 104 47 81 q 51 137 47 111 q 59 201 54 163 q 70 286 64 239 q 83 380 77 333 q 119 629 99 492 l 57 629 l 71 730 l 134 730 l 163 933 l 282 933 l 248 730 z "},"u":{"ha":633,"x_min":58,"x_max":603,"o":"m 500 0 l 411 0 l 411 107 q 388 70 403 92 q 350 30 373 49 q 293 -3 326 10 q 216 -17 260 -17 q 141 -3 171 -17 q 92 34 111 11 q 66 86 74 57 q 58 147 58 116 q 62 185 58 155 q 71 257 65 214 q 83 351 76 300 q 97 456 90 403 q 136 730 115 579 l 250 730 q 212 469 229 586 q 198 369 205 418 q 186 279 192 320 q 178 210 181 239 q 175 174 175 182 q 196 106 175 127 q 258 85 218 85 q 322 102 293 85 q 373 151 351 119 q 410 226 395 182 q 432 322 425 269 l 489 730 l 603 730 l 500 0 z "},"v":{"ha":570,"x_min":64,"x_max":621,"o":"m 296 0 l 172 0 l 64 730 l 184 730 l 260 165 l 265 165 l 498 730 l 621 730 l 296 0 z "},"w":{"ha":822,"x_min":60,"x_max":878,"o":"m 595 0 l 468 0 q 460 185 463 109 q 454 312 456 261 q 451 393 452 363 q 450 440 450 423 q 449 463 449 456 l 449 475 q 450 520 449 496 q 452 564 450 544 l 454 608 l 449 608 q 435 541 443 575 q 421 478 429 512 q 403 416 412 445 l 268 0 l 140 0 l 60 730 l 170 730 l 211 319 q 214 282 212 304 q 218 235 216 260 q 222 182 220 210 q 224 129 223 155 l 229 129 q 242 196 235 163 q 255 258 248 224 q 272 319 263 291 l 403 730 l 539 730 l 558 319 q 559 302 559 313 q 559 271 559 292 l 559 129 l 566 129 q 580 193 572 160 q 596 254 587 221 q 616 319 605 288 l 771 730 l 878 730 l 595 0 z "},"x":{"ha":570,"x_min":-37,"x_max":606,"o":"m 351 374 l 514 0 l 382 0 l 275 264 l 96 0 l -37 0 l 228 375 l 72 730 l 204 730 l 304 485 l 469 730 l 606 730 l 351 374 z "},"y":{"ha":570,"x_min":-31,"x_max":623,"o":"m 325 37 q 271 -75 299 -22 q 209 -167 243 -127 q 136 -230 176 -207 q 49 -253 96 -253 q 5 -251 25 -253 q -31 -241 -15 -248 l -20 -163 l 20 -163 q 65 -155 43 -163 q 110 -128 88 -147 q 150 -78 131 -109 q 186 0 170 -47 l 65 730 l 186 730 l 269 147 l 275 147 l 500 730 l 623 730 l 325 37 z "},"z":{"ha":570,"x_min":3,"x_max":575,"o":"m 571 677 l 175 102 l 509 102 l 494 0 l 3 0 l 7 54 l 401 629 l 109 629 l 122 730 l 575 730 l 571 677 z "},"{":{"ha":380,"x_min":20,"x_max":439,"o":"m 428 942 q 390 938 410 942 q 352 923 370 934 q 321 893 334 912 q 304 843 309 873 q 281 701 295 771 q 254 557 267 631 q 238 494 248 522 q 210 447 227 466 q 169 417 193 427 q 111 407 145 407 l 110 393 q 190 363 167 393 q 212 281 212 334 q 207 185 212 238 q 196 83 202 133 q 184 -6 189 34 q 179 -64 179 -46 q 188 -103 179 -87 q 211 -127 197 -118 q 242 -139 224 -136 q 277 -142 259 -142 l 265 -221 q 191 -215 227 -221 q 129 -192 156 -209 q 86 -144 102 -175 q 71 -64 71 -113 q 72 -41 71 -52 q 75 -16 73 -29 q 95 123 86 61 q 102 175 99 149 q 109 221 106 200 q 114 255 112 241 q 115 271 115 269 q 107 304 115 290 q 84 326 98 317 q 54 338 71 334 q 20 342 37 342 l 35 458 q 73 463 54 458 q 110 477 93 467 q 138 502 126 486 q 154 542 151 518 l 193 815 q 226 921 203 881 q 282 984 249 962 q 355 1013 315 1006 q 439 1021 395 1021 l 428 942 z "},"|":{"ha":296,"x_min":93,"x_max":203,"o":"m 203 -240 l 93 -240 l 93 1004 l 203 1004 l 203 -240 z "},"}":{"ha":380,"x_min":-58,"x_max":361,"o":"m 115 1021 q 190 1015 155 1021 q 252 991 225 1008 q 294 944 279 975 q 310 864 310 913 q 306 815 310 842 q 286 677 294 739 q 278 625 281 650 q 272 579 275 600 q 267 545 269 558 q 265 529 265 531 q 274 496 265 509 q 296 474 282 482 q 327 462 310 466 q 361 458 344 458 l 346 342 q 307 337 327 342 q 271 323 288 333 q 242 298 254 314 q 227 258 230 281 l 187 -16 q 155 -122 178 -81 q 99 -184 132 -162 q 26 -214 66 -206 q -58 -221 -15 -221 l -47 -142 q -9 -138 -29 -142 q 28 -123 11 -134 q 59 -93 46 -112 q 77 -43 73 -73 q 100 99 86 29 q 126 243 114 170 q 143 306 132 278 q 170 354 153 334 q 211 383 187 373 q 269 393 235 393 l 271 407 q 191 437 214 407 q 168 519 168 467 q 171 581 168 548 q 177 649 173 614 q 185 716 180 683 q 193 779 189 750 q 199 830 197 808 q 201 864 201 852 q 193 903 201 888 q 170 927 184 918 q 139 939 156 935 q 104 942 121 942 l 115 1021 z "},"~":{"ha":665,"x_min":31,"x_max":633,"o":"m 456 437 q 522 453 490 437 q 578 486 553 468 q 617 520 602 505 q 633 538 632 536 l 615 411 q 568 360 595 382 q 512 326 545 341 q 437 310 479 310 q 378 323 405 310 q 324 352 351 336 q 269 381 297 368 q 208 395 241 395 q 141 379 173 395 q 86 346 110 364 q 47 311 62 327 q 31 293 32 295 l 49 421 q 96 471 69 449 q 152 506 119 490 q 227 522 185 522 q 286 509 259 522 q 340 480 313 496 q 395 451 367 464 q 456 437 422 437 z "},"€":{"ha":633,"x_min":5,"x_max":660,"o":"m 568 970 q 660 956 616 970 l 646 857 q 609 865 628 863 q 571 868 591 868 q 379 807 460 868 q 252 615 298 745 l 532 615 l 518 525 l 225 525 q 221 501 223 513 q 218 476 220 489 q 214 452 216 464 q 212 428 212 439 l 505 428 l 492 338 l 211 338 q 287 146 222 208 q 461 85 352 85 q 500 87 481 85 q 539 96 519 90 l 525 -3 q 478 -13 501 -9 q 431 -17 454 -17 q 291 6 352 -17 q 186 75 229 30 q 120 187 144 121 q 93 338 96 253 l 5 338 l 20 428 l 97 428 q 99 452 97 439 q 103 476 100 464 q 106 501 104 489 q 110 525 108 513 l 32 525 l 46 615 l 134 615 q 198 766 159 700 q 290 877 237 832 q 413 946 344 922 q 568 970 481 970 z "},"‚":{"ha":253,"x_min":25,"x_max":210,"o":"m 191 12 l 102 -172 l 25 -172 l 96 0 l 50 0 l 71 150 l 210 150 l 191 12 z "},"ƒ":{"ha":633,"x_min":-5,"x_max":625,"o":"m 533 1015 q 584 1010 559 1015 q 625 999 608 1005 l 608 920 l 547 920 q 493 902 515 920 q 468 852 472 885 l 425 660 l 551 660 l 528 558 l 401 558 l 264 -85 q 242 -152 256 -121 q 207 -205 229 -183 q 155 -240 186 -228 q 83 -253 125 -253 q 34 -248 58 -253 q -5 -236 9 -242 l 8 -157 l 69 -157 q 123 -140 102 -157 q 149 -90 144 -123 l 288 558 l 189 558 l 212 660 l 311 660 l 353 847 q 375 915 361 884 q 410 968 389 946 q 461 1003 431 991 q 533 1015 492 1015 z "},"„":{"ha":379,"x_min":25,"x_max":397,"o":"m 378 12 l 289 -172 l 212 -172 l 283 0 l 237 0 l 258 150 l 397 150 l 378 12 m 191 12 l 102 -172 l 25 -172 l 96 0 l 50 0 l 71 150 l 210 150 l 191 12 z "},"…":{"ha":1139,"x_min":90,"x_max":1007,"o":"m 986 0 l 847 0 l 868 150 l 1007 150 l 986 0 m 229 0 l 90 0 l 111 150 l 250 150 l 229 0 m 608 0 l 469 0 l 490 150 l 629 150 l 608 0 z "},"†":{"ha":633,"x_min":79,"x_max":632,"o":"m 399 685 l 632 708 l 614 579 l 386 604 l 296 -236 l 165 -236 l 311 604 l 79 579 l 97 708 l 323 685 l 338 953 l 460 953 l 399 685 z "},"‡":{"ha":633,"x_min":0,"x_max":632,"o":"m 399 685 l 632 708 l 614 579 l 386 604 q 386 578 386 594 q 385 543 385 562 q 384 503 385 524 q 383 462 384 482 q 380 361 382 414 l 318 113 l 551 138 l 533 8 l 306 32 l 292 -236 l 170 -236 l 231 32 l 0 8 l 17 138 l 243 113 q 243 142 243 125 q 244 179 243 159 q 245 220 245 199 q 247 261 246 241 q 250 361 248 309 l 311 604 l 79 579 l 97 708 l 323 685 l 338 953 l 460 953 l 399 685 z "},"ˆ":{"ha":379,"x_min":25,"x_max":371,"o":"m 371 817 l 264 817 l 218 926 l 140 817 l 25 817 l 171 1004 l 279 1004 l 371 817 z "},"‰":{"ha":1139,"x_min":35,"x_max":1111,"o":"m 121 0 l 35 0 l 694 953 l 782 953 l 121 0 m 596 403 q 559 389 574 403 q 532 351 543 374 q 514 300 521 328 q 503 243 507 271 q 497 189 498 214 q 496 149 496 164 q 508 87 496 110 q 549 65 519 65 q 585 77 570 65 q 610 110 600 89 q 627 160 621 131 q 639 224 634 189 q 645 281 644 260 q 647 319 647 302 q 636 380 647 358 q 596 403 625 403 m 600 485 q 660 476 633 485 q 705 448 686 467 q 733 397 724 429 q 743 319 743 365 q 740 251 743 288 q 728 176 736 214 q 706 104 720 139 q 670 42 692 69 q 617 -1 648 16 q 545 -17 586 -17 q 485 -8 511 -17 q 440 20 458 1 q 411 71 421 39 q 401 147 401 102 q 418 308 401 243 q 462 412 435 372 q 526 468 490 451 q 600 485 562 485 m 269 888 q 232 873 248 888 q 205 836 216 859 q 187 785 194 813 q 176 728 180 756 q 171 674 172 699 q 170 633 170 649 q 181 572 170 595 q 222 550 193 550 q 258 562 243 550 q 284 594 273 573 q 301 644 294 615 q 313 708 308 673 q 319 766 318 745 q 321 804 321 787 q 310 865 321 843 q 269 888 299 888 m 273 970 q 333 961 307 970 q 378 933 360 952 q 407 882 397 913 q 416 804 416 850 q 413 735 416 772 q 401 661 410 698 q 379 589 393 623 q 343 527 365 554 q 290 484 321 500 q 218 468 260 468 q 158 477 184 468 q 113 505 132 486 q 85 555 95 524 q 75 632 75 587 q 92 792 75 728 q 136 897 109 857 q 199 953 163 936 q 273 970 235 970 m 964 403 q 926 389 942 403 q 900 351 911 374 q 882 300 888 328 q 871 243 875 271 q 865 189 867 214 q 864 149 864 164 q 876 87 864 110 q 917 65 887 65 q 953 77 938 65 q 978 110 968 89 q 996 160 989 131 q 1007 224 1002 189 q 1014 281 1012 260 q 1015 319 1015 302 q 1004 380 1015 358 q 964 403 994 403 m 968 485 q 1028 476 1001 485 q 1073 448 1055 467 q 1101 397 1091 429 q 1111 319 1111 365 q 1107 251 1111 288 q 1096 176 1104 214 q 1074 104 1088 139 q 1037 42 1059 69 q 985 -1 1015 16 q 913 -17 954 -17 q 852 -8 879 -17 q 808 20 826 1 q 780 71 789 39 q 770 147 770 102 q 786 308 770 243 q 830 412 803 372 q 893 468 858 451 q 968 485 929 485 z "},"Š":{"ha":760,"x_min":46,"x_max":730,"o":"m 436 970 q 574 947 518 970 q 665 885 631 924 q 715 791 700 845 q 730 673 730 736 l 604 673 q 588 769 604 733 q 546 825 572 805 q 490 851 521 844 q 429 857 458 857 q 383 853 411 857 q 330 833 355 848 q 285 790 304 819 q 267 711 267 761 q 284 648 267 674 q 331 602 302 622 q 397 566 360 583 q 474 533 435 550 q 550 495 513 516 q 616 446 587 475 q 663 377 645 417 q 681 282 681 338 q 675 216 681 250 q 654 148 669 181 q 614 85 639 115 q 552 32 589 55 q 464 -4 515 9 q 346 -17 413 -17 q 222 1 277 -17 q 128 55 167 20 q 67 143 89 91 q 46 261 46 195 q 46 292 46 277 q 50 325 47 308 l 176 325 q 171 291 173 307 q 170 260 170 275 q 182 186 170 217 q 220 135 195 155 q 278 105 244 115 q 355 96 313 96 q 418 103 384 96 q 482 129 452 111 q 532 180 512 148 q 553 264 553 213 q 535 331 553 303 q 488 380 517 359 q 422 419 459 402 q 347 454 385 436 q 271 492 308 471 q 205 541 234 513 q 158 606 176 568 q 140 697 140 644 q 160 814 140 763 q 218 899 180 865 q 311 952 256 934 q 436 970 366 970 m 534 1039 l 427 1039 l 335 1227 l 446 1227 l 492 1117 l 565 1227 l 680 1227 l 534 1039 z "},"‹":{"ha":379,"x_min":40,"x_max":374,"o":"m 178 453 l 294 175 l 196 175 l 40 453 l 272 730 l 374 730 l 178 453 z "},"Œ":{"ha":1139,"x_min":56,"x_max":1157,"o":"m 446 857 q 353 829 393 857 q 283 756 313 802 q 235 654 254 711 q 203 537 215 596 q 186 423 191 478 q 182 326 182 368 q 222 153 182 210 q 339 96 263 96 q 435 123 394 96 q 506 196 476 151 q 554 299 535 241 q 584 415 572 356 q 599 529 595 474 q 603 627 603 585 q 562 800 603 743 q 446 857 522 857 m 536 94 q 310 -17 442 -17 q 122 67 188 -17 q 56 321 56 151 q 60 414 56 363 q 73 517 64 464 q 98 626 83 571 q 136 730 113 680 q 188 824 158 781 q 256 900 218 868 q 342 951 294 932 q 447 970 389 970 q 643 859 582 970 l 657 953 l 1157 953 l 1140 842 l 762 842 l 721 543 l 1038 543 l 1022 432 l 705 432 l 661 111 l 1047 111 l 1031 0 l 522 0 l 536 94 z "},"Ž":{"ha":696,"x_min":-22,"x_max":730,"o":"m 496 1039 l 389 1039 l 297 1226 l 407 1226 l 454 1117 l 526 1226 l 642 1226 l 496 1039 m -22 0 l -18 53 l 539 842 l 119 842 l 136 953 l 730 953 l 726 900 l 168 111 l 627 111 l 610 0 l -22 0 z "},"‘":{"ha":253,"x_min":118,"x_max":302,"o":"m 232 781 l 278 781 l 257 631 l 118 631 l 138 768 l 227 953 l 302 953 l 232 781 z "},"’":{"ha":253,"x_min":61,"x_max":245,"o":"m 227 815 l 138 631 l 61 631 l 132 803 l 86 803 l 107 953 l 245 953 l 227 815 z "},"“":{"ha":379,"x_min":75,"x_max":447,"o":"m 376 781 l 422 781 l 401 631 l 262 631 l 282 768 l 371 953 l 447 953 l 376 781 m 189 781 l 235 781 l 214 631 l 75 631 l 94 768 l 183 953 l 260 953 l 189 781 z "},"”":{"ha":379,"x_min":61,"x_max":433,"o":"m 414 815 l 325 631 l 249 631 l 319 803 l 273 803 l 294 953 l 433 953 l 414 815 m 227 815 l 138 631 l 61 631 l 132 803 l 86 803 l 107 953 l 245 953 l 227 815 z "},"•":{"ha":399,"x_min":47,"x_max":351,"o":"m 199 632 q 258 620 231 632 q 307 587 286 608 q 339 537 328 566 q 351 478 351 509 q 339 418 351 446 q 307 369 328 390 q 258 335 286 347 q 199 322 231 322 q 140 335 168 322 q 92 369 113 347 q 59 418 71 390 q 47 478 47 446 q 59 537 47 509 q 92 587 71 566 q 140 620 113 608 q 199 632 168 632 z "},"–":{"ha":633,"x_min":-7,"x_max":639,"o":"m 624 323 l -7 323 l 7 428 l 639 428 l 624 323 z "},"—":{"ha":1139,"x_min":-7,"x_max":1146,"o":"m 1131 323 l -7 323 l 7 428 l 1146 428 l 1131 323 z "},"˜":{"ha":379,"x_min":43,"x_max":468,"o":"m 468 1004 q 454 955 465 980 q 428 908 444 929 q 388 873 412 887 q 335 860 365 860 q 291 867 311 860 q 253 881 271 873 q 216 896 234 889 q 176 903 197 903 q 143 893 157 903 q 122 860 129 884 l 43 860 q 56 909 47 884 q 82 956 66 935 q 121 991 98 977 q 175 1004 144 1004 q 218 998 198 1004 q 257 983 238 991 q 294 968 275 975 q 334 961 313 961 q 367 971 352 961 q 387 1004 381 981 l 468 1004 z "},"™":{"ha":1139,"x_min":164,"x_max":1067,"o":"m 987 392 l 916 392 l 981 859 l 975 859 l 787 392 l 722 392 l 667 859 l 661 859 l 596 392 l 530 392 l 610 953 l 720 953 l 772 504 l 778 504 l 958 953 l 1067 953 l 987 392 m 541 885 l 389 885 l 319 393 l 248 393 l 317 885 l 164 885 l 174 953 l 550 953 l 541 885 z "},"š":{"ha":570,"x_min":29,"x_max":543,"o":"m 322 747 q 417 728 378 747 q 482 677 457 709 q 519 604 507 645 q 530 518 530 562 l 412 518 q 404 580 412 555 q 380 620 395 605 q 347 641 366 635 q 310 647 329 647 q 278 641 294 647 q 247 624 261 635 q 224 596 233 613 q 215 558 215 580 q 236 491 215 517 q 287 445 256 465 q 354 408 318 426 q 421 365 390 390 q 472 302 452 340 q 493 205 493 264 q 476 111 493 153 q 429 41 460 70 q 355 -2 399 13 q 258 -17 312 -17 q 169 -1 211 -17 q 96 44 127 15 q 47 115 65 73 q 29 208 29 157 q 30 230 29 219 q 32 253 30 241 l 150 253 q 146 208 146 229 q 156 152 146 176 q 182 114 165 129 q 222 91 199 98 q 269 83 244 83 q 313 92 294 83 q 346 114 332 100 q 368 147 360 128 q 375 187 375 166 q 363 240 375 218 q 332 281 351 263 q 287 314 312 299 q 236 344 262 329 q 185 377 210 359 q 140 417 160 395 q 109 471 121 440 q 97 542 97 501 q 111 623 97 585 q 154 688 125 660 q 224 731 182 715 q 322 747 267 747 m 397 817 l 289 817 l 197 1004 l 308 1004 l 354 895 l 427 1004 l 543 1004 l 397 817 z "},"›":{"ha":379,"x_min":29,"x_max":364,"o":"m 364 453 l 131 175 l 29 175 l 227 453 l 109 730 l 207 730 l 364 453 z "},"œ":{"ha":1075,"x_min":64,"x_max":1008,"o":"m 783 747 q 950 683 892 747 q 1008 485 1008 619 q 1006 410 1008 449 q 997 332 1004 372 l 596 332 q 592 291 593 310 q 591 258 591 272 q 710 85 591 85 q 767 98 741 85 q 813 134 793 111 q 846 185 833 156 q 864 248 859 215 l 979 248 q 950 146 971 195 q 895 62 928 98 q 814 4 861 26 q 710 -17 768 -17 q 584 10 636 -17 q 504 92 532 37 q 417 13 469 43 q 294 -17 366 -17 q 123 46 182 -17 q 64 243 64 109 q 69 350 64 293 q 88 463 75 406 q 124 570 101 519 q 181 661 146 622 q 263 724 216 701 q 374 747 311 747 q 572 642 519 747 q 660 719 608 690 q 783 747 711 747 m 374 646 q 301 624 332 646 q 249 567 271 602 q 215 488 228 532 q 194 401 201 444 q 184 320 186 358 q 182 258 182 282 q 208 127 182 170 q 294 85 235 85 q 367 107 336 85 q 419 166 398 130 q 454 247 441 202 q 474 336 467 292 q 484 419 481 380 q 486 484 486 458 q 458 605 486 564 q 374 646 431 646 m 783 646 q 716 627 745 646 q 667 579 688 609 q 632 511 646 549 q 610 433 618 473 l 889 433 q 890 460 890 447 l 890 484 q 864 605 890 564 q 783 646 837 646 z "},"ž":{"ha":570,"x_min":3,"x_max":575,"o":"m 571 677 l 175 102 l 509 102 l 494 0 l 3 0 l 7 54 l 401 629 l 109 629 l 122 730 l 575 730 l 571 677 m 410 817 l 302 817 l 211 1004 l 321 1004 l 368 895 l 441 1004 l 556 1004 l 410 817 z "},"Ÿ":{"ha":760,"x_min":97,"x_max":835,"o":"m 449 395 l 393 0 l 271 0 l 326 395 l 97 953 l 231 953 l 404 511 l 410 511 l 707 953 l 835 953 l 449 395 m 657 1095 l 536 1095 l 555 1227 l 675 1227 l 657 1095 m 449 1095 l 328 1095 l 347 1227 l 467 1227 l 449 1095 z "}," ":{"ha":317,"x_min":0,"x_max":0,"o":""},"¡":{"ha":379,"x_min":65,"x_max":349,"o":"m 288 493 q 275 358 281 430 q 261 213 268 286 q 248 71 254 140 q 236 -58 241 1 q 227 -159 231 -116 q 222 -222 224 -203 l 65 -222 q 134 136 101 -43 q 201 493 168 314 l 288 493 m 328 581 l 189 581 l 210 730 l 349 730 l 328 581 z "},"¢":{"ha":633,"x_min":74,"x_max":586,"o":"m 422 852 q 544 775 503 838 q 586 596 586 713 l 586 571 l 473 571 l 473 595 q 408 750 473 722 l 330 200 q 377 223 356 206 q 415 263 399 239 q 441 316 431 287 q 456 378 452 346 l 564 378 q 538 274 557 323 q 488 185 519 224 q 413 121 456 146 q 315 94 370 97 l 293 -66 l 225 -66 l 249 98 q 120 178 166 114 q 74 359 74 242 q 79 468 74 412 q 96 579 83 525 q 128 683 108 633 q 180 770 149 732 q 254 831 211 808 q 355 857 298 854 l 376 1004 l 444 1004 l 422 852 m 340 753 q 282 717 307 744 q 240 654 257 690 q 212 575 222 617 q 196 493 201 533 q 188 420 190 454 q 186 370 186 387 q 205 259 186 302 q 262 201 224 216 l 340 753 z "},"£":{"ha":633,"x_min":-1,"x_max":633,"o":"m 429 970 q 514 959 476 970 q 578 926 551 949 q 619 865 605 903 q 633 775 633 828 q 632 737 633 758 q 625 682 630 716 l 511 682 q 515 708 514 697 q 518 728 517 720 q 519 742 519 736 q 519 754 519 749 q 496 841 519 813 q 428 868 473 868 q 342 831 374 868 q 298 715 310 795 l 271 522 l 456 522 l 441 422 l 256 422 l 200 110 l 546 110 l 529 0 l -1 0 l 16 110 l 98 110 l 142 422 l 41 422 l 56 522 l 155 522 l 180 693 q 265 903 201 837 q 429 970 328 970 z "},"¤":{"ha":633,"x_min":-4,"x_max":637,"o":"m 317 818 q 421 796 372 818 q 511 736 471 774 l 571 796 l 637 729 l 570 661 q 605 573 593 621 q 618 475 618 526 q 605 376 618 422 q 570 289 593 329 l 637 221 l 571 154 l 511 214 q 421 155 471 176 q 317 134 372 134 q 211 155 260 134 q 122 214 162 176 l 62 154 l -4 221 l 64 289 q 28 376 41 329 q 16 475 16 422 q 28 573 16 526 q 64 661 41 621 l -4 729 l 62 796 l 121 736 q 210 796 161 774 q 317 818 260 818 m 317 722 q 236 703 273 722 q 170 650 198 684 q 126 571 142 616 q 110 475 110 526 q 126 379 110 424 q 170 301 142 334 q 236 249 198 268 q 317 229 273 229 q 397 249 359 229 q 462 301 434 268 q 506 379 490 334 q 522 475 522 424 q 506 571 522 526 q 462 650 490 616 q 397 703 434 684 q 317 722 359 722 z "},"¥":{"ha":633,"x_min":17,"x_max":713,"o":"m 441 513 l 619 513 l 607 422 l 386 422 l 372 325 l 593 325 l 581 235 l 359 235 l 326 0 l 204 0 l 237 235 l 17 235 l 29 325 l 250 325 l 264 422 l 43 422 l 56 513 l 233 513 l 86 953 l 218 953 l 350 546 l 355 546 l 597 953 l 713 953 l 441 513 z "},"¦":{"ha":296,"x_min":93,"x_max":203,"o":"m 203 476 l 93 476 l 93 1004 l 203 1004 l 203 476 m 203 -240 l 93 -240 l 93 288 l 203 288 l 203 -240 z "},"§":{"ha":633,"x_min":40,"x_max":599,"o":"m 400 970 q 487 957 450 970 q 549 921 524 944 q 586 868 574 899 q 599 802 599 837 q 598 786 599 795 q 596 769 597 777 q 593 754 595 761 q 590 743 592 747 l 472 743 q 476 766 475 759 q 476 779 476 774 q 472 814 476 798 q 458 843 468 830 q 431 862 448 855 q 389 869 414 869 q 330 855 352 869 q 295 820 307 840 q 279 779 283 800 q 275 746 275 758 q 287 690 275 714 q 318 648 299 667 q 362 613 338 629 q 413 581 387 597 q 464 546 439 564 q 508 503 489 527 q 539 448 528 479 q 551 375 551 416 q 541 297 551 332 q 512 232 530 261 q 471 182 494 203 q 425 146 448 160 q 468 84 451 120 q 485 -3 485 48 q 468 -106 485 -60 q 418 -185 450 -153 q 340 -235 386 -218 q 239 -253 295 -253 q 152 -240 189 -253 q 90 -204 115 -227 q 53 -151 65 -182 q 40 -85 40 -120 q 41 -69 40 -78 q 43 -52 41 -60 q 46 -37 44 -44 q 49 -26 47 -30 l 167 -26 q 163 -50 163 -42 q 163 -62 163 -57 q 167 -97 163 -81 q 181 -126 171 -113 q 208 -145 191 -138 q 250 -153 225 -153 q 309 -138 287 -153 q 344 -103 332 -123 q 360 -62 356 -83 q 364 -29 364 -41 q 344 42 364 13 q 293 93 323 71 q 226 136 262 115 q 159 184 190 157 q 108 249 128 212 q 87 342 87 286 q 98 420 87 385 q 127 485 109 456 q 168 536 145 514 q 214 572 190 557 q 171 633 188 598 q 154 720 154 669 q 171 823 154 777 q 221 902 189 869 q 298 952 253 935 q 400 970 344 970 m 271 528 q 222 471 241 508 q 203 385 203 434 q 218 318 203 346 q 257 268 233 290 q 310 227 281 245 q 368 189 340 209 q 417 246 397 209 q 436 332 436 283 q 421 399 436 371 q 382 449 406 427 q 329 489 358 471 q 271 528 299 508 z "},"¨":{"ha":379,"x_min":115,"x_max":463,"o":"m 444 872 l 323 872 l 342 1004 l 463 1004 l 444 872 m 236 872 l 115 872 l 134 1004 l 254 1004 l 236 872 z "},"©":{"ha":839,"x_min":29,"x_max":810,"o":"m 419 970 q 583 935 511 970 q 706 836 655 900 q 783 680 756 771 q 810 476 810 589 q 783 273 810 363 q 706 117 756 182 q 583 18 655 53 q 419 -17 511 -17 q 256 18 328 -17 q 133 117 183 53 q 56 273 83 182 q 29 476 29 363 q 56 680 29 589 q 133 836 83 771 q 256 935 183 900 q 419 970 328 970 m 422 775 q 501 762 465 775 q 563 722 537 749 q 603 656 589 696 q 618 562 618 616 l 538 562 q 530 624 538 597 q 506 668 522 650 q 470 694 491 686 q 422 703 448 703 q 317 654 351 703 q 283 505 283 605 l 283 464 q 317 315 283 364 q 422 265 351 265 q 508 300 475 265 q 541 404 541 334 l 618 404 q 603 310 618 350 q 563 244 589 271 q 501 206 537 218 q 422 193 465 193 q 257 266 313 193 q 201 484 201 338 q 257 703 201 631 q 422 775 313 775 m 419 904 q 283 874 343 904 q 180 788 222 844 q 115 653 138 732 q 93 476 93 574 q 115 300 93 378 q 180 165 138 221 q 283 79 222 109 q 419 49 343 49 q 556 79 495 49 q 659 165 616 109 q 724 300 701 221 q 746 476 746 378 q 724 653 746 574 q 659 788 701 732 q 556 874 616 844 q 419 904 495 904 z "},"ª":{"ha":421,"x_min":85,"x_max":458,"o":"m 277 1022 q 308 1018 293 1022 q 334 1005 322 1014 q 356 980 347 996 q 372 942 366 965 l 418 1011 l 458 1011 q 429 809 441 899 q 418 734 424 771 q 409 668 413 697 q 402 620 405 638 q 400 599 400 601 q 407 578 400 584 q 424 572 414 572 l 453 572 l 446 518 q 425 508 438 513 q 393 503 412 503 q 339 520 359 503 q 318 581 319 538 q 268 522 293 541 q 211 503 243 503 q 160 513 183 503 q 120 547 137 524 q 94 605 104 570 q 85 688 85 640 q 102 836 85 772 q 146 940 119 899 q 208 1002 174 981 q 277 1022 242 1022 m 288 947 q 246 933 264 947 q 216 896 229 919 q 194 844 203 873 q 180 785 185 814 q 173 727 175 755 q 171 679 171 699 q 235 578 171 578 q 272 593 256 578 q 300 631 288 608 q 321 684 313 654 q 336 744 330 714 q 343 801 341 774 q 346 847 346 829 q 288 947 346 947 z "},"«":{"ha":633,"x_min":75,"x_max":618,"o":"m 424 453 l 539 175 l 441 175 l 285 453 l 518 730 l 618 730 l 424 453 m 212 453 l 329 175 l 231 175 l 75 453 l 307 730 l 408 730 l 212 453 z "},"¬":{"ha":665,"x_min":60,"x_max":628,"o":"m 579 273 l 463 273 l 493 500 l 60 500 l 78 629 l 628 629 l 579 273 z "},"­":{"ha":379,"x_min":4,"x_max":372,"o":"m 354 307 l 4 307 l 22 443 l 372 443 l 354 307 z "},"®":{"ha":839,"x_min":29,"x_max":810,"o":"m 419 970 q 583 935 511 970 q 706 836 655 900 q 783 680 756 771 q 810 476 810 589 q 783 273 810 363 q 706 117 756 182 q 583 18 655 53 q 419 -17 511 -17 q 256 18 328 -17 q 133 117 183 53 q 56 273 83 182 q 29 476 29 363 q 56 680 29 589 q 133 836 83 771 q 256 935 183 900 q 419 970 328 970 m 419 904 q 283 874 343 904 q 180 788 222 844 q 115 653 138 732 q 93 476 93 574 q 115 300 93 378 q 180 165 138 221 q 283 79 222 109 q 419 49 343 49 q 556 79 495 49 q 659 165 616 109 q 724 300 701 221 q 746 476 746 378 q 724 653 746 574 q 659 788 701 732 q 556 874 616 844 q 419 904 495 904 m 465 764 q 522 753 496 764 q 568 725 549 743 q 597 681 587 707 q 608 624 608 655 q 583 539 608 573 q 521 493 557 506 l 521 488 q 541 476 527 485 q 569 451 555 468 q 594 406 583 433 q 604 339 604 379 q 607 291 604 310 q 614 260 609 272 q 626 242 619 248 q 643 232 633 235 l 643 208 q 626 204 637 206 q 603 201 614 201 q 573 207 587 201 q 547 224 558 212 q 530 256 536 236 q 524 307 524 277 q 515 377 524 350 q 492 421 506 405 q 463 443 479 437 q 433 449 448 449 l 321 449 l 321 205 l 241 205 l 241 764 l 465 764 m 321 690 l 321 522 l 436 522 q 502 546 478 522 q 526 608 526 570 q 503 669 526 648 q 440 690 479 690 l 321 690 z "},"¯":{"ha":379,"x_min":111,"x_max":473,"o":"m 458 832 l 111 832 l 126 932 l 473 932 l 458 832 z "},"°":{"ha":555,"x_min":104,"x_max":479,"o":"m 292 970 q 365 955 331 970 q 425 915 399 941 q 465 856 450 890 q 479 782 479 821 q 465 709 479 743 q 425 649 450 675 q 365 609 399 624 q 292 595 331 595 q 218 609 252 595 q 159 649 184 624 q 119 709 134 675 q 104 782 104 743 q 119 856 104 821 q 159 915 134 890 q 218 955 184 941 q 292 970 252 970 m 292 895 q 247 886 268 895 q 211 862 227 877 q 187 826 196 846 q 178 782 178 805 q 187 738 178 758 q 211 702 196 717 q 247 677 227 686 q 292 668 268 668 q 335 677 315 668 q 371 702 356 686 q 395 738 387 717 q 404 782 404 758 q 395 826 404 805 q 371 862 387 846 q 335 886 356 877 q 292 895 315 895 z "},"±":{"ha":762,"x_min":52,"x_max":672,"o":"m 457 547 l 672 547 l 656 431 l 440 431 l 406 176 l 290 176 l 325 431 l 111 431 l 127 547 l 342 547 l 378 803 l 493 803 l 457 547 m 596 0 l 52 0 l 68 115 l 612 115 l 596 0 z "},"²":{"ha":379,"x_min":53,"x_max":429,"o":"m 289 1021 q 345 1014 319 1021 q 389 991 370 1006 q 418 952 408 976 q 429 895 429 928 q 415 820 429 856 q 377 752 400 785 q 324 689 353 719 q 265 632 295 659 q 218 587 242 610 q 178 534 195 563 l 380 534 l 368 447 l 53 447 l 57 469 q 85 550 62 513 q 139 621 109 587 q 205 684 170 654 q 269 746 239 715 q 317 811 298 777 q 336 884 336 844 q 334 904 336 894 q 325 921 331 913 q 308 934 319 929 q 282 939 298 939 q 251 931 264 939 q 228 912 237 924 q 213 883 218 899 q 204 847 207 866 l 199 804 l 111 804 q 127 902 112 861 q 167 970 142 943 q 224 1008 192 996 q 289 1021 256 1021 z "},"³":{"ha":379,"x_min":74,"x_max":427,"o":"m 288 1021 q 390 988 353 1021 q 427 892 427 955 q 403 795 427 831 q 340 737 379 759 q 382 695 366 723 q 399 628 399 668 q 384 549 399 584 q 345 489 370 513 q 289 452 321 465 q 222 439 257 439 q 111 475 149 439 q 74 575 74 511 q 75 602 74 587 q 78 628 76 616 l 167 628 q 163 598 163 607 q 163 583 163 589 q 221 518 163 518 q 256 525 239 518 q 284 545 272 531 q 304 580 296 559 q 311 629 311 601 q 306 661 311 648 q 291 681 300 674 q 270 691 282 688 q 244 694 258 694 l 204 694 l 215 774 l 257 774 q 287 780 272 774 q 312 799 301 787 q 331 831 323 812 q 338 878 338 851 q 322 927 338 911 q 285 942 307 942 q 235 921 256 942 q 207 854 213 899 l 204 836 l 117 836 l 121 861 q 141 927 127 898 q 178 977 156 956 q 227 1009 199 998 q 288 1021 255 1021 z "},"´":{"ha":379,"x_min":183,"x_max":429,"o":"m 429 1000 l 279 821 l 183 821 l 302 1004 l 428 1004 l 429 1000 z "},"µ":{"ha":800,"x_min":97,"x_max":701,"o":"m 599 0 l 510 0 l 510 107 q 487 70 502 92 q 449 30 472 49 q 392 -3 425 10 q 315 -17 359 -17 q 276 -14 294 -17 q 243 -4 258 -10 l 211 -240 l 97 -240 l 235 730 l 349 730 q 311 469 328 586 q 297 369 303 418 q 285 279 290 320 q 276 210 279 239 q 273 174 273 182 q 295 106 273 127 q 357 85 316 85 q 421 102 392 85 q 472 151 450 119 q 508 226 494 182 q 530 322 523 269 l 587 730 l 701 730 l 599 0 z "},"¶":{"ha":611,"x_min":61,"x_max":665,"o":"m 653 868 l 586 868 l 431 -240 l 339 -240 l 494 868 l 421 868 l 265 -240 l 175 -240 l 258 347 q 178 374 214 353 q 115 429 141 395 q 75 505 90 462 q 61 599 61 549 q 87 747 61 681 q 157 858 113 812 q 257 928 201 904 q 375 953 314 953 l 665 953 l 653 868 z "},"·":{"ha":317,"x_min":100,"x_max":261,"o":"m 240 400 l 100 400 l 121 554 l 261 554 l 240 400 z "},"¸":{"ha":379,"x_min":32,"x_max":309,"o":"m 207 -50 q 245 -56 227 -52 q 278 -70 264 -61 q 300 -92 292 -79 q 309 -125 309 -106 q 291 -190 309 -165 q 249 -229 274 -215 q 196 -248 224 -243 q 147 -253 168 -253 q 87 -250 118 -253 q 32 -241 56 -247 l 41 -174 l 147 -174 q 188 -165 172 -174 q 203 -132 203 -157 q 193 -113 203 -119 q 160 -107 183 -107 l 114 -107 l 150 16 l 227 16 l 207 -50 z "},"¹":{"ha":379,"x_min":74,"x_max":382,"o":"m 281 528 l 382 528 l 371 447 l 74 447 l 85 528 l 195 528 l 245 886 l 135 886 l 143 946 q 180 954 159 948 q 224 967 201 959 q 269 985 247 975 q 309 1006 291 995 l 349 1006 l 281 528 z "},"º":{"ha":415,"x_min":81,"x_max":449,"o":"m 292 1021 q 409 977 368 1021 q 449 842 449 934 q 445 769 449 808 q 432 693 441 731 q 408 621 423 656 q 369 559 392 586 q 313 517 345 533 q 237 501 280 501 q 120 544 160 501 q 81 677 81 587 q 84 750 81 711 q 97 827 88 789 q 122 900 106 865 q 160 962 137 935 q 216 1005 184 989 q 292 1021 248 1021 m 292 946 q 244 931 264 946 q 211 893 224 917 q 189 841 197 870 q 176 784 180 812 q 170 730 171 755 q 168 689 168 705 q 184 604 168 632 q 237 576 201 576 q 284 592 264 576 q 318 631 304 607 q 340 685 332 654 q 353 744 349 715 q 359 799 358 773 q 361 842 361 825 q 343 919 361 892 q 292 946 326 946 z "},"»":{"ha":633,"x_min":31,"x_max":575,"o":"m 575 453 l 342 175 l 240 175 l 437 453 l 319 730 l 418 730 l 575 453 m 366 453 l 131 175 l 31 175 l 227 453 l 110 730 l 207 730 l 366 453 z "},"¼":{"ha":950,"x_min":40,"x_max":911,"o":"m 199 -17 l 111 -17 l 825 970 l 911 970 l 199 -17 m 248 475 l 349 475 l 338 395 l 40 395 l 52 475 l 161 475 l 212 833 l 102 833 l 110 893 q 147 901 126 895 q 191 914 168 906 q 236 932 214 922 q 275 953 258 942 l 315 953 l 248 475 m 817 574 q 771 466 797 521 q 719 363 745 412 q 668 275 692 314 q 627 212 643 235 l 745 212 l 762 339 q 778 369 768 351 q 797 408 787 387 q 816 451 806 429 q 832 493 825 473 l 869 493 l 831 212 l 886 212 l 875 134 l 819 134 l 800 0 l 714 0 l 733 134 l 525 134 l 533 205 q 640 381 589 286 q 730 574 690 477 l 817 574 z "},"½":{"ha":950,"x_min":39,"x_max":913,"o":"m 178 -17 l 90 -17 l 804 970 l 890 970 l 178 -17 m 245 475 l 347 475 l 336 395 l 39 395 l 50 475 l 160 475 l 211 833 l 100 833 l 109 893 q 146 901 125 895 q 189 914 167 906 q 234 932 212 922 q 273 953 256 942 l 314 953 l 245 475 m 772 574 q 827 567 802 574 q 872 544 853 559 q 902 505 891 529 q 913 447 913 481 q 898 373 913 408 q 860 304 884 337 q 808 242 837 272 q 749 184 779 212 q 702 139 726 163 q 661 87 678 116 l 864 87 l 851 0 l 536 0 l 541 22 q 569 103 546 66 q 622 174 591 140 q 688 237 653 207 q 752 299 723 268 q 800 364 781 330 q 819 436 819 397 q 817 456 819 446 q 808 474 814 467 q 791 487 802 482 q 765 492 781 492 q 734 485 747 492 q 711 465 721 477 q 696 436 702 452 q 688 400 690 419 l 682 357 l 595 357 q 611 455 595 414 q 651 523 626 496 q 707 562 675 549 q 772 574 739 574 z "},"¾":{"ha":950,"x_min":60,"x_max":904,"o":"m 192 -17 l 104 -17 l 818 970 l 904 970 l 192 -17 m 273 970 q 375 937 338 970 q 412 840 412 903 q 389 744 412 780 q 326 686 365 708 q 368 644 352 671 q 385 576 385 616 q 370 497 385 532 q 331 437 355 462 q 275 400 307 413 q 208 387 243 387 q 97 424 135 387 q 60 524 60 460 q 61 551 60 536 q 64 576 62 565 l 153 576 q 149 547 149 555 q 149 532 149 538 q 207 467 149 467 q 241 473 225 467 q 270 493 258 479 q 290 528 283 507 q 297 578 297 549 q 292 610 297 597 q 277 630 286 623 q 256 640 268 637 q 231 643 244 643 l 191 643 l 201 722 l 243 722 q 272 729 258 722 q 298 748 287 735 q 317 781 310 761 q 323 827 323 800 q 308 875 323 860 q 271 890 292 890 q 221 869 242 890 q 193 803 199 848 l 191 785 l 103 785 l 107 810 q 127 876 113 846 q 163 926 142 905 q 213 958 185 947 q 273 970 241 970 m 812 574 q 767 466 793 521 q 715 363 741 412 q 664 275 688 314 q 623 212 639 235 l 741 212 l 758 339 q 773 369 764 351 q 792 408 783 387 q 812 451 802 429 q 828 493 821 473 l 865 493 l 827 212 l 882 212 l 871 134 l 815 134 l 796 0 l 710 0 l 729 134 l 521 134 l 529 205 q 635 381 585 286 q 726 574 686 477 l 812 574 z "},"¿":{"ha":696,"x_min":104,"x_max":624,"o":"m 464 403 q 437 319 457 354 q 392 257 418 285 q 338 203 366 229 q 288 149 311 178 q 249 82 264 119 q 233 -8 233 45 q 237 -49 233 -27 q 253 -89 241 -71 q 284 -120 264 -108 q 338 -132 305 -132 q 404 -116 376 -132 q 449 -76 431 -100 q 477 -24 467 -52 q 492 30 487 5 q 498 73 497 55 q 500 93 500 90 l 624 93 q 603 -34 623 26 q 545 -139 583 -94 q 452 -212 507 -184 q 326 -239 397 -239 q 235 -224 276 -239 q 165 -181 195 -209 q 120 -116 136 -154 q 104 -31 104 -77 q 121 88 104 39 q 162 175 137 138 q 216 240 186 212 q 273 296 246 269 q 320 353 300 323 q 346 424 340 383 l 354 481 l 475 481 l 464 403 m 498 581 l 359 581 l 382 730 l 521 730 l 498 581 z "},"À":{"ha":760,"x_min":-50,"x_max":711,"o":"m 562 1043 l 465 1043 l 342 1222 l 345 1226 l 468 1226 l 562 1043 m 549 212 l 167 212 l 71 0 l -50 0 l 386 953 l 543 953 l 711 0 l 585 0 l 549 212 m 216 323 l 530 323 l 460 747 q 456 777 458 759 q 454 812 455 795 q 453 852 453 831 l 447 852 q 433 811 440 831 q 420 777 427 794 q 408 747 414 759 l 216 323 z "},"Á":{"ha":760,"x_min":-50,"x_max":711,"o":"m 653 1222 l 503 1043 l 406 1043 l 525 1226 l 652 1226 l 653 1222 m 549 212 l 167 212 l 71 0 l -50 0 l 386 953 l 543 953 l 711 0 l 585 0 l 549 212 m 216 323 l 530 323 l 460 747 q 456 777 458 759 q 454 812 455 795 q 453 852 453 831 l 447 852 q 433 811 440 831 q 420 777 427 794 q 408 747 414 759 l 216 323 z "},"Â":{"ha":760,"x_min":-50,"x_max":711,"o":"m 646 1039 l 539 1039 l 493 1149 l 415 1039 l 300 1039 l 446 1226 l 554 1226 l 646 1039 m 549 212 l 167 212 l 71 0 l -50 0 l 386 953 l 543 953 l 711 0 l 585 0 l 549 212 m 216 323 l 530 323 l 460 747 q 456 777 458 759 q 454 812 455 795 q 453 852 453 831 l 447 852 q 433 811 440 831 q 420 777 427 794 q 408 747 414 759 l 216 323 z "},"Ã":{"ha":760,"x_min":-50,"x_max":711,"o":"m 704 1226 q 691 1177 701 1202 q 664 1130 681 1151 q 625 1095 648 1109 q 571 1082 602 1082 q 528 1088 547 1082 q 489 1103 508 1095 q 452 1118 471 1112 q 412 1125 433 1125 q 379 1115 393 1125 q 358 1082 365 1105 l 279 1082 q 293 1132 283 1106 q 319 1178 302 1157 q 358 1213 335 1199 q 411 1226 380 1226 q 454 1219 434 1226 q 493 1205 474 1213 q 530 1190 511 1197 q 570 1183 549 1183 q 603 1193 589 1183 q 624 1226 617 1202 l 704 1226 m 549 212 l 167 212 l 71 0 l -50 0 l 386 953 l 543 953 l 711 0 l 585 0 l 549 212 m 216 323 l 530 323 l 460 747 q 456 777 458 759 q 454 812 455 795 q 453 852 453 831 l 447 852 q 433 811 440 831 q 420 777 427 794 q 408 747 414 759 l 216 323 z "},"Ä":{"ha":760,"x_min":-50,"x_max":711,"o":"m 653 1095 l 532 1095 l 550 1226 l 671 1226 l 653 1095 m 444 1095 l 323 1095 l 343 1226 l 463 1226 l 444 1095 m 549 212 l 167 212 l 71 0 l -50 0 l 386 953 l 543 953 l 711 0 l 585 0 l 549 212 m 216 323 l 530 323 l 460 747 q 456 777 458 759 q 454 812 455 795 q 453 852 453 831 l 447 852 q 433 811 440 831 q 420 777 427 794 q 408 747 414 759 l 216 323 z "},"Å":{"ha":760,"x_min":-50,"x_max":711,"o":"m 497 1246 q 545 1237 524 1246 q 583 1213 567 1228 q 608 1176 599 1197 q 616 1129 616 1154 q 605 1076 616 1101 q 575 1032 594 1050 q 532 1003 556 1014 q 481 993 507 993 q 432 1002 454 993 q 394 1026 410 1010 q 369 1062 378 1041 q 359 1109 359 1084 q 371 1165 359 1140 q 402 1208 383 1190 q 447 1236 422 1226 q 497 1246 471 1246 m 493 1190 q 443 1169 464 1190 q 422 1114 422 1147 q 427 1089 422 1101 q 439 1068 431 1077 q 459 1054 448 1059 q 485 1048 471 1048 q 512 1054 499 1048 q 534 1070 524 1060 q 550 1094 544 1080 q 555 1125 555 1108 q 551 1150 555 1138 q 538 1171 546 1162 q 518 1185 530 1179 q 493 1190 507 1190 m 549 212 l 167 212 l 71 0 l -50 0 l 386 953 l 543 953 l 711 0 l 585 0 l 549 212 m 216 323 l 530 323 l 460 747 q 456 777 458 759 q 454 812 455 795 q 453 852 453 831 l 447 852 q 433 811 440 831 q 420 777 427 794 q 408 747 414 759 l 216 323 z "},"Æ":{"ha":1139,"x_min":-60,"x_max":1153,"o":"m 1043 111 l 1026 0 l 570 0 l 551 212 l 178 212 l 68 0 l -60 0 l 460 953 l 1153 953 l 1136 842 l 627 842 l 652 543 l 1034 543 l 1018 432 l 660 432 l 688 111 l 1043 111 m 236 323 l 543 323 l 510 730 q 508 760 509 742 q 506 795 507 779 q 504 836 505 815 l 498 836 q 479 795 488 815 q 464 760 472 779 q 449 730 455 742 l 236 323 z "},"Ç":{"ha":822,"x_min":71,"x_max":791,"o":"m 665 637 q 622 802 665 747 q 489 857 579 857 q 401 839 440 857 q 333 791 363 821 q 281 721 303 761 q 244 638 260 682 q 220 550 229 594 q 205 466 210 505 q 198 393 200 426 q 196 342 196 361 q 246 160 196 223 q 392 97 296 97 q 486 117 445 97 q 557 169 527 136 q 605 245 587 202 q 631 336 623 289 l 751 336 q 715 201 742 265 q 643 89 688 137 q 537 12 599 40 q 396 -17 475 -17 l 389 -17 l 378 -50 q 417 -56 399 -52 q 450 -70 435 -61 q 472 -92 464 -79 q 480 -125 480 -106 q 463 -190 480 -165 q 421 -229 446 -215 q 368 -248 396 -243 q 319 -253 340 -253 q 258 -250 290 -253 q 203 -241 227 -247 l 213 -174 l 319 -174 q 359 -165 344 -174 q 374 -132 374 -157 q 365 -113 374 -119 q 332 -107 355 -107 l 286 -107 l 314 -10 q 213 26 258 0 q 136 95 168 52 q 87 198 104 138 q 71 335 71 258 q 79 469 71 397 q 107 610 87 540 q 158 746 126 681 q 236 861 189 811 q 346 940 283 910 q 490 970 408 970 q 715 886 638 970 q 791 629 791 803 l 791 607 l 665 607 l 665 637 z "},"È":{"ha":760,"x_min":47,"x_max":770,"o":"m 550 1043 l 453 1043 l 328 1222 l 330 1226 l 456 1226 l 550 1043 m 47 0 l 182 953 l 770 953 l 753 842 l 288 842 l 245 543 l 650 543 l 635 432 l 231 432 l 186 111 l 660 111 l 643 0 l 47 0 z "},"É":{"ha":760,"x_min":47,"x_max":770,"o":"m 639 1222 l 490 1043 l 393 1043 l 513 1226 l 637 1226 l 639 1222 m 47 0 l 182 953 l 770 953 l 753 842 l 288 842 l 245 543 l 650 543 l 635 432 l 231 432 l 186 111 l 660 111 l 643 0 l 47 0 z "},"Ê":{"ha":760,"x_min":47,"x_max":770,"o":"m 633 1039 l 526 1039 l 481 1149 l 403 1039 l 288 1039 l 433 1226 l 542 1226 l 633 1039 m 47 0 l 182 953 l 770 953 l 753 842 l 288 842 l 245 543 l 650 543 l 635 432 l 231 432 l 186 111 l 660 111 l 643 0 l 47 0 z "},"Ë":{"ha":760,"x_min":47,"x_max":770,"o":"m 640 1095 l 519 1095 l 538 1226 l 659 1226 l 640 1095 m 432 1095 l 311 1095 l 329 1226 l 450 1226 l 432 1095 m 47 0 l 182 953 l 770 953 l 753 842 l 288 842 l 245 543 l 650 543 l 635 432 l 231 432 l 186 111 l 660 111 l 643 0 l 47 0 z "},"Ì":{"ha":317,"x_min":47,"x_max":340,"o":"m 170 0 l 47 0 l 182 953 l 304 953 l 170 0 m 340 1043 l 243 1043 l 119 1223 l 121 1227 l 246 1227 l 340 1043 z "},"Í":{"ha":317,"x_min":47,"x_max":430,"o":"m 170 0 l 47 0 l 182 953 l 304 953 l 170 0 m 430 1223 l 280 1043 l 184 1043 l 303 1227 l 429 1227 l 430 1223 z "},"Î":{"ha":317,"x_min":47,"x_max":424,"o":"m 170 0 l 47 0 l 182 953 l 304 953 l 170 0 m 424 1039 l 317 1039 l 271 1149 l 193 1039 l 78 1039 l 224 1227 l 332 1227 l 424 1039 z "},"Ï":{"ha":317,"x_min":47,"x_max":449,"o":"m 170 0 l 47 0 l 182 953 l 304 953 l 170 0 m 431 1095 l 310 1095 l 328 1227 l 449 1227 l 431 1095 m 222 1095 l 102 1095 l 120 1227 l 241 1227 l 222 1095 z "},"Ð":{"ha":822,"x_min":20,"x_max":782,"o":"m 47 0 l 110 449 l 20 449 l 32 538 l 122 538 l 182 953 l 464 953 q 598 930 539 953 q 699 863 658 908 q 761 752 739 819 q 782 596 782 685 q 772 466 782 534 q 742 332 763 398 q 689 205 722 265 q 610 100 656 145 q 504 27 564 54 q 368 0 444 0 l 47 0 m 288 842 l 244 538 l 463 538 l 450 449 l 232 449 l 186 111 l 354 111 q 459 134 414 111 q 538 193 505 156 q 594 280 572 231 q 631 383 617 329 q 650 491 644 437 q 656 595 656 546 q 642 704 656 657 q 602 781 628 750 q 537 826 575 811 q 450 842 498 842 l 288 842 z "},"Ñ":{"ha":822,"x_min":46,"x_max":808,"o":"m 673 0 l 578 0 l 304 607 q 290 644 297 622 q 275 686 282 665 q 258 734 267 709 l 254 733 q 250 684 253 707 q 246 643 248 665 q 241 607 243 621 l 155 0 l 46 0 l 180 953 l 281 953 l 551 354 q 565 319 557 340 q 580 277 572 297 q 596 227 588 253 l 600 228 q 606 279 603 255 q 610 321 608 300 q 614 354 612 342 l 699 953 l 808 953 l 673 0 m 732 1227 q 718 1177 728 1202 q 692 1131 708 1152 q 652 1096 675 1109 q 599 1082 629 1082 q 555 1089 575 1082 q 516 1104 535 1096 q 479 1118 498 1112 q 440 1125 461 1125 q 407 1116 421 1125 q 386 1082 393 1106 l 307 1082 q 320 1132 311 1106 q 346 1179 330 1158 q 385 1213 362 1200 q 439 1227 408 1227 q 482 1220 462 1227 q 520 1205 502 1213 q 558 1190 539 1197 q 597 1183 576 1183 q 630 1193 616 1183 q 651 1227 645 1203 l 732 1227 z "},"Ò":{"ha":886,"x_min":71,"x_max":840,"o":"m 510 970 q 649 947 588 970 q 753 879 711 924 q 818 766 795 834 q 840 607 840 698 q 831 469 840 541 q 800 327 821 397 q 745 195 779 258 q 663 86 711 133 q 549 11 614 39 q 400 -17 484 -17 q 261 5 322 -17 q 157 73 199 28 q 93 185 115 117 q 71 343 71 252 q 80 482 71 410 q 110 624 89 554 q 164 756 131 693 q 247 866 198 819 q 361 942 296 913 q 510 970 427 970 m 509 857 q 399 834 446 857 q 316 771 351 810 q 258 679 281 731 q 221 570 235 627 q 202 455 208 513 q 196 346 196 397 q 250 158 196 220 q 401 96 303 96 q 512 119 465 96 q 594 183 559 143 q 652 275 629 222 q 689 384 675 327 q 708 498 703 441 q 714 607 714 556 q 700 716 714 669 q 660 795 686 764 q 595 842 633 826 q 509 857 557 857 m 623 1043 l 526 1043 l 401 1223 l 404 1227 l 529 1227 l 623 1043 z "},"Ó":{"ha":886,"x_min":71,"x_max":840,"o":"m 510 970 q 649 947 588 970 q 753 879 711 924 q 818 766 795 834 q 840 607 840 698 q 831 469 840 541 q 800 327 821 397 q 745 195 779 258 q 663 86 711 133 q 549 11 614 39 q 400 -17 484 -17 q 261 5 322 -17 q 157 73 199 28 q 93 185 115 117 q 71 343 71 252 q 80 482 71 410 q 110 624 89 554 q 164 756 131 693 q 247 866 198 819 q 361 942 296 913 q 510 970 427 970 m 509 857 q 399 834 446 857 q 316 771 351 810 q 258 679 281 731 q 221 570 235 627 q 202 455 208 513 q 196 346 196 397 q 250 158 196 220 q 401 96 303 96 q 512 119 465 96 q 594 183 559 143 q 652 275 629 222 q 689 384 675 327 q 708 498 703 441 q 714 607 714 556 q 700 716 714 669 q 660 795 686 764 q 595 842 633 826 q 509 857 557 857 m 713 1223 l 563 1043 l 467 1043 l 586 1227 l 711 1227 l 713 1223 z "},"Ô":{"ha":886,"x_min":71,"x_max":840,"o":"m 510 970 q 649 947 588 970 q 753 879 711 924 q 818 766 795 834 q 840 607 840 698 q 831 469 840 541 q 800 327 821 397 q 745 195 779 258 q 663 86 711 133 q 549 11 614 39 q 400 -17 484 -17 q 261 5 322 -17 q 157 73 199 28 q 93 185 115 117 q 71 343 71 252 q 80 482 71 410 q 110 624 89 554 q 164 756 131 693 q 247 866 198 819 q 361 942 296 913 q 510 970 427 970 m 509 857 q 399 834 446 857 q 316 771 351 810 q 258 679 281 731 q 221 570 235 627 q 202 455 208 513 q 196 346 196 397 q 250 158 196 220 q 401 96 303 96 q 512 119 465 96 q 594 183 559 143 q 652 275 629 222 q 689 384 675 327 q 708 498 703 441 q 714 607 714 556 q 700 716 714 669 q 660 795 686 764 q 595 842 633 826 q 509 857 557 857 m 707 1039 l 600 1039 l 554 1149 l 476 1039 l 361 1039 l 507 1227 l 615 1227 l 707 1039 z "},"Õ":{"ha":886,"x_min":71,"x_max":840,"o":"m 510 970 q 649 947 588 970 q 753 879 711 924 q 818 766 795 834 q 840 607 840 698 q 831 469 840 541 q 800 327 821 397 q 745 195 779 258 q 663 86 711 133 q 549 11 614 39 q 400 -17 484 -17 q 261 5 322 -17 q 157 73 199 28 q 93 185 115 117 q 71 343 71 252 q 80 482 71 410 q 110 624 89 554 q 164 756 131 693 q 247 866 198 819 q 361 942 296 913 q 510 970 427 970 m 509 857 q 399 834 446 857 q 316 771 351 810 q 258 679 281 731 q 221 570 235 627 q 202 455 208 513 q 196 346 196 397 q 250 158 196 220 q 401 96 303 96 q 512 119 465 96 q 594 183 559 143 q 652 275 629 222 q 689 384 675 327 q 708 498 703 441 q 714 607 714 556 q 700 716 714 669 q 660 795 686 764 q 595 842 633 826 q 509 857 557 857 m 764 1227 q 751 1177 761 1202 q 724 1131 741 1152 q 685 1096 708 1109 q 631 1082 661 1082 q 588 1089 608 1082 q 549 1104 568 1096 q 512 1118 530 1112 q 473 1125 494 1125 q 439 1116 454 1125 q 418 1082 425 1106 l 339 1082 q 353 1132 343 1106 q 378 1179 362 1158 q 418 1213 395 1200 q 471 1227 441 1227 q 514 1220 494 1227 q 553 1205 534 1213 q 590 1190 572 1197 q 630 1183 609 1183 q 663 1193 648 1183 q 684 1227 677 1203 l 764 1227 z "},"Ö":{"ha":886,"x_min":71,"x_max":840,"o":"m 510 970 q 649 947 588 970 q 753 879 711 924 q 818 766 795 834 q 840 607 840 698 q 831 469 840 541 q 800 327 821 397 q 745 195 779 258 q 663 86 711 133 q 549 11 614 39 q 400 -17 484 -17 q 261 5 322 -17 q 157 73 199 28 q 93 185 115 117 q 71 343 71 252 q 80 482 71 410 q 110 624 89 554 q 164 756 131 693 q 247 866 198 819 q 361 942 296 913 q 510 970 427 970 m 509 857 q 399 834 446 857 q 316 771 351 810 q 258 679 281 731 q 221 570 235 627 q 202 455 208 513 q 196 346 196 397 q 250 158 196 220 q 401 96 303 96 q 512 119 465 96 q 594 183 559 143 q 652 275 629 222 q 689 384 675 327 q 708 498 703 441 q 714 607 714 556 q 700 716 714 669 q 660 795 686 764 q 595 842 633 826 q 509 857 557 857 m 713 1095 l 593 1095 l 611 1227 l 732 1227 l 713 1095 m 505 1095 l 385 1095 l 403 1227 l 524 1227 l 505 1095 z "},"×":{"ha":665,"x_min":22,"x_max":661,"o":"m 596 647 q 629 606 612 626 q 661 566 646 586 l 418 354 l 602 144 q 557 103 578 123 q 514 62 536 83 q 421 167 468 115 q 330 271 375 218 l 87 62 q 56 103 72 83 q 22 144 39 123 l 264 354 l 82 566 q 126 606 105 586 q 170 647 148 626 l 354 436 l 596 647 z "},"Ø":{"ha":886,"x_min":69,"x_max":840,"o":"m 757 875 q 819 762 798 829 q 840 607 840 696 q 831 469 840 541 q 800 327 821 397 q 745 195 779 258 q 663 86 711 133 q 549 11 614 39 q 400 -17 484 -17 q 210 29 288 -17 l 158 -52 l 69 -52 l 153 78 q 91 189 112 123 q 71 343 71 254 q 80 482 71 410 q 110 624 89 554 q 164 756 131 693 q 247 866 198 819 q 361 942 296 913 q 510 970 427 970 q 613 958 566 970 q 699 922 661 946 l 751 1004 l 840 1004 l 757 875 m 277 132 q 401 96 326 96 q 512 119 465 96 q 594 183 559 143 q 652 275 629 222 q 689 384 675 327 q 708 498 703 441 q 714 607 714 556 q 706 692 714 654 q 682 760 698 730 l 277 132 m 509 857 q 399 834 446 857 q 316 771 351 810 q 258 679 281 731 q 221 570 235 627 q 202 455 208 513 q 196 346 196 397 q 204 259 196 298 q 227 192 212 221 l 632 819 q 577 848 608 838 q 509 857 545 857 z "},"Ù":{"ha":822,"x_min":79,"x_max":804,"o":"m 713 310 q 672 168 701 229 q 600 66 644 107 q 497 4 555 25 q 367 -17 438 -17 q 155 48 230 -17 q 79 240 79 114 q 83 289 79 252 q 94 378 87 326 q 110 494 101 431 q 127 621 118 557 q 176 953 149 770 l 298 953 q 250 616 271 766 q 233 491 241 553 q 218 378 224 429 q 207 295 211 328 q 203 257 203 262 q 246 136 203 177 q 370 96 290 96 q 517 149 459 96 q 590 302 576 201 l 682 953 l 804 953 l 713 310 m 586 1043 l 490 1043 l 365 1223 l 368 1227 l 492 1227 l 586 1043 z "},"Ú":{"ha":822,"x_min":79,"x_max":804,"o":"m 713 310 q 672 168 701 229 q 600 66 644 107 q 497 4 555 25 q 367 -17 438 -17 q 155 48 230 -17 q 79 240 79 114 q 83 289 79 252 q 94 378 87 326 q 110 494 101 431 q 127 621 118 557 q 176 953 149 770 l 298 953 q 250 616 271 766 q 233 491 241 553 q 218 378 224 429 q 207 295 211 328 q 203 257 203 262 q 246 136 203 177 q 370 96 290 96 q 517 149 459 96 q 590 302 576 201 l 682 953 l 804 953 l 713 310 m 676 1223 l 526 1043 l 430 1043 l 549 1227 l 675 1227 l 676 1223 z "},"Û":{"ha":822,"x_min":79,"x_max":804,"o":"m 713 310 q 672 168 701 229 q 600 66 644 107 q 497 4 555 25 q 367 -17 438 -17 q 155 48 230 -17 q 79 240 79 114 q 83 289 79 252 q 94 378 87 326 q 110 494 101 431 q 127 621 118 557 q 176 953 149 770 l 298 953 q 250 616 271 766 q 233 491 241 553 q 218 378 224 429 q 207 295 211 328 q 203 257 203 262 q 246 136 203 177 q 370 96 290 96 q 517 149 459 96 q 590 302 576 201 l 682 953 l 804 953 l 713 310 m 670 1039 l 563 1039 l 517 1149 l 439 1039 l 324 1039 l 470 1227 l 578 1227 l 670 1039 z "},"Ü":{"ha":822,"x_min":79,"x_max":804,"o":"m 713 310 q 672 168 701 229 q 600 66 644 107 q 497 4 555 25 q 367 -17 438 -17 q 155 48 230 -17 q 79 240 79 114 q 83 289 79 252 q 94 378 87 326 q 110 494 101 431 q 127 621 118 557 q 176 953 149 770 l 298 953 q 250 616 271 766 q 233 491 241 553 q 218 378 224 429 q 207 295 211 328 q 203 257 203 262 q 246 136 203 177 q 370 96 290 96 q 517 149 459 96 q 590 302 576 201 l 682 953 l 804 953 l 713 310 m 677 1095 l 556 1095 l 574 1227 l 695 1227 l 677 1095 m 469 1095 l 348 1095 l 366 1227 l 487 1227 l 469 1095 z "},"Ý":{"ha":760,"x_min":97,"x_max":835,"o":"m 449 395 l 393 0 l 271 0 l 326 395 l 97 953 l 231 953 l 404 511 l 410 511 l 707 953 l 835 953 l 449 395 m 656 1223 l 507 1043 l 410 1043 l 530 1227 l 655 1227 l 656 1223 z "},"Þ":{"ha":760,"x_min":47,"x_max":745,"o":"m 278 765 l 482 765 q 597 748 548 765 q 680 700 647 731 q 728 625 712 669 q 745 528 745 581 q 721 392 745 452 q 653 290 696 332 q 549 225 610 248 q 416 203 489 203 l 199 203 l 170 0 l 47 0 l 182 953 l 304 953 l 278 765 m 262 654 l 214 314 l 429 314 q 503 328 469 314 q 562 366 536 341 q 601 426 587 391 q 615 505 615 461 q 580 615 615 575 q 475 654 545 654 l 262 654 z "},"ß":{"ha":696,"x_min":25,"x_max":677,"o":"m 436 1021 q 535 1006 490 1021 q 611 964 579 991 q 660 897 643 937 q 677 806 677 857 q 666 725 677 766 q 632 650 654 685 q 580 589 610 616 q 513 549 549 562 l 513 543 q 566 511 542 532 q 606 462 589 490 q 632 402 623 435 q 642 334 642 369 q 618 212 642 271 q 553 105 595 152 q 456 29 512 58 q 334 0 399 0 l 215 0 l 229 103 l 322 103 q 397 121 361 103 q 461 170 433 139 q 507 240 490 200 q 524 326 524 281 q 513 389 524 360 q 483 440 502 418 q 436 474 463 462 q 376 486 409 486 l 283 486 l 297 587 l 379 587 q 449 604 416 587 q 507 649 482 621 q 545 714 531 677 q 559 790 559 751 q 527 885 559 850 q 429 920 494 920 q 360 907 392 920 q 303 869 328 894 q 262 806 279 844 q 239 720 245 769 l 138 0 l 25 0 l 123 717 q 163 856 134 798 q 234 950 192 913 q 327 1004 275 987 q 436 1021 379 1021 z "},"à":{"ha":633,"x_min":46,"x_max":595,"o":"m 463 821 l 367 821 l 241 1000 l 244 1004 l 370 1004 l 463 821 m 328 747 q 376 742 353 747 q 418 722 399 736 q 454 686 438 709 q 479 629 469 663 l 504 730 l 595 730 q 552 433 570 565 q 536 323 544 377 q 523 225 529 269 q 514 154 517 182 q 510 123 510 126 q 520 94 510 102 q 543 85 530 85 l 587 85 l 576 5 q 546 -9 566 -2 q 498 -17 526 -17 q 458 -11 477 -17 q 427 10 440 -4 q 407 46 414 24 q 399 98 399 68 q 319 11 359 39 q 231 -17 279 -17 q 157 -1 191 -17 q 98 48 123 15 q 60 133 74 81 q 46 254 46 184 q 71 472 46 380 q 136 626 96 565 q 227 717 176 687 q 328 747 277 747 m 345 646 q 279 624 307 646 q 231 568 252 603 q 198 489 211 533 q 177 401 184 446 q 166 314 169 356 q 163 243 163 273 q 265 85 163 85 q 324 107 298 85 q 369 165 350 130 q 402 245 389 201 q 424 335 416 290 q 436 420 433 380 q 440 489 440 461 q 345 646 440 646 z "},"á":{"ha":633,"x_min":46,"x_max":595,"o":"m 553 1000 l 404 821 l 307 821 l 427 1004 l 551 1004 l 553 1000 m 328 747 q 376 742 353 747 q 418 722 399 736 q 454 686 438 709 q 479 629 469 663 l 504 730 l 595 730 q 552 433 570 565 q 536 323 544 377 q 523 225 529 269 q 514 154 517 182 q 510 123 510 126 q 520 94 510 102 q 543 85 530 85 l 587 85 l 576 5 q 546 -9 566 -2 q 498 -17 526 -17 q 458 -11 477 -17 q 427 10 440 -4 q 407 46 414 24 q 399 98 399 68 q 319 11 359 39 q 231 -17 279 -17 q 157 -1 191 -17 q 98 48 123 15 q 60 133 74 81 q 46 254 46 184 q 71 472 46 380 q 136 626 96 565 q 227 717 176 687 q 328 747 277 747 m 345 646 q 279 624 307 646 q 231 568 252 603 q 198 489 211 533 q 177 401 184 446 q 166 314 169 356 q 163 243 163 273 q 265 85 163 85 q 324 107 298 85 q 369 165 350 130 q 402 245 389 201 q 424 335 416 290 q 436 420 433 380 q 440 489 440 461 q 345 646 440 646 z "},"â":{"ha":633,"x_min":46,"x_max":595,"o":"m 547 817 l 440 817 l 395 926 l 317 817 l 201 817 l 347 1004 l 456 1004 l 547 817 m 328 747 q 376 742 353 747 q 418 722 399 736 q 454 686 438 709 q 479 629 469 663 l 504 730 l 595 730 q 552 433 570 565 q 536 323 544 377 q 523 225 529 269 q 514 154 517 182 q 510 123 510 126 q 520 94 510 102 q 543 85 530 85 l 587 85 l 576 5 q 546 -9 566 -2 q 498 -17 526 -17 q 458 -11 477 -17 q 427 10 440 -4 q 407 46 414 24 q 399 98 399 68 q 319 11 359 39 q 231 -17 279 -17 q 157 -1 191 -17 q 98 48 123 15 q 60 133 74 81 q 46 254 46 184 q 71 472 46 380 q 136 626 96 565 q 227 717 176 687 q 328 747 277 747 m 345 646 q 279 624 307 646 q 231 568 252 603 q 198 489 211 533 q 177 401 184 446 q 166 314 169 356 q 163 243 163 273 q 265 85 163 85 q 324 107 298 85 q 369 165 350 130 q 402 245 389 201 q 424 335 416 290 q 436 420 433 380 q 440 489 440 461 q 345 646 440 646 z "},"ã":{"ha":633,"x_min":46,"x_max":606,"o":"m 606 1004 q 592 955 602 980 q 565 908 582 929 q 525 873 548 887 q 472 860 502 860 q 428 867 448 860 q 390 881 408 873 q 353 896 372 889 q 314 903 335 903 q 280 893 295 903 q 260 860 266 884 l 179 860 q 193 909 183 884 q 220 956 203 935 q 259 991 236 977 q 313 1004 282 1004 q 356 998 336 1004 q 394 983 376 991 q 431 968 413 975 q 471 961 450 961 q 503 971 488 961 q 524 1004 518 981 l 606 1004 m 328 747 q 376 742 353 747 q 418 722 399 736 q 454 686 438 709 q 479 629 469 663 l 504 730 l 595 730 q 552 433 570 565 q 536 323 544 377 q 523 225 529 269 q 514 154 517 182 q 510 123 510 126 q 520 94 510 102 q 543 85 530 85 l 587 85 l 576 5 q 546 -9 566 -2 q 498 -17 526 -17 q 458 -11 477 -17 q 427 10 440 -4 q 407 46 414 24 q 399 98 399 68 q 319 11 359 39 q 231 -17 279 -17 q 157 -1 191 -17 q 98 48 123 15 q 60 133 74 81 q 46 254 46 184 q 71 472 46 380 q 136 626 96 565 q 227 717 176 687 q 328 747 277 747 m 345 646 q 279 624 307 646 q 231 568 252 603 q 198 489 211 533 q 177 401 184 446 q 166 314 169 356 q 163 243 163 273 q 265 85 163 85 q 324 107 298 85 q 369 165 350 130 q 402 245 389 201 q 424 335 416 290 q 436 420 433 380 q 440 489 440 461 q 345 646 440 646 z "},"ä":{"ha":633,"x_min":46,"x_max":595,"o":"m 554 872 l 433 872 l 452 1004 l 572 1004 l 554 872 m 346 872 l 225 872 l 243 1004 l 364 1004 l 346 872 m 328 747 q 376 742 353 747 q 418 722 399 736 q 454 686 438 709 q 479 629 469 663 l 504 730 l 595 730 q 552 433 570 565 q 536 323 544 377 q 523 225 529 269 q 514 154 517 182 q 510 123 510 126 q 520 94 510 102 q 543 85 530 85 l 587 85 l 576 5 q 546 -9 566 -2 q 498 -17 526 -17 q 458 -11 477 -17 q 427 10 440 -4 q 407 46 414 24 q 399 98 399 68 q 319 11 359 39 q 231 -17 279 -17 q 157 -1 191 -17 q 98 48 123 15 q 60 133 74 81 q 46 254 46 184 q 71 472 46 380 q 136 626 96 565 q 227 717 176 687 q 328 747 277 747 m 345 646 q 279 624 307 646 q 231 568 252 603 q 198 489 211 533 q 177 401 184 446 q 166 314 169 356 q 163 243 163 273 q 265 85 163 85 q 324 107 298 85 q 369 165 350 130 q 402 245 389 201 q 424 335 416 290 q 436 420 433 380 q 440 489 440 461 q 345 646 440 646 z "},"å":{"ha":633,"x_min":46,"x_max":595,"o":"m 399 1023 q 446 1015 424 1023 q 484 990 468 1006 q 509 953 500 975 q 518 907 518 932 q 507 853 518 878 q 477 810 496 829 q 433 782 458 792 q 380 771 408 771 q 333 780 355 771 q 295 804 311 788 q 270 841 279 819 q 261 888 261 862 q 273 943 261 918 q 303 986 284 968 q 347 1014 322 1004 q 399 1023 372 1023 m 395 968 q 366 962 379 968 q 343 946 353 956 q 328 922 334 936 q 322 892 322 908 q 327 867 322 879 q 340 846 332 855 q 359 832 348 838 q 385 827 371 827 q 413 832 399 827 q 436 848 426 838 q 451 872 446 859 q 457 903 457 886 q 452 927 457 916 q 439 948 448 939 q 420 962 431 957 q 395 968 408 968 m 328 747 q 376 742 353 747 q 418 722 399 736 q 454 686 438 709 q 479 629 469 663 l 504 730 l 595 730 q 552 433 570 565 q 536 323 544 377 q 523 225 529 269 q 514 154 517 182 q 510 123 510 126 q 520 94 510 102 q 543 85 530 85 l 587 85 l 576 5 q 546 -9 566 -2 q 498 -17 526 -17 q 458 -11 477 -17 q 427 10 440 -4 q 407 46 414 24 q 399 98 399 68 q 319 11 359 39 q 231 -17 279 -17 q 157 -1 191 -17 q 98 48 123 15 q 60 133 74 81 q 46 254 46 184 q 71 472 46 380 q 136 626 96 565 q 227 717 176 687 q 328 747 277 747 m 345 646 q 279 624 307 646 q 231 568 252 603 q 198 489 211 533 q 177 401 184 446 q 166 314 169 356 q 163 243 163 273 q 265 85 163 85 q 324 107 298 85 q 369 165 350 130 q 402 245 389 201 q 424 335 416 290 q 436 420 433 380 q 440 489 440 461 q 345 646 440 646 z "},"æ":{"ha":1013,"x_min":36,"x_max":962,"o":"m 737 747 q 905 683 847 747 q 962 485 962 619 q 960 410 962 449 q 951 332 958 372 l 550 332 q 546 258 546 288 q 664 85 546 85 q 721 98 694 85 q 767 134 747 111 q 800 185 787 156 q 818 248 813 215 l 933 248 q 904 146 925 195 q 848 62 882 98 q 768 4 814 26 q 664 -17 722 -17 q 536 11 588 -17 q 456 97 484 39 q 409 50 435 71 q 354 14 383 28 q 293 -9 325 -1 q 231 -17 262 -17 q 164 -11 199 -17 q 102 14 130 -5 q 55 67 73 33 q 36 157 36 101 q 51 257 36 214 q 93 330 66 300 q 157 381 119 361 q 239 413 194 401 q 336 429 285 425 q 443 433 388 433 l 457 528 q 459 544 458 536 q 460 559 460 552 q 455 594 460 578 q 438 622 450 610 q 407 640 427 633 q 358 646 387 646 q 302 635 326 646 q 263 607 279 625 q 239 565 248 589 q 228 514 231 541 l 115 514 q 135 611 115 568 q 189 685 155 654 q 271 731 224 715 q 374 747 319 747 q 484 727 441 747 q 550 669 527 707 q 630 726 585 705 q 737 747 675 747 m 429 332 q 319 326 369 332 q 233 304 269 320 q 177 258 197 288 q 157 179 157 228 q 179 106 157 127 q 243 85 201 85 q 298 95 270 85 q 351 127 327 106 q 394 180 376 148 q 418 254 412 212 l 429 332 m 737 646 q 670 627 699 646 q 621 579 642 609 q 586 511 600 549 q 564 433 572 473 l 843 433 q 844 460 844 447 l 844 484 q 818 605 844 564 q 737 646 791 646 z "},"ç":{"ha":570,"x_min":43,"x_max":542,"o":"m 424 484 q 402 605 424 564 q 334 646 380 646 q 268 622 295 646 q 221 563 240 599 q 190 481 201 526 q 172 394 178 437 q 163 314 165 351 q 161 258 161 278 q 188 130 161 176 q 264 85 214 85 q 317 100 293 85 q 360 140 342 115 q 390 198 378 165 q 406 267 401 231 l 519 267 q 494 162 513 212 q 445 73 475 112 q 372 9 414 34 q 277 -17 330 -15 l 267 -50 q 305 -56 287 -52 q 338 -70 323 -61 q 360 -92 352 -79 q 368 -125 368 -106 q 351 -190 368 -165 q 309 -229 334 -215 q 256 -248 284 -243 q 207 -253 228 -253 q 146 -250 178 -253 q 92 -241 115 -247 l 101 -174 l 207 -174 q 247 -165 232 -174 q 262 -132 262 -157 q 253 -113 262 -119 q 220 -107 243 -107 l 174 -107 l 202 -10 q 85 71 127 7 q 43 249 43 135 q 48 360 43 302 q 65 474 53 418 q 99 579 78 529 q 152 666 120 629 q 229 725 184 703 q 334 747 274 747 q 489 683 435 747 q 542 485 542 619 l 542 460 l 424 460 l 424 484 z "},"è":{"ha":633,"x_min":49,"x_max":583,"o":"m 358 747 q 525 683 467 747 q 583 485 583 619 q 581 410 583 449 q 572 332 578 372 l 171 332 q 167 258 167 288 q 285 85 167 85 q 342 98 315 85 q 388 134 368 111 q 421 185 408 156 q 439 248 434 215 l 554 248 q 525 146 546 195 q 469 62 503 98 q 389 4 435 26 q 285 -17 343 -17 q 185 -1 229 -17 q 111 47 141 15 q 65 130 81 80 q 49 249 49 180 q 54 358 49 301 q 73 471 60 415 q 109 576 86 526 q 166 665 132 627 q 248 725 200 703 q 358 747 295 747 m 358 646 q 291 627 320 646 q 242 579 262 609 q 207 511 221 549 q 184 433 193 473 l 464 433 q 465 460 465 447 l 465 484 q 438 605 465 564 q 358 646 412 646 m 465 821 l 368 821 l 243 1000 l 246 1004 l 371 1004 l 465 821 z "},"é":{"ha":633,"x_min":49,"x_max":583,"o":"m 358 747 q 525 683 467 747 q 583 485 583 619 q 581 410 583 449 q 572 332 578 372 l 171 332 q 167 258 167 288 q 285 85 167 85 q 342 98 315 85 q 388 134 368 111 q 421 185 408 156 q 439 248 434 215 l 554 248 q 525 146 546 195 q 469 62 503 98 q 389 4 435 26 q 285 -17 343 -17 q 185 -1 229 -17 q 111 47 141 15 q 65 130 81 80 q 49 249 49 180 q 54 358 49 301 q 73 471 60 415 q 109 576 86 526 q 166 665 132 627 q 248 725 200 703 q 358 747 295 747 m 358 646 q 291 627 320 646 q 242 579 262 609 q 207 511 221 549 q 184 433 193 473 l 464 433 q 465 460 465 447 l 465 484 q 438 605 465 564 q 358 646 412 646 m 555 1000 l 405 821 l 309 821 l 428 1004 l 553 1004 l 555 1000 z "},"ê":{"ha":633,"x_min":49,"x_max":583,"o":"m 358 747 q 525 683 467 747 q 583 485 583 619 q 581 410 583 449 q 572 332 578 372 l 171 332 q 167 258 167 288 q 285 85 167 85 q 342 98 315 85 q 388 134 368 111 q 421 185 408 156 q 439 248 434 215 l 554 248 q 525 146 546 195 q 469 62 503 98 q 389 4 435 26 q 285 -17 343 -17 q 185 -1 229 -17 q 111 47 141 15 q 65 130 81 80 q 49 249 49 180 q 54 358 49 301 q 73 471 60 415 q 109 576 86 526 q 166 665 132 627 q 248 725 200 703 q 358 747 295 747 m 358 646 q 291 627 320 646 q 242 579 262 609 q 207 511 221 549 q 184 433 193 473 l 464 433 q 465 460 465 447 l 465 484 q 438 605 465 564 q 358 646 412 646 m 549 817 l 441 817 l 396 926 l 318 817 l 203 817 l 349 1004 l 457 1004 l 549 817 z "},"ë":{"ha":633,"x_min":49,"x_max":583,"o":"m 358 747 q 525 683 467 747 q 583 485 583 619 q 581 410 583 449 q 572 332 578 372 l 171 332 q 167 258 167 288 q 285 85 167 85 q 342 98 315 85 q 388 134 368 111 q 421 185 408 156 q 439 248 434 215 l 554 248 q 525 146 546 195 q 469 62 503 98 q 389 4 435 26 q 285 -17 343 -17 q 185 -1 229 -17 q 111 47 141 15 q 65 130 81 80 q 49 249 49 180 q 54 358 49 301 q 73 471 60 415 q 109 576 86 526 q 166 665 132 627 q 248 725 200 703 q 358 747 295 747 m 358 646 q 291 627 320 646 q 242 579 262 609 q 207 511 221 549 q 184 433 193 473 l 464 433 q 465 460 465 447 l 465 484 q 438 605 465 564 q 358 646 412 646 m 555 872 l 435 872 l 453 1004 l 574 1004 l 555 872 m 347 872 l 227 872 l 245 1004 l 366 1004 l 347 872 z "},"ì":{"ha":317,"x_min":53,"x_max":307,"o":"m 165 0 l 53 0 l 154 730 l 268 730 l 165 0 m 307 821 l 210 821 l 85 1000 l 88 1004 l 213 1004 l 307 821 z "},"í":{"ha":317,"x_min":53,"x_max":397,"o":"m 165 0 l 53 0 l 154 730 l 268 730 l 165 0 m 397 1000 l 247 821 l 151 821 l 270 1004 l 395 1004 l 397 1000 z "},"î":{"ha":317,"x_min":45,"x_max":391,"o":"m 165 0 l 53 0 l 154 730 l 268 730 l 165 0 m 391 817 l 283 817 l 238 926 l 160 817 l 45 817 l 191 1004 l 299 1004 l 391 817 z "},"ï":{"ha":317,"x_min":53,"x_max":416,"o":"m 165 0 l 53 0 l 154 730 l 268 730 l 165 0 m 397 872 l 277 872 l 295 1004 l 416 1004 l 397 872 m 189 872 l 68 872 l 87 1004 l 208 1004 l 189 872 z "},"ð":{"ha":633,"x_min":49,"x_max":599,"o":"m 380 1004 q 408 970 394 987 q 433 936 422 954 l 599 951 l 586 868 l 486 859 q 562 688 534 779 q 589 488 589 597 q 565 262 589 357 q 500 105 542 167 q 403 13 459 43 q 281 -17 347 -17 q 108 47 167 -17 q 49 245 49 111 q 75 474 49 379 q 142 630 100 569 q 237 719 184 690 q 345 747 290 747 q 388 743 368 747 q 425 730 408 738 q 398 789 414 761 q 364 847 382 818 l 199 833 l 210 917 l 310 925 q 284 961 297 943 q 256 999 271 980 l 258 1004 l 380 1004 m 358 646 q 286 624 316 646 q 234 567 255 602 q 200 488 213 532 q 179 401 186 444 q 169 320 172 358 q 167 258 167 282 q 193 127 167 170 q 279 85 220 85 q 352 107 321 85 q 405 166 383 130 q 439 247 426 202 q 459 336 452 292 q 468 419 466 380 q 471 484 471 458 q 443 605 471 564 q 358 646 415 646 z "},"ñ":{"ha":633,"x_min":31,"x_max":600,"o":"m 416 747 q 492 733 462 747 q 541 696 523 720 q 567 644 559 673 q 575 583 575 614 q 572 546 575 575 q 563 474 568 516 q 550 380 557 431 q 536 275 543 328 q 497 0 518 152 l 383 0 q 420 262 404 144 q 434 361 427 312 q 447 451 441 410 q 455 520 452 492 q 458 557 458 549 q 437 625 458 604 q 375 646 416 646 q 312 628 340 646 q 261 579 283 611 q 224 505 239 548 q 201 408 209 461 l 144 0 l 31 0 l 134 730 l 222 730 l 222 623 q 245 660 230 638 q 283 701 260 681 q 339 734 307 720 q 416 747 372 747 m 600 1004 q 586 955 596 980 q 559 908 576 929 q 520 873 543 887 q 467 860 496 860 q 423 867 443 860 q 384 881 403 873 q 347 896 366 889 q 308 903 329 903 q 275 893 289 903 q 254 860 260 884 l 174 860 q 188 909 178 884 q 214 956 197 935 q 253 991 230 977 q 307 1004 276 1004 q 350 998 330 1004 q 388 983 370 991 q 426 968 407 975 q 465 961 444 961 q 498 971 484 961 q 519 1004 513 981 l 600 1004 z "},"ò":{"ha":633,"x_min":46,"x_max":586,"o":"m 355 747 q 527 683 468 747 q 586 485 586 619 q 581 378 586 435 q 562 266 575 321 q 526 159 549 210 q 469 69 503 108 q 387 6 435 30 q 277 -17 340 -17 q 105 46 163 -17 q 46 243 46 109 q 52 350 46 293 q 70 463 57 406 q 106 570 83 519 q 163 661 129 622 q 245 724 197 701 q 355 747 292 747 m 355 646 q 283 624 313 646 q 231 567 252 602 q 197 488 210 532 q 176 401 184 444 q 166 320 169 358 q 164 258 164 282 q 191 127 164 170 q 277 85 217 85 q 349 107 319 85 q 401 166 380 130 q 436 247 422 202 q 456 336 449 292 q 466 419 463 380 q 468 484 468 458 q 440 605 468 564 q 355 646 412 646 m 463 821 l 367 821 l 242 1000 l 245 1004 l 370 1004 l 463 821 z "},"ó":{"ha":633,"x_min":46,"x_max":586,"o":"m 355 747 q 527 683 468 747 q 586 485 586 619 q 581 378 586 435 q 562 266 575 321 q 526 159 549 210 q 469 69 503 108 q 387 6 435 30 q 277 -17 340 -17 q 105 46 163 -17 q 46 243 46 109 q 52 350 46 293 q 70 463 57 406 q 106 570 83 519 q 163 661 129 622 q 245 724 197 701 q 355 747 292 747 m 355 646 q 283 624 313 646 q 231 567 252 602 q 197 488 210 532 q 176 401 184 444 q 166 320 169 358 q 164 258 164 282 q 191 127 164 170 q 277 85 217 85 q 349 107 319 85 q 401 166 380 130 q 436 247 422 202 q 456 336 449 292 q 466 419 463 380 q 468 484 468 458 q 440 605 468 564 q 355 646 412 646 m 553 1000 l 404 821 l 307 821 l 427 1004 l 552 1004 l 553 1000 z "},"ô":{"ha":633,"x_min":46,"x_max":586,"o":"m 355 747 q 527 683 468 747 q 586 485 586 619 q 581 378 586 435 q 562 266 575 321 q 526 159 549 210 q 469 69 503 108 q 387 6 435 30 q 277 -17 340 -17 q 105 46 163 -17 q 46 243 46 109 q 52 350 46 293 q 70 463 57 406 q 106 570 83 519 q 163 661 129 622 q 245 724 197 701 q 355 747 292 747 m 355 646 q 283 624 313 646 q 231 567 252 602 q 197 488 210 532 q 176 401 184 444 q 166 320 169 358 q 164 258 164 282 q 191 127 164 170 q 277 85 217 85 q 349 107 319 85 q 401 166 380 130 q 436 247 422 202 q 456 336 449 292 q 466 419 463 380 q 468 484 468 458 q 440 605 468 564 q 355 646 412 646 m 547 817 l 440 817 l 395 926 l 317 817 l 201 817 l 347 1004 l 456 1004 l 547 817 z "},"õ":{"ha":633,"x_min":46,"x_max":605,"o":"m 355 747 q 527 683 468 747 q 586 485 586 619 q 581 378 586 435 q 562 266 575 321 q 526 159 549 210 q 469 69 503 108 q 387 6 435 30 q 277 -17 340 -17 q 105 46 163 -17 q 46 243 46 109 q 52 350 46 293 q 70 463 57 406 q 106 570 83 519 q 163 661 129 622 q 245 724 197 701 q 355 747 292 747 m 355 646 q 283 624 313 646 q 231 567 252 602 q 197 488 210 532 q 176 401 184 444 q 166 320 169 358 q 164 258 164 282 q 191 127 164 170 q 277 85 217 85 q 349 107 319 85 q 401 166 380 130 q 436 247 422 202 q 456 336 449 292 q 466 419 463 380 q 468 484 468 458 q 440 605 468 564 q 355 646 412 646 m 605 1004 q 591 955 602 980 q 565 908 581 929 q 525 873 549 887 q 472 860 502 860 q 428 867 448 860 q 390 881 408 873 q 353 896 371 889 q 313 903 334 903 q 280 893 294 903 q 259 860 266 884 l 180 860 q 193 909 184 884 q 219 956 203 935 q 258 991 235 977 q 312 1004 281 1004 q 355 998 335 1004 q 394 983 375 991 q 431 968 412 975 q 471 961 450 961 q 504 971 489 961 q 524 1004 518 981 l 605 1004 z "},"ö":{"ha":633,"x_min":46,"x_max":586,"o":"m 355 747 q 527 683 468 747 q 586 485 586 619 q 581 378 586 435 q 562 266 575 321 q 526 159 549 210 q 469 69 503 108 q 387 6 435 30 q 277 -17 340 -17 q 105 46 163 -17 q 46 243 46 109 q 52 350 46 293 q 70 463 57 406 q 106 570 83 519 q 163 661 129 622 q 245 724 197 701 q 355 747 292 747 m 355 646 q 283 624 313 646 q 231 567 252 602 q 197 488 210 532 q 176 401 184 444 q 166 320 169 358 q 164 258 164 282 q 191 127 164 170 q 277 85 217 85 q 349 107 319 85 q 401 166 380 130 q 436 247 422 202 q 456 336 449 292 q 466 419 463 380 q 468 484 468 458 q 440 605 468 564 q 355 646 412 646 m 554 872 l 433 872 l 452 1004 l 572 1004 l 554 872 m 346 872 l 225 872 l 243 1004 l 364 1004 l 346 872 z "},"÷":{"ha":762,"x_min":52,"x_max":708,"o":"m 693 296 l 52 296 l 66 412 l 708 412 l 693 296 m 399 71 l 282 71 l 298 196 l 415 196 l 399 71 m 460 513 l 343 513 l 361 639 l 478 639 l 460 513 z "},"ø":{"ha":696,"x_min":78,"x_max":618,"o":"m 562 677 q 618 485 618 612 q 612 378 618 435 q 594 266 607 321 q 558 159 581 210 q 501 69 535 108 q 419 6 467 30 q 309 -17 372 -17 q 184 9 235 -17 l 154 -45 l 78 -45 l 132 52 q 78 243 78 113 q 83 350 78 293 q 102 463 89 406 q 138 570 115 519 q 195 661 161 622 q 277 724 229 701 q 387 747 324 747 q 454 740 424 747 q 510 720 484 733 l 542 775 l 618 775 l 562 677 m 240 107 q 309 85 264 85 q 381 107 351 85 q 434 166 412 130 q 468 247 455 202 q 488 336 481 292 q 497 419 495 380 q 500 484 500 458 q 498 521 500 503 q 493 554 496 538 l 240 107 m 387 646 q 315 624 345 646 q 263 567 284 602 q 229 488 242 532 q 208 401 216 444 q 198 320 201 358 q 196 258 196 282 q 198 214 196 235 q 203 176 199 194 l 456 623 q 387 646 427 646 z "},"ù":{"ha":633,"x_min":58,"x_max":603,"o":"m 500 0 l 411 0 l 411 107 q 388 70 403 92 q 350 30 373 49 q 293 -3 326 10 q 216 -17 260 -17 q 141 -3 171 -17 q 92 34 111 11 q 66 86 74 57 q 58 147 58 116 q 62 185 58 155 q 71 257 65 214 q 83 351 76 300 q 97 456 90 403 q 136 730 115 579 l 250 730 q 212 469 229 586 q 198 369 205 418 q 186 279 192 320 q 178 210 181 239 q 175 174 175 182 q 196 106 175 127 q 258 85 218 85 q 322 102 293 85 q 373 151 351 119 q 410 226 395 182 q 432 322 425 269 l 489 730 l 603 730 l 500 0 m 463 821 l 367 821 l 242 1000 l 245 1004 l 370 1004 l 463 821 z "},"ú":{"ha":633,"x_min":58,"x_max":603,"o":"m 500 0 l 411 0 l 411 107 q 388 70 403 92 q 350 30 373 49 q 293 -3 326 10 q 216 -17 260 -17 q 141 -3 171 -17 q 92 34 111 11 q 66 86 74 57 q 58 147 58 116 q 62 185 58 155 q 71 257 65 214 q 83 351 76 300 q 97 456 90 403 q 136 730 115 579 l 250 730 q 212 469 229 586 q 198 369 205 418 q 186 279 192 320 q 178 210 181 239 q 175 174 175 182 q 196 106 175 127 q 258 85 218 85 q 322 102 293 85 q 373 151 351 119 q 410 226 395 182 q 432 322 425 269 l 489 730 l 603 730 l 500 0 m 553 1000 l 404 821 l 307 821 l 427 1004 l 552 1004 l 553 1000 z "},"û":{"ha":633,"x_min":58,"x_max":603,"o":"m 500 0 l 411 0 l 411 107 q 388 70 403 92 q 350 30 373 49 q 293 -3 326 10 q 216 -17 260 -17 q 141 -3 171 -17 q 92 34 111 11 q 66 86 74 57 q 58 147 58 116 q 62 185 58 155 q 71 257 65 214 q 83 351 76 300 q 97 456 90 403 q 136 730 115 579 l 250 730 q 212 469 229 586 q 198 369 205 418 q 186 279 192 320 q 178 210 181 239 q 175 174 175 182 q 196 106 175 127 q 258 85 218 85 q 322 102 293 85 q 373 151 351 119 q 410 226 395 182 q 432 322 425 269 l 489 730 l 603 730 l 500 0 m 547 817 l 440 817 l 395 926 l 317 817 l 201 817 l 347 1004 l 456 1004 l 547 817 z "},"ü":{"ha":633,"x_min":58,"x_max":603,"o":"m 500 0 l 411 0 l 411 107 q 388 70 403 92 q 350 30 373 49 q 293 -3 326 10 q 216 -17 260 -17 q 141 -3 171 -17 q 92 34 111 11 q 66 86 74 57 q 58 147 58 116 q 62 185 58 155 q 71 257 65 214 q 83 351 76 300 q 97 456 90 403 q 136 730 115 579 l 250 730 q 212 469 229 586 q 198 369 205 418 q 186 279 192 320 q 178 210 181 239 q 175 174 175 182 q 196 106 175 127 q 258 85 218 85 q 322 102 293 85 q 373 151 351 119 q 410 226 395 182 q 432 322 425 269 l 489 730 l 603 730 l 500 0 m 554 872 l 433 872 l 452 1004 l 572 1004 l 554 872 m 346 872 l 225 872 l 243 1004 l 364 1004 l 346 872 z "},"ý":{"ha":570,"x_min":-31,"x_max":623,"o":"m 325 37 q 271 -75 299 -22 q 209 -167 243 -127 q 136 -230 176 -207 q 49 -253 96 -253 q 5 -251 25 -253 q -31 -241 -15 -248 l -20 -163 l 20 -163 q 65 -155 43 -163 q 110 -128 88 -147 q 150 -78 131 -109 q 186 0 170 -47 l 65 730 l 186 730 l 269 147 l 275 147 l 500 730 l 623 730 l 325 37 m 540 1000 l 390 821 l 294 821 l 413 1004 l 538 1004 l 540 1000 z "},"þ":{"ha":633,"x_min":-1,"x_max":587,"o":"m 236 647 q 313 723 271 699 q 403 747 356 747 q 477 731 443 747 q 535 682 511 715 q 573 598 559 649 q 587 476 587 547 q 563 258 587 351 q 497 104 538 165 q 407 13 457 43 q 306 -17 357 -17 q 222 6 260 -17 q 160 81 184 28 l 113 -253 l -1 -253 l 174 1004 l 288 1004 l 236 647 m 368 646 q 305 623 332 646 q 257 565 277 601 q 223 485 237 530 q 202 396 210 441 q 191 310 194 351 q 187 241 187 269 q 289 85 187 85 q 354 106 326 85 q 402 163 382 128 q 436 241 422 197 q 457 330 449 286 q 468 416 465 375 q 471 488 471 458 q 368 646 471 646 z "},"ÿ":{"ha":570,"x_min":-31,"x_max":623,"o":"m 325 37 q 271 -75 299 -22 q 209 -167 243 -127 q 136 -230 176 -207 q 49 -253 96 -253 q 5 -251 25 -253 q -31 -241 -15 -248 l -20 -163 l 20 -163 q 65 -155 43 -163 q 110 -128 88 -147 q 150 -78 131 -109 q 186 0 170 -47 l 65 730 l 186 730 l 269 147 l 275 147 l 500 730 l 623 730 l 325 37 m 541 872 l 420 872 l 438 1004 l 559 1004 l 541 872 m 332 872 l 212 872 l 230 1004 l 351 1004 l 332 872 z "},"ı":{"ha":317,"x_min":53,"x_max":268,"o":"m 165 0 l 53 0 l 154 730 l 268 730 l 165 0 z "},"ſ":{"ha":253,"x_min":-123,"x_max":408,"o":"m 315 1015 q 366 1010 340 1015 q 408 999 391 1005 l 397 920 l 336 920 q 284 902 304 920 q 261 852 265 885 l 136 -85 q 121 -146 132 -116 q 90 -200 110 -176 q 40 -238 70 -224 q -31 -253 11 -253 q -81 -248 -56 -253 q -123 -236 -107 -242 l -113 -157 l -52 -157 q 22 -90 14 -157 l 117 629 l 53 629 l 66 730 l 131 730 l 147 847 q 162 908 151 878 q 194 962 174 939 q 243 1001 214 986 q 315 1015 273 1015 z "},"ﬁ":{"ha":570,"x_min":-123,"x_max":591,"o":"m 315 1015 q 366 1010 340 1015 q 408 999 391 1005 l 397 920 l 336 920 q 284 902 304 920 q 261 852 265 885 l 244 730 l 371 730 l 357 629 l 231 629 l 136 -85 q 121 -146 132 -116 q 90 -200 110 -176 q 40 -238 70 -224 q -31 -253 11 -253 q -81 -248 -56 -253 q -123 -236 -107 -242 l -113 -157 l -52 -157 q 22 -90 14 -157 l 117 629 l 53 629 l 66 730 l 131 730 l 147 847 q 162 908 151 878 q 194 962 174 939 q 243 1001 214 986 q 315 1015 273 1015 m 452 0 l 339 0 l 440 730 l 554 730 l 452 0 m 574 868 l 460 868 l 478 1004 l 591 1004 l 574 868 z "},"ﬂ":{"ha":570,"x_min":-123,"x_max":591,"o":"m 315 1015 q 366 1010 340 1015 q 408 999 391 1005 l 397 920 l 336 920 q 284 902 304 920 q 261 852 265 885 l 244 730 l 371 730 l 357 629 l 231 629 l 136 -85 q 121 -146 132 -116 q 90 -200 110 -176 q 40 -238 70 -224 q -31 -253 11 -253 q -81 -248 -56 -253 q -123 -236 -107 -242 l -113 -157 l -52 -157 q 22 -90 14 -157 l 117 629 l 53 629 l 66 730 l 131 730 l 147 847 q 162 908 151 878 q 194 962 174 939 q 243 1001 214 986 q 315 1015 273 1015 m 452 0 l 339 0 l 478 1004 l 591 1004 l 452 0 z "},"ĳ":{"ha":506,"x_min":22,"x_max":528,"o":"m 135 0 l 22 0 l 123 730 l 237 730 l 135 0 m 257 868 l 143 868 l 161 1004 l 275 1004 l 257 868 m 375 -85 q 359 -146 370 -116 q 328 -200 348 -176 q 279 -238 309 -224 q 208 -253 250 -253 q 158 -248 183 -253 q 115 -236 132 -242 l 127 -157 l 188 -157 q 260 -90 254 -157 l 375 730 l 489 730 l 375 -85 m 509 868 l 395 868 l 414 1004 l 528 1004 l 509 868 z "},"˚":{"ha":379,"x_min":69,"x_max":326,"o":"m 207 1023 q 254 1015 233 1023 q 292 990 276 1006 q 317 953 308 975 q 326 907 326 932 q 315 853 326 878 q 285 810 304 829 q 241 782 266 792 q 189 771 216 771 q 141 780 163 771 q 103 804 119 788 q 78 841 87 819 q 69 888 69 862 q 81 943 69 918 q 112 986 92 968 q 156 1014 131 1004 q 207 1023 180 1023 m 203 968 q 175 962 188 968 q 152 946 161 956 q 137 922 142 936 q 131 892 131 908 q 136 867 131 879 q 149 846 140 855 q 168 832 157 838 q 193 827 180 827 q 221 832 208 827 q 244 848 234 838 q 259 872 254 859 q 265 903 265 886 q 260 927 265 916 q 248 948 256 939 q 228 962 239 957 q 203 968 216 968 z "},"ˇ":{"ha":379,"x_min":131,"x_max":476,"o":"m 330 817 l 222 817 l 131 1004 l 241 1004 l 288 895 l 361 1004 l 476 1004 l 330 817 z "},"˙":{"ha":379,"x_min":119,"x_max":258,"o":"m 240 872 l 119 872 l 138 1004 l 258 1004 l 240 872 z "},"ˉ":{"ha":694,"x_min":94,"x_max":799,"o":"m 789 1099 l 94 1099 l 103 1173 l 799 1173 l 789 1099 z "},"˝":{"ha":379,"x_min":5,"x_max":399,"o":"m 399 1000 l 282 821 l 186 821 l 272 1004 l 397 1004 l 399 1000 m 218 1000 l 102 821 l 5 821 l 92 1004 l 216 1004 l 218 1000 z "},"˘":{"ha":379,"x_min":22,"x_max":367,"o":"m 367 1004 q 349 957 363 981 q 310 913 334 933 q 254 882 286 894 q 183 869 222 869 q 115 880 144 869 q 64 908 85 890 q 33 947 44 925 q 22 991 22 969 l 22 998 q 24 1004 22 1001 l 113 1004 q 119 989 113 997 q 134 974 124 981 q 158 963 144 967 q 189 958 172 958 q 222 963 207 958 q 249 974 237 967 q 268 989 260 981 q 278 1004 276 997 l 367 1004 z "},"˛":{"ha":379,"x_min":97,"x_max":309,"o":"m 268 11 q 249 -11 259 2 q 230 -38 239 -23 q 216 -71 222 -54 q 211 -104 211 -87 q 223 -145 211 -128 q 264 -163 235 -163 l 309 -163 l 298 -233 q 254 -248 275 -243 q 211 -253 232 -253 q 169 -248 189 -253 q 133 -230 149 -243 q 107 -196 117 -217 q 97 -143 97 -175 q 105 -91 97 -115 q 125 -48 113 -68 q 153 -13 137 -29 q 184 17 168 3 l 261 17 l 268 11 z "},"":{"ha":379,"x_min":62,"x_max":199,"o":"m 182 -200 l 133 -306 l 66 -306 l 110 -210 l 62 -210 l 81 -83 l 199 -83 l 182 -200 z "},"Ǻ":{"ha":760,"x_min":-50,"x_max":711,"o":"m 469 1178 l 568 1329 l 693 1329 l 694 1325 l 567 1178 l 469 1178 m 585 0 l 549 212 l 167 212 l 71 0 l -50 0 l 372 921 q 338 1004 338 954 q 349 1059 338 1034 q 380 1102 361 1084 q 424 1130 399 1120 q 475 1140 449 1140 q 523 1131 501 1140 q 561 1107 545 1122 q 586 1070 577 1091 q 595 1023 595 1048 q 582 967 595 993 q 549 924 570 941 l 711 0 l 585 0 m 471 1084 q 444 1079 456 1084 q 421 1063 431 1073 q 406 1039 411 1053 q 400 1008 400 1025 q 405 984 400 996 q 417 963 409 972 q 437 949 425 954 q 463 943 448 943 q 489 949 477 943 q 512 965 502 955 q 527 989 522 975 q 533 1019 533 1003 q 528 1044 533 1032 q 515 1065 524 1056 q 496 1079 507 1074 q 471 1084 484 1084 m 460 747 q 456 777 458 759 q 454 812 455 795 q 453 852 453 831 l 447 852 q 433 811 440 831 q 420 777 427 794 q 408 747 414 759 l 216 323 l 530 323 l 460 747 z "},"Ā":{"ha":760,"x_min":-50,"x_max":711,"o":"m 648 1054 l 301 1054 l 317 1154 l 664 1154 l 648 1054 m 549 212 l 167 212 l 71 0 l -50 0 l 386 953 l 543 953 l 711 0 l 585 0 l 549 212 m 216 323 l 530 323 l 460 747 q 456 777 458 759 q 454 812 455 795 q 453 852 453 831 l 447 852 q 433 811 440 831 q 420 777 427 794 q 408 747 414 759 l 216 323 z "},"Ă":{"ha":760,"x_min":-50,"x_max":711,"o":"m 676 1226 q 659 1179 673 1202 q 620 1136 644 1155 q 564 1104 596 1116 q 493 1092 532 1092 q 424 1102 454 1092 q 374 1130 394 1113 q 342 1170 353 1147 q 332 1214 332 1192 q 332 1220 332 1217 q 334 1226 332 1223 l 422 1226 q 429 1211 423 1219 q 444 1196 434 1203 q 468 1185 454 1190 q 498 1181 481 1181 q 531 1185 516 1181 q 558 1196 547 1190 q 578 1211 570 1203 q 587 1226 585 1219 l 676 1226 m 549 212 l 167 212 l 71 0 l -50 0 l 386 953 l 543 953 l 711 0 l 585 0 l 549 212 m 216 323 l 530 323 l 460 747 q 456 777 458 759 q 454 812 455 795 q 453 852 453 831 l 447 852 q 433 811 440 831 q 420 777 427 794 q 408 747 414 759 l 216 323 z "},"Ą":{"ha":760,"x_min":-50,"x_max":753,"o":"m 742 -244 q 654 -264 695 -264 q 612 -259 633 -264 q 576 -241 592 -254 q 550 -207 560 -228 q 541 -154 541 -186 q 547 -104 541 -127 q 565 -63 554 -82 q 591 -29 576 -45 q 621 0 606 -14 l 585 0 l 549 212 l 167 212 l 71 0 l -50 0 l 386 953 l 543 953 l 711 0 q 692 -21 703 -9 q 674 -49 682 -34 q 660 -81 665 -64 q 654 -115 654 -98 q 666 -156 654 -139 q 707 -174 677 -174 l 753 -174 l 742 -244 m 460 747 q 456 777 458 759 q 454 812 455 795 q 453 852 453 831 l 447 852 q 433 811 440 831 q 420 777 427 794 q 408 747 414 759 l 216 323 l 530 323 l 460 747 z "},"Ǽ":{"ha":1139,"x_min":-60,"x_max":1153,"o":"m 742 1222 l 591 1043 l 494 1043 l 614 1226 l 741 1226 l 742 1222 m 1043 111 l 1026 0 l 570 0 l 551 212 l 178 212 l 68 0 l -60 0 l 460 953 l 1153 953 l 1136 842 l 627 842 l 652 543 l 1034 543 l 1018 432 l 660 432 l 688 111 l 1043 111 m 236 323 l 543 323 l 510 730 q 508 760 509 742 q 506 795 507 779 q 504 836 505 815 l 498 836 q 479 795 488 815 q 464 760 472 779 q 449 730 455 742 l 236 323 z "},"Ć":{"ha":822,"x_min":71,"x_max":791,"o":"m 490 970 q 715 886 638 970 q 791 629 791 803 l 791 607 l 665 607 l 665 637 q 622 802 665 747 q 489 857 579 857 q 401 839 440 857 q 333 791 363 821 q 281 721 303 761 q 244 638 260 682 q 220 550 229 594 q 205 466 210 505 q 198 393 200 426 q 196 342 196 361 q 246 160 196 223 q 392 97 296 97 q 486 117 445 97 q 557 169 527 136 q 605 245 587 202 q 631 336 623 289 l 751 336 q 715 201 742 265 q 643 89 688 137 q 537 12 599 40 q 396 -17 475 -17 q 261 4 321 -17 q 159 68 201 25 q 94 178 117 111 q 71 335 71 244 q 79 469 71 397 q 107 610 87 540 q 158 746 126 681 q 236 861 189 811 q 346 940 283 910 q 490 970 408 970 m 673 1223 l 524 1043 l 427 1043 l 547 1227 l 672 1227 l 673 1223 z "},"Ĉ":{"ha":822,"x_min":71,"x_max":791,"o":"m 490 970 q 715 886 638 970 q 791 629 791 803 l 791 607 l 665 607 l 665 637 q 622 802 665 747 q 489 857 579 857 q 401 839 440 857 q 333 791 363 821 q 281 721 303 761 q 244 638 260 682 q 220 550 229 594 q 205 466 210 505 q 198 393 200 426 q 196 342 196 361 q 246 160 196 223 q 392 97 296 97 q 486 117 445 97 q 557 169 527 136 q 605 245 587 202 q 631 336 623 289 l 751 336 q 715 201 742 265 q 643 89 688 137 q 537 12 599 40 q 396 -17 475 -17 q 261 4 321 -17 q 159 68 201 25 q 94 178 117 111 q 71 335 71 244 q 79 469 71 397 q 107 610 87 540 q 158 746 126 681 q 236 861 189 811 q 346 940 283 910 q 490 970 408 970 m 667 1039 l 560 1039 l 515 1149 l 437 1039 l 321 1039 l 467 1227 l 576 1227 l 667 1039 z "},"Ċ":{"ha":822,"x_min":71,"x_max":791,"o":"m 490 970 q 715 886 638 970 q 791 629 791 803 l 791 607 l 665 607 l 665 637 q 622 802 665 747 q 489 857 579 857 q 401 839 440 857 q 333 791 363 821 q 281 721 303 761 q 244 638 260 682 q 220 550 229 594 q 205 466 210 505 q 198 393 200 426 q 196 342 196 361 q 246 160 196 223 q 392 97 296 97 q 486 117 445 97 q 557 169 527 136 q 605 245 587 202 q 631 336 623 289 l 751 336 q 715 201 742 265 q 643 89 688 137 q 537 12 599 40 q 396 -17 475 -17 q 261 4 321 -17 q 159 68 201 25 q 94 178 117 111 q 71 335 71 244 q 79 469 71 397 q 107 610 87 540 q 158 746 126 681 q 236 861 189 811 q 346 940 283 910 q 490 970 408 970 m 568 1095 l 448 1095 l 466 1227 l 587 1227 l 568 1095 z "},"Č":{"ha":822,"x_min":71,"x_max":791,"o":"m 490 970 q 715 886 638 970 q 791 629 791 803 l 791 607 l 665 607 l 665 637 q 622 802 665 747 q 489 857 579 857 q 401 839 440 857 q 333 791 363 821 q 281 721 303 761 q 244 638 260 682 q 220 550 229 594 q 205 466 210 505 q 198 393 200 426 q 196 342 196 361 q 246 160 196 223 q 392 97 296 97 q 486 117 445 97 q 557 169 527 136 q 605 245 587 202 q 631 336 623 289 l 751 336 q 715 201 742 265 q 643 89 688 137 q 537 12 599 40 q 396 -17 475 -17 q 261 4 321 -17 q 159 68 201 25 q 94 178 117 111 q 71 335 71 244 q 79 469 71 397 q 107 610 87 540 q 158 746 126 681 q 236 861 189 811 q 346 940 283 910 q 490 970 408 970 m 551 1039 l 443 1039 l 351 1227 l 462 1227 l 508 1117 l 581 1227 l 696 1227 l 551 1039 z "},"Đ":{"ha":822,"x_min":20,"x_max":782,"o":"m 47 0 l 110 449 l 20 449 l 32 538 l 122 538 l 182 953 l 464 953 q 598 930 539 953 q 699 863 658 908 q 761 752 739 819 q 782 596 782 685 q 772 466 782 534 q 742 332 763 398 q 689 205 722 265 q 610 100 656 145 q 504 27 564 54 q 368 0 444 0 l 47 0 m 288 842 l 244 538 l 463 538 l 450 449 l 232 449 l 186 111 l 354 111 q 459 134 414 111 q 538 193 505 156 q 594 280 572 231 q 631 383 617 329 q 650 491 644 437 q 656 595 656 546 q 642 704 656 657 q 602 781 628 750 q 537 826 575 811 q 450 842 498 842 l 288 842 z "},"Ď":{"ha":822,"x_min":47,"x_max":782,"o":"m 514 1039 l 406 1039 l 314 1226 l 425 1226 l 471 1117 l 545 1226 l 660 1226 l 514 1039 m 47 0 l 182 953 l 464 953 q 598 930 539 953 q 699 863 658 908 q 761 752 739 819 q 782 596 782 685 q 772 466 782 534 q 742 332 763 398 q 689 205 722 265 q 610 100 656 145 q 504 27 564 54 q 368 0 444 0 l 47 0 m 288 842 l 186 111 l 354 111 q 459 134 414 111 q 538 193 505 156 q 594 280 572 231 q 631 383 617 329 q 650 491 644 437 q 656 595 656 546 q 642 704 656 657 q 602 781 628 750 q 537 826 575 811 q 450 842 498 842 l 288 842 z "},"Ē":{"ha":760,"x_min":47,"x_max":770,"o":"m 636 1054 l 289 1054 l 304 1154 l 652 1154 l 636 1054 m 47 0 l 182 953 l 770 953 l 753 842 l 288 842 l 245 543 l 650 543 l 635 432 l 231 432 l 186 111 l 660 111 l 643 0 l 47 0 z "},"Ĕ":{"ha":760,"x_min":47,"x_max":770,"o":"m 664 1226 q 646 1179 661 1202 q 608 1136 631 1155 q 552 1104 584 1116 q 481 1092 519 1092 q 412 1102 442 1092 q 361 1130 382 1113 q 330 1170 341 1147 q 319 1214 319 1192 q 319 1220 319 1217 q 321 1226 319 1223 l 410 1226 q 416 1211 410 1219 q 431 1196 421 1203 q 455 1185 441 1190 q 486 1181 469 1181 q 519 1185 504 1181 q 546 1196 534 1190 q 566 1211 558 1203 q 575 1226 573 1219 l 664 1226 m 47 0 l 182 953 l 770 953 l 753 842 l 288 842 l 245 543 l 650 543 l 635 432 l 231 432 l 186 111 l 660 111 l 643 0 l 47 0 z "},"Ė":{"ha":760,"x_min":47,"x_max":770,"o":"m 534 1095 l 414 1095 l 432 1226 l 553 1226 l 534 1095 m 47 0 l 182 953 l 770 953 l 753 842 l 288 842 l 245 543 l 650 543 l 635 432 l 231 432 l 186 111 l 660 111 l 643 0 l 47 0 z "},"Ę":{"ha":760,"x_min":47,"x_max":770,"o":"m 245 543 l 650 543 l 635 432 l 231 432 l 186 111 l 660 111 l 643 0 q 624 -21 634 -9 q 605 -49 614 -34 q 591 -81 597 -64 q 586 -115 586 -98 q 598 -156 586 -139 q 639 -174 610 -174 l 684 -174 l 673 -244 q 586 -264 627 -264 q 544 -259 564 -264 q 508 -241 524 -254 q 482 -207 492 -228 q 472 -154 472 -186 q 479 -104 472 -127 q 497 -63 486 -82 q 523 -29 509 -45 q 553 0 538 -14 l 47 0 l 182 953 l 770 953 l 753 842 l 288 842 l 245 543 z "},"Ě":{"ha":760,"x_min":47,"x_max":770,"o":"m 517 1039 l 408 1039 l 318 1226 l 428 1226 l 473 1117 l 547 1226 l 663 1226 l 517 1039 m 47 0 l 182 953 l 770 953 l 753 842 l 288 842 l 245 543 l 650 543 l 635 432 l 231 432 l 186 111 l 660 111 l 643 0 l 47 0 z "},"Ĩ":{"ha":317,"x_min":47,"x_max":481,"o":"m 170 0 l 47 0 l 182 953 l 304 953 l 170 0 m 481 1227 q 468 1177 478 1202 q 441 1131 458 1152 q 402 1096 425 1109 q 349 1082 378 1082 q 305 1089 325 1082 q 266 1104 285 1096 q 229 1118 248 1112 q 190 1125 211 1125 q 157 1116 171 1125 q 136 1082 142 1106 l 56 1082 q 70 1132 60 1106 q 96 1179 79 1158 q 135 1213 112 1200 q 189 1227 158 1227 q 232 1220 212 1227 q 270 1205 252 1213 q 308 1190 289 1197 q 347 1183 326 1183 q 380 1193 366 1183 q 401 1227 395 1203 l 481 1227 z "},"Ī":{"ha":317,"x_min":47,"x_max":441,"o":"m 170 0 l 47 0 l 182 953 l 304 953 l 170 0 m 427 1055 l 79 1055 l 94 1154 l 441 1154 l 427 1055 z "},"Ĭ":{"ha":317,"x_min":47,"x_max":454,"o":"m 170 0 l 47 0 l 182 953 l 304 953 l 170 0 m 454 1227 q 436 1179 451 1203 q 398 1136 422 1156 q 341 1104 374 1116 q 271 1092 309 1092 q 202 1102 232 1092 q 152 1130 172 1113 q 121 1170 132 1147 q 110 1214 110 1192 l 110 1220 q 111 1227 110 1223 l 200 1227 q 206 1211 201 1219 q 221 1196 212 1203 q 245 1185 231 1190 q 277 1181 259 1181 q 310 1185 294 1181 q 336 1196 325 1190 q 356 1211 348 1203 q 366 1227 363 1219 l 454 1227 z "},"Į":{"ha":317,"x_min":-1,"x_max":304,"o":"m 170 0 q 151 -21 161 -9 q 132 -49 140 -34 q 118 -81 123 -64 q 113 -115 113 -98 q 124 -156 113 -139 q 165 -174 136 -174 l 210 -174 l 200 -244 q 155 -259 177 -254 q 113 -264 134 -264 q 71 -259 91 -264 q 34 -241 50 -254 q 8 -207 18 -228 q -1 -154 -1 -186 q 5 -104 -1 -127 q 24 -63 12 -82 q 50 -29 35 -45 q 79 0 64 -14 l 47 0 l 182 953 l 304 953 l 170 0 z "},"İ":{"ha":317,"x_min":47,"x_max":343,"o":"m 170 0 l 47 0 l 182 953 l 304 953 l 170 0 m 325 1095 l 204 1095 l 222 1227 l 343 1227 l 325 1095 z "},"Ĳ":{"ha":886,"x_min":47,"x_max":882,"o":"m 170 0 l 47 0 l 182 953 l 304 953 l 170 0 m 779 227 q 697 45 762 106 q 528 -17 633 -17 q 370 31 425 -17 q 315 172 315 79 q 316 186 315 178 q 317 206 316 193 q 321 239 319 219 q 328 289 323 258 l 449 289 q 442 241 445 259 q 438 214 439 224 q 436 199 437 203 q 436 191 436 194 q 460 119 436 143 q 530 96 484 96 q 615 127 583 96 q 656 220 647 159 l 760 953 l 882 953 l 779 227 z "},"Ĵ":{"ha":570,"x_min":-1,"x_max":686,"o":"m 463 227 q 381 45 446 106 q 211 -17 316 -17 q 54 31 109 -17 q -1 172 -1 79 q -1 186 -1 178 q 1 206 -1 193 q 4 239 2 219 q 11 289 7 258 l 132 289 q 125 241 128 259 q 121 214 123 224 q 120 199 120 203 q 119 191 119 194 q 143 119 119 143 q 214 96 168 96 q 298 127 267 96 q 339 220 330 159 l 443 953 l 566 953 l 463 227 m 686 1039 l 578 1039 l 533 1149 l 455 1039 l 340 1039 l 486 1227 l 594 1227 l 686 1039 z "},"Ķ":{"ha":760,"x_min":47,"x_max":818,"o":"m 339 -200 l 290 -306 l 224 -306 l 267 -210 l 220 -210 l 237 -83 l 355 -83 l 339 -200 m 233 457 l 672 953 l 818 953 l 478 568 l 693 0 l 557 0 l 387 465 l 211 296 l 170 0 l 47 0 l 182 953 l 304 953 l 233 457 z "},"Ĺ":{"ha":633,"x_min":47,"x_max":575,"o":"m 432 1222 l 282 1043 l 184 1043 l 304 1226 l 431 1226 l 432 1222 m 47 0 l 182 953 l 304 953 l 186 111 l 575 111 l 558 0 l 47 0 z "},"Ļ":{"ha":633,"x_min":47,"x_max":575,"o":"m 306 -200 l 257 -306 l 191 -306 l 233 -210 l 186 -210 l 204 -83 l 322 -83 l 306 -200 m 47 0 l 182 953 l 304 953 l 186 111 l 575 111 l 558 0 l 47 0 z "},"Ľ":{"ha":633,"x_min":47,"x_max":632,"o":"m 612 815 l 524 631 l 447 631 l 518 803 l 472 803 l 493 953 l 632 953 l 612 815 m 47 0 l 182 953 l 304 953 l 186 111 l 575 111 l 558 0 l 47 0 z "},"Ŀ":{"ha":633,"x_min":47,"x_max":578,"o":"m 555 400 l 415 400 l 436 554 l 578 554 l 555 400 m 47 0 l 182 953 l 304 953 l 186 111 l 575 111 l 558 0 l 47 0 z "},"Ł":{"ha":633,"x_min":-12,"x_max":575,"o":"m 93 329 l -12 245 l 4 358 l 110 441 l 182 953 l 304 953 l 248 550 l 412 682 l 396 567 l 232 436 l 186 111 l 575 111 l 558 0 l 47 0 l 93 329 z "},"Ĝ":{"ha":886,"x_min":69,"x_max":828,"o":"m 693 1039 l 586 1039 l 541 1149 l 463 1039 l 347 1039 l 493 1226 l 602 1226 l 693 1039 m 648 106 q 542 16 604 49 q 396 -17 480 -17 q 261 4 321 -17 q 158 68 201 25 q 92 178 115 111 q 69 335 69 244 q 78 469 69 397 q 107 610 87 540 q 160 746 127 681 q 241 861 193 811 q 355 940 290 910 q 505 970 420 970 q 746 886 665 970 q 828 628 828 802 l 701 628 l 701 637 q 653 802 701 747 q 504 857 606 857 q 412 840 452 857 q 340 794 372 823 q 286 727 309 765 q 247 646 263 688 q 220 559 231 604 q 204 474 210 515 q 197 399 199 434 q 195 342 195 365 q 247 160 195 224 q 407 97 298 97 q 509 116 465 97 q 585 169 553 136 q 636 245 617 201 q 664 336 656 288 l 672 389 l 422 389 l 437 496 l 811 496 l 741 0 l 660 0 l 648 106 z "},"Ğ":{"ha":886,"x_min":69,"x_max":828,"o":"m 724 1226 q 706 1179 720 1202 q 667 1136 691 1155 q 611 1104 644 1116 q 541 1092 579 1092 q 472 1102 502 1092 q 421 1130 441 1113 q 390 1170 401 1147 q 379 1214 379 1192 q 379 1220 379 1217 q 380 1226 379 1223 l 469 1226 q 475 1211 470 1219 q 491 1196 481 1203 q 514 1185 500 1190 q 546 1181 528 1181 q 579 1185 564 1181 q 606 1196 594 1190 q 625 1211 618 1203 q 635 1226 633 1219 l 724 1226 m 648 106 q 542 16 604 49 q 396 -17 480 -17 q 261 4 321 -17 q 158 68 201 25 q 92 178 115 111 q 69 335 69 244 q 78 469 69 397 q 107 610 87 540 q 160 746 127 681 q 241 861 193 811 q 355 940 290 910 q 505 970 420 970 q 746 886 665 970 q 828 628 828 802 l 701 628 l 701 637 q 653 802 701 747 q 504 857 606 857 q 412 840 452 857 q 340 794 372 823 q 286 727 309 765 q 247 646 263 688 q 220 559 231 604 q 204 474 210 515 q 197 399 199 434 q 195 342 195 365 q 247 160 195 224 q 407 97 298 97 q 509 116 465 97 q 585 169 553 136 q 636 245 617 201 q 664 336 656 288 l 672 389 l 422 389 l 437 496 l 811 496 l 741 0 l 660 0 l 648 106 z "},"Ġ":{"ha":886,"x_min":69,"x_max":828,"o":"m 595 1095 l 473 1095 l 492 1226 l 612 1226 l 595 1095 m 648 106 q 542 16 604 49 q 396 -17 480 -17 q 261 4 321 -17 q 158 68 201 25 q 92 178 115 111 q 69 335 69 244 q 78 469 69 397 q 107 610 87 540 q 160 746 127 681 q 241 861 193 811 q 355 940 290 910 q 505 970 420 970 q 746 886 665 970 q 828 628 828 802 l 701 628 l 701 637 q 653 802 701 747 q 504 857 606 857 q 412 840 452 857 q 340 794 372 823 q 286 727 309 765 q 247 646 263 688 q 220 559 231 604 q 204 474 210 515 q 197 399 199 434 q 195 342 195 365 q 247 160 195 224 q 407 97 298 97 q 509 116 465 97 q 585 169 553 136 q 636 245 617 201 q 664 336 656 288 l 672 389 l 422 389 l 437 496 l 811 496 l 741 0 l 660 0 l 648 106 z "},"Ģ":{"ha":886,"x_min":69,"x_max":828,"o":"m 443 -200 l 395 -306 l 328 -306 l 372 -210 l 323 -210 l 343 -83 l 461 -83 l 443 -200 m 648 106 q 542 16 604 49 q 396 -17 480 -17 q 261 4 321 -17 q 158 68 201 25 q 92 178 115 111 q 69 335 69 244 q 78 469 69 397 q 107 610 87 540 q 160 746 127 681 q 241 861 193 811 q 355 940 290 910 q 505 970 420 970 q 746 886 665 970 q 828 628 828 802 l 701 628 l 701 637 q 653 802 701 747 q 504 857 606 857 q 412 840 452 857 q 340 794 372 823 q 286 727 309 765 q 247 646 263 688 q 220 559 231 604 q 204 474 210 515 q 197 399 199 434 q 195 342 195 365 q 247 160 195 224 q 407 97 298 97 q 509 116 465 97 q 585 169 553 136 q 636 245 617 201 q 664 336 656 288 l 672 389 l 422 389 l 437 496 l 811 496 l 741 0 l 660 0 l 648 106 z "},"Ĥ":{"ha":822,"x_min":47,"x_max":810,"o":"m 673 1039 l 567 1039 l 521 1149 l 443 1039 l 328 1039 l 473 1226 l 582 1226 l 673 1039 m 675 0 l 553 0 l 614 432 l 231 432 l 170 0 l 47 0 l 182 953 l 304 953 l 245 543 l 629 543 l 688 953 l 810 953 l 675 0 z "},"ĥ":{"ha":633,"x_min":31,"x_max":574,"o":"m 235 646 q 261 680 245 662 q 299 713 277 698 q 350 738 321 728 q 415 747 378 747 q 491 733 460 747 q 540 696 522 720 q 566 644 558 673 q 574 583 574 614 q 570 546 574 575 q 562 474 567 516 q 549 380 556 431 q 534 275 542 328 q 496 0 517 152 l 382 0 q 419 262 402 144 q 433 361 426 312 q 445 451 440 410 q 454 520 450 492 q 457 557 457 549 q 436 625 457 604 q 374 646 414 646 q 310 628 339 646 q 259 579 281 611 q 222 505 237 548 q 200 408 208 461 l 143 0 l 31 0 l 171 1004 l 285 1004 l 235 646 m 399 1039 l 292 1039 l 247 1149 l 169 1039 l 54 1039 l 199 1227 l 308 1227 l 399 1039 z "},"Ħ":{"ha":822,"x_min":47,"x_max":860,"o":"m 771 681 l 675 0 l 553 0 l 612 425 l 231 425 l 170 0 l 47 0 l 143 681 l 64 681 l 79 781 l 157 781 l 182 953 l 304 953 l 281 781 l 664 781 l 688 953 l 810 953 l 785 781 l 860 781 l 844 681 l 771 681 m 267 681 l 248 536 l 631 536 l 650 681 l 267 681 z "},"ħ":{"ha":633,"x_min":31,"x_max":574,"o":"m 235 646 q 261 680 245 662 q 299 713 277 698 q 350 738 321 728 q 415 747 378 747 q 491 733 460 747 q 540 696 522 720 q 566 644 558 673 q 574 583 574 614 q 570 546 574 575 q 562 474 567 516 q 549 380 556 431 q 534 275 542 328 q 496 0 517 152 l 382 0 q 419 262 402 144 q 433 361 426 312 q 445 451 440 410 q 454 520 450 492 q 457 557 457 549 q 436 625 457 604 q 374 646 414 646 q 310 628 339 646 q 259 579 281 611 q 222 505 237 548 q 200 408 208 461 l 143 0 l 31 0 l 144 810 l 66 810 l 80 904 l 157 904 l 171 1004 l 285 1004 l 271 904 l 431 904 l 416 810 l 258 810 l 235 646 z "},"Ń":{"ha":822,"x_min":46,"x_max":808,"o":"m 673 0 l 578 0 l 304 607 q 290 644 297 622 q 275 686 282 665 q 258 734 267 709 l 254 733 q 250 684 253 707 q 246 643 248 665 q 241 607 243 621 l 155 0 l 46 0 l 180 953 l 281 953 l 551 354 q 565 319 557 340 q 580 277 572 297 q 596 227 588 253 l 600 228 q 606 279 603 255 q 610 321 608 300 q 614 354 612 342 l 699 953 l 808 953 l 673 0 m 680 1223 l 530 1043 l 434 1043 l 553 1227 l 679 1227 l 680 1223 z "},"Ņ":{"ha":822,"x_min":46,"x_max":808,"o":"m 673 0 l 578 0 l 304 607 q 290 644 297 622 q 275 686 282 665 q 258 734 267 709 l 254 733 q 250 684 253 707 q 246 643 248 665 q 241 607 243 621 l 155 0 l 46 0 l 180 953 l 281 953 l 551 354 q 565 319 557 340 q 580 277 572 297 q 596 227 588 253 l 600 228 q 606 279 603 255 q 610 321 608 300 q 614 354 612 342 l 699 953 l 808 953 l 673 0 m 391 -200 l 342 -306 l 275 -306 l 319 -210 l 271 -210 l 290 -83 l 408 -83 l 391 -200 z "},"Ň":{"ha":822,"x_min":46,"x_max":808,"o":"m 673 0 l 578 0 l 304 607 q 290 644 297 622 q 275 686 282 665 q 258 734 267 709 l 254 733 q 250 684 253 707 q 246 643 248 665 q 241 607 243 621 l 155 0 l 46 0 l 180 953 l 281 953 l 551 354 q 565 319 557 340 q 580 277 572 297 q 596 227 588 253 l 600 228 q 606 279 603 255 q 610 321 608 300 q 614 354 612 342 l 699 953 l 808 953 l 673 0 m 557 1039 l 450 1039 l 358 1227 l 469 1227 l 515 1117 l 588 1227 l 703 1227 l 557 1039 z "},"Ŋ":{"ha":823,"x_min":46,"x_max":808,"o":"m 663 -85 q 647 -146 658 -116 q 615 -200 635 -176 q 566 -238 595 -224 q 496 -253 537 -253 q 445 -248 471 -253 q 403 -236 420 -242 l 414 -157 l 475 -157 q 547 -90 539 -157 l 564 29 l 304 607 q 290 644 297 622 q 275 686 282 665 q 258 734 267 709 l 254 733 q 250 684 253 707 q 246 643 248 665 q 241 607 243 621 l 155 0 l 46 0 l 180 953 l 281 953 l 551 354 q 565 319 557 340 q 580 277 572 297 q 596 227 588 253 l 600 228 q 606 279 603 255 q 610 321 608 300 q 614 354 612 342 l 699 953 l 808 953 l 663 -85 z "},"Ō":{"ha":886,"x_min":71,"x_max":840,"o":"m 510 970 q 649 947 588 970 q 753 879 711 924 q 818 766 795 834 q 840 607 840 698 q 831 469 840 541 q 800 327 821 397 q 745 195 779 258 q 663 86 711 133 q 549 11 614 39 q 400 -17 484 -17 q 261 5 322 -17 q 157 73 199 28 q 93 185 115 117 q 71 343 71 252 q 80 482 71 410 q 110 624 89 554 q 164 756 131 693 q 247 866 198 819 q 361 942 296 913 q 510 970 427 970 m 509 857 q 399 834 446 857 q 316 771 351 810 q 258 679 281 731 q 221 570 235 627 q 202 455 208 513 q 196 346 196 397 q 250 158 196 220 q 401 96 303 96 q 512 119 465 96 q 594 183 559 143 q 652 275 629 222 q 689 384 675 327 q 708 498 703 441 q 714 607 714 556 q 700 716 714 669 q 660 795 686 764 q 595 842 633 826 q 509 857 557 857 m 709 1055 l 362 1055 l 377 1154 l 724 1154 l 709 1055 z "},"Ŏ":{"ha":886,"x_min":71,"x_max":840,"o":"m 510 970 q 649 947 588 970 q 753 879 711 924 q 818 766 795 834 q 840 607 840 698 q 831 469 840 541 q 800 327 821 397 q 745 195 779 258 q 663 86 711 133 q 549 11 614 39 q 400 -17 484 -17 q 261 5 322 -17 q 157 73 199 28 q 93 185 115 117 q 71 343 71 252 q 80 482 71 410 q 110 624 89 554 q 164 756 131 693 q 247 866 198 819 q 361 942 296 913 q 510 970 427 970 m 509 857 q 399 834 446 857 q 316 771 351 810 q 258 679 281 731 q 221 570 235 627 q 202 455 208 513 q 196 346 196 397 q 250 158 196 220 q 401 96 303 96 q 512 119 465 96 q 594 183 559 143 q 652 275 629 222 q 689 384 675 327 q 708 498 703 441 q 714 607 714 556 q 700 716 714 669 q 660 795 686 764 q 595 842 633 826 q 509 857 557 857 m 737 1227 q 719 1179 734 1203 q 681 1136 705 1156 q 624 1104 656 1116 q 553 1092 592 1092 q 485 1102 515 1092 q 435 1130 455 1113 q 404 1170 414 1147 q 393 1214 393 1192 l 393 1220 q 394 1227 393 1223 l 483 1227 q 489 1211 484 1219 q 504 1196 494 1203 q 528 1185 514 1190 q 559 1181 542 1181 q 592 1185 577 1181 q 619 1196 608 1190 q 638 1211 631 1203 q 648 1227 646 1219 l 737 1227 z "},"Ő":{"ha":886,"x_min":71,"x_max":840,"o":"m 510 970 q 649 947 588 970 q 753 879 711 924 q 818 766 795 834 q 840 607 840 698 q 831 469 840 541 q 800 327 821 397 q 745 195 779 258 q 663 86 711 133 q 549 11 614 39 q 400 -17 484 -17 q 261 5 322 -17 q 157 73 199 28 q 93 185 115 117 q 71 343 71 252 q 80 482 71 410 q 110 624 89 554 q 164 756 131 693 q 247 866 198 819 q 361 942 296 913 q 510 970 427 970 m 509 857 q 399 834 446 857 q 316 771 351 810 q 258 679 281 731 q 221 570 235 627 q 202 455 208 513 q 196 346 196 397 q 250 158 196 220 q 401 96 303 96 q 512 119 465 96 q 594 183 559 143 q 652 275 629 222 q 689 384 675 327 q 708 498 703 441 q 714 607 714 556 q 700 716 714 669 q 660 795 686 764 q 595 842 633 826 q 509 857 557 857 m 751 1223 l 635 1043 l 538 1043 l 625 1227 l 750 1227 l 751 1223 m 571 1223 l 454 1043 l 358 1043 l 444 1227 l 569 1227 l 571 1223 z "},"Ǿ":{"ha":886,"x_min":69,"x_max":840,"o":"m 757 875 q 819 762 798 829 q 840 607 840 696 q 831 469 840 541 q 800 327 821 397 q 745 195 779 258 q 663 86 711 133 q 549 11 614 39 q 400 -17 484 -17 q 210 29 288 -17 l 158 -52 l 69 -52 l 153 78 q 91 189 112 123 q 71 343 71 254 q 80 482 71 410 q 110 624 89 554 q 164 756 131 693 q 247 866 198 819 q 361 942 296 913 q 510 970 427 970 q 613 958 566 970 q 699 922 661 946 l 751 1004 l 840 1004 l 757 875 m 277 132 q 401 96 326 96 q 512 119 465 96 q 594 183 559 143 q 652 275 629 222 q 689 384 675 327 q 708 498 703 441 q 714 607 714 556 q 706 692 714 654 q 682 760 698 730 l 277 132 m 509 857 q 399 834 446 857 q 316 771 351 810 q 258 679 281 731 q 221 570 235 627 q 202 455 208 513 q 196 346 196 397 q 204 259 196 298 q 227 192 212 221 l 632 819 q 577 848 608 838 q 509 857 545 857 m 713 1223 l 563 1043 l 467 1043 l 586 1227 l 711 1227 l 713 1223 z "},"Ŕ":{"ha":822,"x_min":47,"x_max":810,"o":"m 672 1222 l 522 1043 l 427 1043 l 546 1226 l 671 1226 l 672 1222 m 810 732 q 795 633 810 679 q 755 550 781 587 q 692 485 730 513 q 610 441 655 457 l 737 0 l 608 0 l 486 421 l 229 421 l 170 0 l 47 0 l 182 953 l 551 953 q 668 937 619 953 q 748 892 717 921 q 795 822 780 863 q 810 732 810 781 m 288 842 l 244 532 l 490 532 q 565 545 530 532 q 626 582 600 558 q 667 639 652 606 q 682 713 682 673 q 645 808 682 774 q 533 842 607 842 l 288 842 z "},"Ŗ":{"ha":822,"x_min":47,"x_max":810,"o":"m 447 -200 l 399 -306 l 332 -306 l 376 -210 l 328 -210 l 347 -83 l 464 -83 l 447 -200 m 810 732 q 795 633 810 679 q 755 550 781 587 q 692 485 730 513 q 610 441 655 457 l 737 0 l 608 0 l 486 421 l 229 421 l 170 0 l 47 0 l 182 953 l 551 953 q 668 937 619 953 q 748 892 717 921 q 795 822 780 863 q 810 732 810 781 m 288 842 l 244 532 l 490 532 q 565 545 530 532 q 626 582 600 558 q 667 639 652 606 q 682 713 682 673 q 645 808 682 774 q 533 842 607 842 l 288 842 z "},"Ř":{"ha":822,"x_min":47,"x_max":810,"o":"m 550 1039 l 441 1039 l 350 1226 l 461 1226 l 507 1117 l 579 1226 l 694 1226 l 550 1039 m 810 732 q 795 633 810 679 q 755 550 781 587 q 692 485 730 513 q 610 441 655 457 l 737 0 l 608 0 l 486 421 l 229 421 l 170 0 l 47 0 l 182 953 l 551 953 q 668 937 619 953 q 748 892 717 921 q 795 822 780 863 q 810 732 810 781 m 288 842 l 244 532 l 490 532 q 565 545 530 532 q 626 582 600 558 q 667 639 652 606 q 682 713 682 673 q 645 808 682 774 q 533 842 607 842 l 288 842 z "},"Ś":{"ha":760,"x_min":46,"x_max":730,"o":"m 436 970 q 574 947 518 970 q 665 885 631 924 q 715 791 700 845 q 730 673 730 736 l 604 673 q 588 769 604 733 q 546 825 572 805 q 490 851 521 844 q 429 857 458 857 q 383 853 411 857 q 330 833 355 848 q 285 790 304 819 q 267 711 267 761 q 284 648 267 674 q 331 602 302 622 q 397 566 360 583 q 474 533 435 550 q 550 495 513 516 q 616 446 587 475 q 663 377 645 417 q 681 282 681 338 q 675 216 681 250 q 654 148 669 181 q 614 85 639 115 q 552 32 589 55 q 464 -4 515 9 q 346 -17 413 -17 q 222 1 277 -17 q 128 55 167 20 q 67 143 89 91 q 46 261 46 195 q 46 292 46 277 q 50 325 47 308 l 176 325 q 171 291 173 307 q 170 260 170 275 q 182 186 170 217 q 220 135 195 155 q 278 105 244 115 q 355 96 313 96 q 418 103 384 96 q 482 129 452 111 q 532 180 512 148 q 553 264 553 213 q 535 331 553 303 q 488 380 517 359 q 422 419 459 402 q 347 454 385 436 q 271 492 308 471 q 205 541 234 513 q 158 606 176 568 q 140 697 140 644 q 160 814 140 763 q 218 899 180 865 q 311 952 256 934 q 436 970 366 970 m 657 1223 l 507 1043 l 411 1043 l 530 1227 l 656 1227 l 657 1223 z "},"Ŝ":{"ha":760,"x_min":46,"x_max":730,"o":"m 436 970 q 574 947 518 970 q 665 885 631 924 q 715 791 700 845 q 730 673 730 736 l 604 673 q 588 769 604 733 q 546 825 572 805 q 490 851 521 844 q 429 857 458 857 q 383 853 411 857 q 330 833 355 848 q 285 790 304 819 q 267 711 267 761 q 284 648 267 674 q 331 602 302 622 q 397 566 360 583 q 474 533 435 550 q 550 495 513 516 q 616 446 587 475 q 663 377 645 417 q 681 282 681 338 q 675 216 681 250 q 654 148 669 181 q 614 85 639 115 q 552 32 589 55 q 464 -4 515 9 q 346 -17 413 -17 q 222 1 277 -17 q 128 55 167 20 q 67 143 89 91 q 46 261 46 195 q 46 292 46 277 q 50 325 47 308 l 176 325 q 171 291 173 307 q 170 260 170 275 q 182 186 170 217 q 220 135 195 155 q 278 105 244 115 q 355 96 313 96 q 418 103 384 96 q 482 129 452 111 q 532 180 512 148 q 553 264 553 213 q 535 331 553 303 q 488 380 517 359 q 422 419 459 402 q 347 454 385 436 q 271 492 308 471 q 205 541 234 513 q 158 606 176 568 q 140 697 140 644 q 160 814 140 763 q 218 899 180 865 q 311 952 256 934 q 436 970 366 970 m 651 1039 l 544 1039 l 498 1149 l 420 1039 l 305 1039 l 451 1227 l 559 1227 l 651 1039 z "},"Ş":{"ha":760,"x_min":46,"x_max":730,"o":"m 604 673 q 588 769 604 733 q 546 825 572 805 q 490 851 521 844 q 429 857 458 857 q 383 853 411 857 q 330 833 355 848 q 285 790 304 819 q 267 711 267 761 q 284 648 267 674 q 331 602 302 622 q 397 566 360 583 q 474 533 435 550 q 550 495 513 516 q 616 446 587 475 q 663 377 645 417 q 681 282 681 338 q 675 218 681 251 q 655 152 669 184 q 618 90 642 119 q 561 38 595 61 q 479 1 526 15 q 371 -16 433 -14 l 361 -50 q 399 -56 381 -52 q 432 -70 418 -61 q 454 -92 446 -79 q 463 -125 463 -106 q 445 -190 463 -165 q 403 -229 428 -215 q 350 -248 378 -243 q 301 -253 322 -253 q 241 -250 272 -253 q 186 -241 210 -247 l 195 -174 l 301 -174 q 341 -165 326 -174 q 357 -132 357 -157 q 347 -113 357 -119 q 314 -107 337 -107 l 268 -107 l 295 -14 q 192 14 238 -7 q 113 70 146 35 q 63 153 81 104 q 46 261 46 201 q 46 292 46 277 q 50 325 47 308 l 176 325 q 171 291 173 307 q 170 260 170 275 q 182 186 170 217 q 220 135 195 155 q 278 105 244 115 q 355 96 313 96 q 418 103 384 96 q 482 129 452 111 q 532 180 512 148 q 553 264 553 213 q 535 331 553 303 q 488 380 517 359 q 422 419 459 402 q 347 454 385 436 q 271 492 308 471 q 205 541 234 513 q 158 606 176 568 q 140 697 140 644 q 160 814 140 763 q 218 899 180 865 q 311 952 256 934 q 436 970 366 970 q 574 947 518 970 q 665 885 631 924 q 715 791 700 845 q 730 673 730 736 l 604 673 z "},"Ţ":{"ha":696,"x_min":89,"x_max":747,"o":"m 323 -200 l 275 -306 l 208 -306 l 253 -210 l 204 -210 l 224 -83 l 342 -83 l 323 -200 m 106 953 l 747 953 l 730 842 l 471 842 l 353 0 l 231 0 l 349 842 l 89 842 l 106 953 z "},"Ť":{"ha":696,"x_min":89,"x_max":747,"o":"m 490 1039 l 382 1039 l 290 1226 l 401 1226 l 447 1117 l 521 1226 l 636 1226 l 490 1039 m 106 953 l 747 953 l 730 842 l 471 842 l 353 0 l 231 0 l 349 842 l 89 842 l 106 953 z "},"Ŧ":{"ha":696,"x_min":89,"x_max":747,"o":"m 429 546 l 610 546 l 596 446 l 415 446 l 353 0 l 231 0 l 293 446 l 127 446 l 143 546 l 307 546 l 349 842 l 89 842 l 106 953 l 747 953 l 730 842 l 471 842 l 429 546 z "},"Ũ":{"ha":822,"x_min":79,"x_max":804,"o":"m 713 310 q 672 168 701 229 q 600 66 644 107 q 497 4 555 25 q 367 -17 438 -17 q 155 48 230 -17 q 79 240 79 114 q 83 289 79 252 q 94 378 87 326 q 110 494 101 431 q 127 621 118 557 q 176 953 149 770 l 298 953 q 250 616 271 766 q 233 491 241 553 q 218 378 224 429 q 207 295 211 328 q 203 257 203 262 q 246 136 203 177 q 370 96 290 96 q 517 149 459 96 q 590 302 576 201 l 682 953 l 804 953 l 713 310 m 728 1227 q 714 1177 724 1202 q 688 1131 704 1152 q 648 1096 671 1109 q 595 1082 625 1082 q 551 1089 571 1082 q 512 1104 531 1096 q 475 1118 494 1112 q 436 1125 457 1125 q 403 1116 417 1125 q 382 1082 389 1106 l 302 1082 q 316 1132 307 1106 q 342 1179 326 1158 q 381 1213 358 1200 q 435 1227 404 1227 q 478 1220 458 1227 q 516 1205 498 1213 q 554 1190 535 1197 q 593 1183 572 1183 q 626 1193 612 1183 q 647 1227 641 1203 l 728 1227 z "},"Ū":{"ha":822,"x_min":79,"x_max":804,"o":"m 713 310 q 672 168 701 229 q 600 66 644 107 q 497 4 555 25 q 367 -17 438 -17 q 155 48 230 -17 q 79 240 79 114 q 83 289 79 252 q 94 378 87 326 q 110 494 101 431 q 127 621 118 557 q 176 953 149 770 l 298 953 q 250 616 271 766 q 233 491 241 553 q 218 378 224 429 q 207 295 211 328 q 203 257 203 262 q 246 136 203 177 q 370 96 290 96 q 517 149 459 96 q 590 302 576 201 l 682 953 l 804 953 l 713 310 m 673 1055 l 326 1055 l 340 1154 l 688 1154 l 673 1055 z "},"Ŭ":{"ha":822,"x_min":79,"x_max":804,"o":"m 713 310 q 672 168 701 229 q 600 66 644 107 q 497 4 555 25 q 367 -17 438 -17 q 155 48 230 -17 q 79 240 79 114 q 83 289 79 252 q 94 378 87 326 q 110 494 101 431 q 127 621 118 557 q 176 953 149 770 l 298 953 q 250 616 271 766 q 233 491 241 553 q 218 378 224 429 q 207 295 211 328 q 203 257 203 262 q 246 136 203 177 q 370 96 290 96 q 517 149 459 96 q 590 302 576 201 l 682 953 l 804 953 l 713 310 m 701 1227 q 683 1179 697 1203 q 644 1136 668 1156 q 588 1104 620 1116 q 517 1092 555 1092 q 448 1102 478 1092 q 398 1130 418 1113 q 367 1170 378 1147 q 356 1214 356 1192 l 356 1220 q 357 1227 356 1223 l 446 1227 q 452 1211 447 1219 q 468 1196 458 1203 q 491 1185 477 1190 q 523 1181 505 1181 q 556 1185 541 1181 q 583 1196 571 1190 q 602 1211 594 1203 q 612 1227 610 1219 l 701 1227 z "},"Ů":{"ha":822,"x_min":79,"x_max":804,"o":"m 713 310 q 672 168 701 229 q 600 66 644 107 q 497 4 555 25 q 367 -17 438 -17 q 155 48 230 -17 q 79 240 79 114 q 83 289 79 252 q 94 378 87 326 q 110 494 101 431 q 127 621 118 557 q 176 953 149 770 l 298 953 q 250 616 271 766 q 233 491 241 553 q 218 378 224 429 q 207 295 211 328 q 203 257 203 262 q 246 136 203 177 q 370 96 290 96 q 517 149 459 96 q 590 302 576 201 l 682 953 l 804 953 l 713 310 m 522 1246 q 569 1237 547 1246 q 607 1213 591 1228 q 632 1176 623 1197 q 641 1129 641 1154 q 630 1076 641 1101 q 600 1033 618 1051 q 556 1004 581 1015 q 504 994 531 994 q 456 1002 478 994 q 418 1026 434 1010 q 393 1063 402 1042 q 384 1110 384 1084 q 395 1165 384 1140 q 426 1208 407 1190 q 470 1236 446 1226 q 522 1246 495 1246 m 517 1190 q 489 1184 503 1190 q 467 1168 476 1179 q 451 1144 457 1158 q 446 1114 446 1131 q 450 1089 446 1101 q 463 1069 455 1078 q 483 1055 471 1060 q 508 1049 494 1049 q 535 1055 522 1049 q 558 1071 549 1061 q 574 1095 568 1081 q 580 1125 580 1109 q 575 1150 580 1138 q 562 1171 570 1162 q 543 1185 554 1179 q 517 1190 531 1190 z "},"Ű":{"ha":822,"x_min":79,"x_max":804,"o":"m 713 310 q 672 168 701 229 q 600 66 644 107 q 497 4 555 25 q 367 -17 438 -17 q 155 48 230 -17 q 79 240 79 114 q 83 289 79 252 q 94 378 87 326 q 110 494 101 431 q 127 621 118 557 q 176 953 149 770 l 298 953 q 250 616 271 766 q 233 491 241 553 q 218 378 224 429 q 207 295 211 328 q 203 257 203 262 q 246 136 203 177 q 370 96 290 96 q 517 149 459 96 q 590 302 576 201 l 682 953 l 804 953 l 713 310 m 715 1223 l 598 1043 l 502 1043 l 588 1227 l 713 1227 l 715 1223 m 534 1223 l 418 1043 l 321 1043 l 408 1227 l 532 1227 l 534 1223 z "},"Ų":{"ha":822,"x_min":79,"x_max":804,"o":"m 713 310 q 642 115 696 191 q 504 7 589 39 q 485 -15 495 -2 q 466 -42 475 -27 q 452 -75 458 -58 q 447 -109 447 -92 q 459 -150 447 -132 q 500 -167 471 -167 l 545 -167 l 534 -237 q 490 -252 511 -247 q 447 -257 468 -257 q 405 -252 425 -257 q 369 -234 385 -247 q 343 -200 353 -221 q 333 -147 333 -179 q 350 -72 333 -103 q 390 -16 366 -41 q 378 -17 385 -17 l 367 -17 q 155 48 230 -17 q 79 240 79 114 q 83 289 79 252 q 94 378 87 326 q 110 494 101 431 q 127 621 118 557 q 176 953 149 770 l 298 953 q 250 616 271 766 q 233 491 241 553 q 218 378 224 429 q 207 295 211 328 q 203 257 203 262 q 246 136 203 177 q 370 96 290 96 q 517 149 459 96 q 590 302 576 201 l 682 953 l 804 953 l 713 310 z "},"Ŵ":{"ha":1075,"x_min":107,"x_max":1154,"o":"m 799 0 l 640 0 l 612 838 l 606 838 q 589 766 597 801 q 581 734 585 751 q 573 703 577 718 q 564 672 568 687 q 557 646 560 658 l 351 0 l 193 0 l 107 953 l 231 953 l 285 294 q 287 244 286 273 q 289 189 288 215 q 290 125 290 157 l 296 125 q 310 178 302 151 q 325 232 317 202 q 343 294 334 262 l 543 953 l 720 953 l 743 294 q 744 250 744 278 q 745 193 745 222 l 745 125 l 750 125 q 768 186 760 155 q 785 241 776 212 q 803 294 794 271 l 1040 953 l 1154 953 l 799 0 m 806 1039 l 699 1039 l 654 1149 l 576 1039 l 460 1039 l 606 1227 l 715 1227 l 806 1039 z "},"Ẁ":{"ha":1075,"x_min":107,"x_max":1154,"o":"m 799 0 l 640 0 l 612 838 l 606 838 q 589 766 597 801 q 581 734 585 751 q 573 703 577 718 q 564 672 568 687 q 557 646 560 658 l 351 0 l 193 0 l 107 953 l 231 953 l 285 294 q 287 244 286 273 q 289 189 288 215 q 290 125 290 157 l 296 125 q 310 178 302 151 q 325 232 317 202 q 343 294 334 262 l 543 953 l 720 953 l 743 294 q 744 250 744 278 q 745 193 745 222 l 745 125 l 750 125 q 768 186 760 155 q 785 241 776 212 q 803 294 794 271 l 1040 953 l 1154 953 l 799 0 m 722 1043 l 626 1043 l 501 1223 l 504 1227 l 629 1227 l 722 1043 z "},"Ẃ":{"ha":1075,"x_min":107,"x_max":1154,"o":"m 799 0 l 640 0 l 612 838 l 606 838 q 589 766 597 801 q 581 734 585 751 q 573 703 577 718 q 564 672 568 687 q 557 646 560 658 l 351 0 l 193 0 l 107 953 l 231 953 l 285 294 q 287 244 286 273 q 289 189 288 215 q 290 125 290 157 l 296 125 q 310 178 302 151 q 325 232 317 202 q 343 294 334 262 l 543 953 l 720 953 l 743 294 q 744 250 744 278 q 745 193 745 222 l 745 125 l 750 125 q 768 186 760 155 q 785 241 776 212 q 803 294 794 271 l 1040 953 l 1154 953 l 799 0 m 812 1223 l 663 1043 l 566 1043 l 686 1227 l 811 1227 l 812 1223 z "},"Ẅ":{"ha":1075,"x_min":107,"x_max":1154,"o":"m 799 0 l 640 0 l 612 838 l 606 838 q 589 766 597 801 q 581 734 585 751 q 573 703 577 718 q 564 672 568 687 q 557 646 560 658 l 351 0 l 193 0 l 107 953 l 231 953 l 285 294 q 287 244 286 273 q 289 189 288 215 q 290 125 290 157 l 296 125 q 310 178 302 151 q 325 232 317 202 q 343 294 334 262 l 543 953 l 720 953 l 743 294 q 744 250 744 278 q 745 193 745 222 l 745 125 l 750 125 q 768 186 760 155 q 785 241 776 212 q 803 294 794 271 l 1040 953 l 1154 953 l 799 0 m 813 1095 l 692 1095 l 711 1227 l 831 1227 l 813 1095 m 605 1095 l 484 1095 l 503 1227 l 623 1227 l 605 1095 z "},"Ŷ":{"ha":760,"x_min":97,"x_max":835,"o":"m 449 395 l 393 0 l 271 0 l 326 395 l 97 953 l 231 953 l 404 511 l 410 511 l 707 953 l 835 953 l 449 395 m 650 1039 l 543 1039 l 498 1149 l 420 1039 l 304 1039 l 450 1227 l 559 1227 l 650 1039 z "},"Ỳ":{"ha":760,"x_min":97,"x_max":835,"o":"m 449 395 l 393 0 l 271 0 l 326 395 l 97 953 l 231 953 l 404 511 l 410 511 l 707 953 l 835 953 l 449 395 m 566 1043 l 470 1043 l 345 1223 l 348 1227 l 473 1227 l 566 1043 z "},"Ź":{"ha":696,"x_min":-22,"x_max":730,"o":"m 619 1222 l 469 1043 l 374 1043 l 492 1226 l 618 1226 l 619 1222 m -22 0 l -18 53 l 539 842 l 119 842 l 136 953 l 730 953 l 726 900 l 168 111 l 627 111 l 610 0 l -22 0 z "},"Ż":{"ha":696,"x_min":-22,"x_max":730,"o":"m 514 1095 l 393 1095 l 411 1226 l 532 1226 l 514 1095 m -22 0 l -18 53 l 539 842 l 119 842 l 136 953 l 730 953 l 726 900 l 168 111 l 627 111 l 610 0 l -22 0 z "},"ā":{"ha":633,"x_min":46,"x_max":595,"o":"m 550 832 l 203 832 l 218 932 l 566 932 l 550 832 m 328 747 q 376 742 353 747 q 418 722 399 736 q 454 686 438 709 q 479 629 469 663 l 504 730 l 595 730 q 552 433 570 565 q 536 323 544 377 q 523 225 529 269 q 514 154 517 182 q 510 123 510 126 q 520 94 510 102 q 543 85 530 85 l 587 85 l 576 5 q 546 -9 566 -2 q 498 -17 526 -17 q 458 -11 477 -17 q 427 10 440 -4 q 407 46 414 24 q 399 98 399 68 q 319 11 359 39 q 231 -17 279 -17 q 157 -1 191 -17 q 98 48 123 15 q 60 133 74 81 q 46 254 46 184 q 71 472 46 380 q 136 626 96 565 q 227 717 176 687 q 328 747 277 747 m 345 646 q 279 624 307 646 q 231 568 252 603 q 198 489 211 533 q 177 401 184 446 q 166 314 169 356 q 163 243 163 273 q 265 85 163 85 q 324 107 298 85 q 369 165 350 130 q 402 245 389 201 q 424 335 416 290 q 436 420 433 380 q 440 489 440 461 q 345 646 440 646 z "},"ă":{"ha":633,"x_min":46,"x_max":595,"o":"m 578 1004 q 560 957 574 981 q 522 913 545 933 q 466 882 498 894 q 395 869 433 869 q 326 880 356 869 q 275 908 296 890 q 244 947 255 925 q 233 991 233 969 q 233 998 233 995 q 235 1004 233 1001 l 323 1004 q 330 989 324 997 q 345 974 335 981 q 369 963 355 967 q 400 958 382 958 q 433 963 418 958 q 460 974 448 967 q 479 989 472 981 q 489 1004 487 997 l 578 1004 m 328 747 q 376 742 353 747 q 418 722 399 736 q 454 686 438 709 q 479 629 469 663 l 504 730 l 595 730 q 552 433 570 565 q 536 323 544 377 q 523 225 529 269 q 514 154 517 182 q 510 123 510 126 q 520 94 510 102 q 543 85 530 85 l 587 85 l 576 5 q 546 -9 566 -2 q 498 -17 526 -17 q 458 -11 477 -17 q 427 10 440 -4 q 407 46 414 24 q 399 98 399 68 q 319 11 359 39 q 231 -17 279 -17 q 157 -1 191 -17 q 98 48 123 15 q 60 133 74 81 q 46 254 46 184 q 71 472 46 380 q 136 626 96 565 q 227 717 176 687 q 328 747 277 747 m 345 646 q 279 624 307 646 q 231 568 252 603 q 198 489 211 533 q 177 401 184 446 q 166 314 169 356 q 163 243 163 273 q 265 85 163 85 q 324 107 298 85 q 369 165 350 130 q 402 245 389 201 q 424 335 416 290 q 436 420 433 380 q 440 489 440 461 q 345 646 440 646 z "},"ǻ":{"ha":633,"x_min":46,"x_max":621,"o":"m 621 1222 l 485 1065 l 389 1065 l 493 1226 l 619 1226 l 621 1222 m 399 1023 q 446 1015 424 1023 q 484 990 468 1006 q 509 953 500 975 q 518 907 518 932 q 507 853 518 878 q 477 810 496 829 q 433 782 458 792 q 380 771 408 771 q 333 780 355 771 q 295 804 311 788 q 270 841 279 819 q 261 888 261 862 q 273 943 261 918 q 303 986 284 968 q 347 1014 322 1004 q 399 1023 372 1023 m 395 968 q 366 962 379 968 q 343 946 353 956 q 328 922 334 936 q 322 892 322 908 q 327 867 322 879 q 340 846 332 855 q 359 832 348 838 q 385 827 371 827 q 413 832 399 827 q 436 848 426 838 q 451 872 446 859 q 457 903 457 886 q 452 927 457 916 q 439 948 448 939 q 420 962 431 957 q 395 968 408 968 m 328 747 q 376 742 353 747 q 418 722 399 736 q 454 686 438 709 q 479 629 469 663 l 504 730 l 595 730 q 552 433 570 565 q 536 323 544 377 q 523 225 529 269 q 514 154 517 182 q 510 123 510 126 q 520 94 510 102 q 543 85 530 85 l 587 85 l 576 5 q 546 -9 566 -2 q 498 -17 526 -17 q 458 -11 477 -17 q 427 10 440 -4 q 407 46 414 24 q 399 98 399 68 q 319 11 359 39 q 231 -17 279 -17 q 157 -1 191 -17 q 98 48 123 15 q 60 133 74 81 q 46 254 46 184 q 71 472 46 380 q 136 626 96 565 q 227 717 176 687 q 328 747 277 747 m 345 646 q 279 624 307 646 q 231 568 252 603 q 198 489 211 533 q 177 401 184 446 q 166 314 169 356 q 163 243 163 273 q 265 85 163 85 q 324 107 298 85 q 369 165 350 130 q 402 245 389 201 q 424 335 416 290 q 436 420 433 380 q 440 489 440 461 q 345 646 440 646 z "},"ą":{"ha":633,"x_min":46,"x_max":616,"o":"m 607 -239 q 519 -258 560 -258 q 477 -253 498 -258 q 441 -235 457 -248 q 415 -201 425 -222 q 406 -149 406 -180 q 424 -70 406 -102 q 467 -12 441 -38 q 418 22 436 -4 q 399 98 400 48 q 319 11 359 39 q 231 -17 279 -17 q 157 -1 191 -17 q 98 48 123 15 q 60 133 74 81 q 46 254 46 184 q 71 472 46 380 q 136 626 96 565 q 227 717 176 687 q 328 747 277 747 q 376 742 353 747 q 418 722 399 736 q 454 686 438 709 q 479 629 469 663 l 504 730 l 595 730 q 552 433 570 565 q 536 323 544 377 q 523 225 529 269 q 514 154 517 182 q 510 123 510 126 q 520 94 510 102 q 543 85 530 85 l 587 85 l 576 5 q 557 -16 568 -3 q 539 -44 547 -28 q 525 -76 530 -59 q 519 -110 519 -93 q 531 -151 519 -134 q 572 -168 543 -168 l 616 -168 l 607 -239 m 265 85 q 324 107 298 85 q 369 165 350 130 q 402 245 389 201 q 424 335 416 290 q 436 420 433 380 q 440 489 440 461 q 345 646 440 646 q 279 624 307 646 q 231 568 252 603 q 198 489 211 533 q 177 401 184 446 q 166 314 169 356 q 163 243 163 273 q 265 85 163 85 z "},"ǽ":{"ha":1013,"x_min":36,"x_max":962,"o":"m 737 747 q 905 683 847 747 q 962 485 962 619 q 960 410 962 449 q 951 332 958 372 l 550 332 q 546 258 546 288 q 664 85 546 85 q 721 98 694 85 q 767 134 747 111 q 800 185 787 156 q 818 248 813 215 l 933 248 q 904 146 925 195 q 848 62 882 98 q 768 4 814 26 q 664 -17 722 -17 q 536 11 588 -17 q 456 97 484 39 q 409 50 435 71 q 354 14 383 28 q 293 -9 325 -1 q 231 -17 262 -17 q 164 -11 199 -17 q 102 14 130 -5 q 55 67 73 33 q 36 157 36 101 q 51 257 36 214 q 93 330 66 300 q 157 381 119 361 q 239 413 194 401 q 336 429 285 425 q 443 433 388 433 l 457 528 q 459 544 458 536 q 460 559 460 552 q 455 594 460 578 q 438 622 450 610 q 407 640 427 633 q 358 646 387 646 q 302 635 326 646 q 263 607 279 625 q 239 565 248 589 q 228 514 231 541 l 115 514 q 135 611 115 568 q 189 685 155 654 q 271 731 224 715 q 374 747 319 747 q 484 727 441 747 q 550 669 527 707 q 630 726 585 705 q 737 747 675 747 m 429 332 q 319 326 369 332 q 233 304 269 320 q 177 258 197 288 q 157 179 157 228 q 179 106 157 127 q 243 85 201 85 q 298 95 270 85 q 351 127 327 106 q 394 180 376 148 q 418 254 412 212 l 429 332 m 737 646 q 670 627 699 646 q 621 579 642 609 q 586 511 600 549 q 564 433 572 473 l 843 433 q 844 460 844 447 l 844 484 q 818 605 844 564 q 737 646 791 646 m 745 1000 l 595 821 l 499 821 l 618 1004 l 744 1004 l 745 1000 z "},"ć":{"ha":570,"x_min":43,"x_max":542,"o":"m 334 747 q 489 683 435 747 q 542 485 542 619 l 542 460 l 424 460 l 424 484 q 402 605 424 564 q 334 646 380 646 q 268 622 295 646 q 221 563 240 599 q 190 481 201 526 q 172 394 178 437 q 163 314 165 351 q 161 258 161 278 q 188 130 161 176 q 264 85 214 85 q 317 100 293 85 q 360 140 342 115 q 390 198 378 165 q 406 267 401 231 l 519 267 q 493 160 513 211 q 442 69 473 109 q 366 6 410 30 q 267 -17 322 -17 q 174 -1 215 -17 q 103 47 132 15 q 58 130 74 80 q 43 249 43 180 q 48 360 43 302 q 65 474 53 418 q 99 579 78 529 q 152 666 120 629 q 229 725 184 703 q 334 747 274 747 m 532 1000 l 382 821 l 286 821 l 406 1004 l 531 1004 l 532 1000 z "},"ĉ":{"ha":570,"x_min":43,"x_max":542,"o":"m 334 747 q 489 683 435 747 q 542 485 542 619 l 542 460 l 424 460 l 424 484 q 402 605 424 564 q 334 646 380 646 q 268 622 295 646 q 221 563 240 599 q 190 481 201 526 q 172 394 178 437 q 163 314 165 351 q 161 258 161 278 q 188 130 161 176 q 264 85 214 85 q 317 100 293 85 q 360 140 342 115 q 390 198 378 165 q 406 267 401 231 l 519 267 q 493 160 513 211 q 442 69 473 109 q 366 6 410 30 q 267 -17 322 -17 q 174 -1 215 -17 q 103 47 132 15 q 58 130 74 80 q 43 249 43 180 q 48 360 43 302 q 65 474 53 418 q 99 579 78 529 q 152 666 120 629 q 229 725 184 703 q 334 747 274 747 m 526 817 l 419 817 l 374 926 l 296 817 l 180 817 l 326 1004 l 435 1004 l 526 817 z "},"ċ":{"ha":570,"x_min":43,"x_max":542,"o":"m 334 747 q 489 683 435 747 q 542 485 542 619 l 542 460 l 424 460 l 424 484 q 402 605 424 564 q 334 646 380 646 q 268 622 295 646 q 221 563 240 599 q 190 481 201 526 q 172 394 178 437 q 163 314 165 351 q 161 258 161 278 q 188 130 161 176 q 264 85 214 85 q 317 100 293 85 q 360 140 342 115 q 390 198 378 165 q 406 267 401 231 l 519 267 q 493 160 513 211 q 442 69 473 109 q 366 6 410 30 q 267 -17 322 -17 q 174 -1 215 -17 q 103 47 132 15 q 58 130 74 80 q 43 249 43 180 q 48 360 43 302 q 65 474 53 418 q 99 579 78 529 q 152 666 120 629 q 229 725 184 703 q 334 747 274 747 m 427 872 l 307 872 l 325 1004 l 446 1004 l 427 872 z "},"č":{"ha":570,"x_min":43,"x_max":555,"o":"m 334 747 q 489 683 435 747 q 542 485 542 619 l 542 460 l 424 460 l 424 484 q 402 605 424 564 q 334 646 380 646 q 268 622 295 646 q 221 563 240 599 q 190 481 201 526 q 172 394 178 437 q 163 314 165 351 q 161 258 161 278 q 188 130 161 176 q 264 85 214 85 q 317 100 293 85 q 360 140 342 115 q 390 198 378 165 q 406 267 401 231 l 519 267 q 493 160 513 211 q 442 69 473 109 q 366 6 410 30 q 267 -17 322 -17 q 174 -1 215 -17 q 103 47 132 15 q 58 130 74 80 q 43 249 43 180 q 48 360 43 302 q 65 474 53 418 q 99 579 78 529 q 152 666 120 629 q 229 725 184 703 q 334 747 274 747 m 410 817 l 302 817 l 210 1004 l 321 1004 l 367 895 l 440 1004 l 555 1004 l 410 817 z "},"ď":{"ha":711,"x_min":47,"x_max":855,"o":"m 498 0 l 408 0 l 408 98 q 327 11 372 39 q 232 -17 282 -17 q 158 -1 192 -17 q 100 48 124 15 q 61 133 75 81 q 47 254 47 184 q 72 472 47 380 q 137 626 97 565 q 228 717 178 687 q 329 747 278 747 q 413 725 374 747 q 475 650 451 702 l 525 1004 l 639 1004 l 498 0 m 346 646 q 281 624 309 646 q 233 568 253 603 q 199 489 212 533 q 178 401 186 446 q 167 314 170 356 q 164 243 164 273 q 267 85 164 85 q 330 107 302 85 q 377 165 357 130 q 411 245 397 201 q 432 335 425 290 q 444 420 440 380 q 447 489 447 461 q 346 646 447 646 m 836 815 l 747 631 l 671 631 l 742 803 l 696 803 l 717 953 l 855 953 l 836 815 z "},"đ":{"ha":629,"x_min":47,"x_max":703,"o":"m 612 810 l 498 0 l 408 0 l 408 98 q 327 11 372 39 q 232 -17 282 -17 q 158 -1 192 -17 q 100 48 124 15 q 61 133 75 81 q 47 254 47 184 q 72 472 47 380 q 137 626 97 565 q 228 717 178 687 q 329 747 278 747 q 413 725 374 747 q 475 650 451 702 l 498 810 l 338 810 l 352 904 l 511 904 l 525 1004 l 639 1004 l 625 904 l 703 904 l 688 810 l 612 810 m 267 85 q 330 107 302 85 q 377 165 357 130 q 411 245 397 201 q 432 335 425 290 q 444 420 440 380 q 447 489 447 461 q 346 646 447 646 q 281 624 309 646 q 233 568 253 603 q 199 489 212 533 q 178 401 186 446 q 167 314 170 356 q 164 243 164 273 q 267 85 164 85 z "},"ē":{"ha":633,"x_min":49,"x_max":583,"o":"m 358 747 q 525 683 467 747 q 583 485 583 619 q 581 410 583 449 q 572 332 578 372 l 171 332 q 167 258 167 288 q 285 85 167 85 q 342 98 315 85 q 388 134 368 111 q 421 185 408 156 q 439 248 434 215 l 554 248 q 525 146 546 195 q 469 62 503 98 q 389 4 435 26 q 285 -17 343 -17 q 185 -1 229 -17 q 111 47 141 15 q 65 130 81 80 q 49 249 49 180 q 54 358 49 301 q 73 471 60 415 q 109 576 86 526 q 166 665 132 627 q 248 725 200 703 q 358 747 295 747 m 358 646 q 291 627 320 646 q 242 579 262 609 q 207 511 221 549 q 184 433 193 473 l 464 433 q 465 460 465 447 l 465 484 q 438 605 465 564 q 358 646 412 646 m 551 832 l 204 832 l 219 932 l 566 932 l 551 832 z "},"ĕ":{"ha":633,"x_min":49,"x_max":583,"o":"m 358 747 q 525 683 467 747 q 583 485 583 619 q 581 410 583 449 q 572 332 578 372 l 171 332 q 167 258 167 288 q 285 85 167 85 q 342 98 315 85 q 388 134 368 111 q 421 185 408 156 q 439 248 434 215 l 554 248 q 525 146 546 195 q 469 62 503 98 q 389 4 435 26 q 285 -17 343 -17 q 185 -1 229 -17 q 111 47 141 15 q 65 130 81 80 q 49 249 49 180 q 54 358 49 301 q 73 471 60 415 q 109 576 86 526 q 166 665 132 627 q 248 725 200 703 q 358 747 295 747 m 358 646 q 291 627 320 646 q 242 579 262 609 q 207 511 221 549 q 184 433 193 473 l 464 433 q 465 460 465 447 l 465 484 q 438 605 465 564 q 358 646 412 646 m 579 1004 q 561 957 576 981 q 523 913 547 933 q 466 882 498 894 q 395 869 434 869 q 327 880 357 869 q 277 908 297 890 q 245 947 256 925 q 235 991 235 969 l 235 998 q 236 1004 235 1001 l 325 1004 q 331 989 326 997 q 346 974 336 981 q 370 963 356 967 q 401 958 384 958 q 434 963 419 958 q 461 974 450 967 q 480 989 473 981 q 490 1004 488 997 l 579 1004 z "},"ė":{"ha":633,"x_min":49,"x_max":583,"o":"m 358 747 q 525 683 467 747 q 583 485 583 619 q 581 410 583 449 q 572 332 578 372 l 171 332 q 167 258 167 288 q 285 85 167 85 q 342 98 315 85 q 388 134 368 111 q 421 185 408 156 q 439 248 434 215 l 554 248 q 525 146 546 195 q 469 62 503 98 q 389 4 435 26 q 285 -17 343 -17 q 185 -1 229 -17 q 111 47 141 15 q 65 130 81 80 q 49 249 49 180 q 54 358 49 301 q 73 471 60 415 q 109 576 86 526 q 166 665 132 627 q 248 725 200 703 q 358 747 295 747 m 358 646 q 291 627 320 646 q 242 579 262 609 q 207 511 221 549 q 184 433 193 473 l 464 433 q 465 460 465 447 l 465 484 q 438 605 465 564 q 358 646 412 646 m 450 872 l 329 872 l 347 1004 l 468 1004 l 450 872 z "},"ę":{"ha":633,"x_min":49,"x_max":583,"o":"m 171 332 q 167 258 167 288 q 285 85 167 85 q 342 98 315 85 q 388 134 368 111 q 421 185 408 156 q 439 248 434 215 l 554 248 q 535 172 548 208 q 502 104 522 135 q 454 47 481 73 q 394 7 427 22 q 375 -15 385 -2 q 356 -42 365 -27 q 342 -75 348 -58 q 337 -109 337 -92 q 349 -150 337 -132 q 390 -167 361 -167 l 435 -167 l 425 -237 q 380 -252 401 -247 q 337 -257 358 -257 q 295 -252 315 -257 q 259 -234 275 -247 q 233 -200 243 -221 q 223 -147 223 -179 q 239 -73 223 -104 q 279 -17 256 -41 q 181 0 224 -16 q 109 49 138 16 q 64 132 79 82 q 49 249 49 181 q 54 358 49 301 q 73 471 60 415 q 109 576 86 526 q 166 665 132 627 q 248 725 200 703 q 358 747 295 747 q 525 683 467 747 q 583 485 583 619 q 581 410 583 449 q 572 332 578 372 l 171 332 m 464 433 q 465 460 465 447 l 465 484 q 438 605 465 564 q 358 646 412 646 q 291 627 320 646 q 242 579 262 609 q 207 511 221 549 q 184 433 193 473 l 464 433 z "},"ě":{"ha":633,"x_min":49,"x_max":583,"o":"m 358 747 q 525 683 467 747 q 583 485 583 619 q 581 410 583 449 q 572 332 578 372 l 171 332 q 167 258 167 288 q 285 85 167 85 q 342 98 315 85 q 388 134 368 111 q 421 185 408 156 q 439 248 434 215 l 554 248 q 525 146 546 195 q 469 62 503 98 q 389 4 435 26 q 285 -17 343 -17 q 185 -1 229 -17 q 111 47 141 15 q 65 130 81 80 q 49 249 49 180 q 54 358 49 301 q 73 471 60 415 q 109 576 86 526 q 166 665 132 627 q 248 725 200 703 q 358 747 295 747 m 358 646 q 291 627 320 646 q 242 579 262 609 q 207 511 221 549 q 184 433 193 473 l 464 433 q 465 460 465 447 l 465 484 q 438 605 465 564 q 358 646 412 646 m 432 817 l 324 817 l 233 1004 l 343 1004 l 389 895 l 463 1004 l 578 1004 l 432 817 z "},"ĝ":{"ha":633,"x_min":9,"x_max":603,"o":"m 546 817 l 439 817 l 393 926 l 315 817 l 200 817 l 346 1004 l 454 1004 l 546 817 m 347 646 q 281 625 309 646 q 234 569 254 604 q 201 492 214 535 q 181 406 189 450 q 171 322 174 362 q 168 253 168 281 q 195 146 168 180 q 273 113 222 113 q 334 133 307 113 q 380 187 360 154 q 413 262 399 220 q 435 346 427 304 q 447 425 443 387 q 450 489 450 463 q 347 646 448 646 m 407 126 q 329 39 369 67 q 237 11 289 11 q 150 33 186 11 q 93 91 115 55 q 61 172 71 127 q 52 264 52 218 q 76 480 52 389 q 141 631 101 571 q 231 719 180 690 q 332 747 281 747 q 382 742 358 747 q 426 722 406 736 q 462 686 446 709 q 489 629 478 663 l 513 730 l 603 730 l 510 68 q 475 -78 498 -18 q 416 -178 452 -139 q 335 -235 381 -217 q 229 -253 288 -253 q 132 -235 173 -253 q 63 -187 90 -217 q 23 -117 36 -157 q 9 -33 9 -77 l 123 -33 q 233 -153 123 -153 q 339 -107 301 -153 q 392 35 376 -62 l 407 126 z "},"ğ":{"ha":633,"x_min":9,"x_max":603,"o":"m 576 1004 q 558 957 573 981 q 520 913 544 933 q 464 882 496 894 q 393 869 432 869 q 325 880 355 869 q 274 908 294 890 q 243 947 254 925 q 232 991 232 969 q 232 998 232 995 q 233 1004 232 1001 l 322 1004 q 328 989 323 997 q 343 974 334 981 q 367 963 353 967 q 399 958 381 958 q 432 963 416 958 q 459 974 447 967 q 478 989 471 981 q 488 1004 486 997 l 576 1004 m 347 646 q 281 625 309 646 q 234 569 254 604 q 201 492 214 535 q 181 406 189 450 q 171 322 174 362 q 168 253 168 281 q 195 146 168 180 q 273 113 222 113 q 334 133 307 113 q 380 187 360 154 q 413 262 399 220 q 435 346 427 304 q 447 425 443 387 q 450 489 450 463 q 347 646 448 646 m 407 126 q 329 39 369 67 q 237 11 289 11 q 150 33 186 11 q 93 91 115 55 q 61 172 71 127 q 52 264 52 218 q 76 480 52 389 q 141 631 101 571 q 231 719 180 690 q 332 747 281 747 q 382 742 358 747 q 426 722 406 736 q 462 686 446 709 q 489 629 478 663 l 513 730 l 603 730 l 510 68 q 475 -78 498 -18 q 416 -178 452 -139 q 335 -235 381 -217 q 229 -253 288 -253 q 132 -235 173 -253 q 63 -187 90 -217 q 23 -117 36 -157 q 9 -33 9 -77 l 123 -33 q 233 -153 123 -153 q 339 -107 301 -153 q 392 35 376 -62 l 407 126 z "},"ġ":{"ha":633,"x_min":9,"x_max":603,"o":"m 447 872 l 326 872 l 345 1004 l 465 1004 l 447 872 m 347 646 q 281 625 309 646 q 234 569 254 604 q 201 492 214 535 q 181 406 189 450 q 171 322 174 362 q 168 253 168 281 q 195 146 168 180 q 273 113 222 113 q 334 133 307 113 q 380 187 360 154 q 413 262 399 220 q 435 346 427 304 q 447 425 443 387 q 450 489 450 463 q 347 646 448 646 m 407 126 q 329 39 369 67 q 237 11 289 11 q 150 33 186 11 q 93 91 115 55 q 61 172 71 127 q 52 264 52 218 q 76 480 52 389 q 141 631 101 571 q 231 719 180 690 q 332 747 281 747 q 382 742 358 747 q 426 722 406 736 q 462 686 446 709 q 489 629 478 663 l 513 730 l 603 730 l 510 68 q 475 -78 498 -18 q 416 -178 452 -139 q 335 -235 381 -217 q 229 -253 288 -253 q 132 -235 173 -253 q 63 -187 90 -217 q 23 -117 36 -157 q 9 -33 9 -77 l 123 -33 q 233 -153 123 -153 q 339 -107 301 -153 q 392 35 376 -62 l 407 126 z "},"ģ":{"ha":633,"x_min":9,"x_max":603,"o":"m 335 943 l 383 1048 l 452 1048 l 407 953 l 454 953 l 436 827 l 318 827 l 335 943 m 347 646 q 281 625 309 646 q 234 569 254 604 q 201 492 214 535 q 181 406 189 450 q 171 322 174 362 q 168 253 168 281 q 195 146 168 180 q 273 113 222 113 q 334 133 307 113 q 380 187 360 154 q 413 262 399 220 q 435 346 427 304 q 447 425 443 387 q 450 489 450 463 q 347 646 448 646 m 407 126 q 329 39 369 67 q 237 11 289 11 q 150 33 186 11 q 93 91 115 55 q 61 172 71 127 q 52 264 52 218 q 76 480 52 389 q 141 631 101 571 q 231 719 180 690 q 332 747 281 747 q 382 742 358 747 q 426 722 406 736 q 462 686 446 709 q 489 629 478 663 l 513 730 l 603 730 l 510 68 q 475 -78 498 -18 q 416 -178 452 -139 q 335 -235 381 -217 q 229 -253 288 -253 q 132 -235 173 -253 q 63 -187 90 -217 q 23 -117 36 -157 q 9 -33 9 -77 l 123 -33 q 233 -153 123 -153 q 339 -107 301 -153 q 392 35 376 -62 l 407 126 z "},"ĩ":{"ha":317,"x_min":23,"x_max":448,"o":"m 165 0 l 53 0 l 154 730 l 268 730 l 165 0 m 448 1004 q 435 955 445 980 q 408 908 425 929 q 369 873 392 887 q 315 860 345 860 q 272 867 292 860 q 233 881 252 873 q 196 896 214 889 q 157 903 178 903 q 123 893 138 903 q 102 860 109 884 l 23 860 q 37 909 27 884 q 62 956 46 935 q 102 991 79 977 q 155 1004 125 1004 q 198 998 178 1004 q 237 983 218 991 q 274 968 256 975 q 314 961 293 961 q 347 971 332 961 q 368 1004 361 981 l 448 1004 z "},"ī":{"ha":317,"x_min":46,"x_max":408,"o":"m 165 0 l 53 0 l 154 730 l 268 730 l 165 0 m 393 832 l 46 832 l 61 932 l 408 932 l 393 832 z "},"ĭ":{"ha":317,"x_min":53,"x_max":421,"o":"m 165 0 l 53 0 l 154 730 l 268 730 l 165 0 m 421 1004 q 403 957 418 981 q 365 913 389 933 q 308 882 340 894 q 237 869 276 869 q 169 880 199 869 q 119 908 139 890 q 87 947 98 925 q 77 991 77 969 l 77 998 q 78 1004 77 1001 l 167 1004 q 173 989 168 997 q 188 974 178 981 q 212 963 198 967 q 243 958 226 958 q 276 963 261 958 q 303 974 292 967 q 322 989 315 981 q 332 1004 330 997 l 421 1004 z "},"į":{"ha":253,"x_min":-5,"x_max":310,"o":"m 292 872 l 171 872 l 189 1004 l 310 1004 l 292 872 m 165 0 q 146 -21 157 -9 q 128 -49 136 -34 q 114 -81 119 -64 q 109 -115 109 -98 q 120 -156 109 -139 q 161 -174 132 -174 l 206 -174 l 196 -244 q 151 -259 173 -254 q 109 -264 130 -264 q 66 -259 87 -264 q 30 -241 46 -254 q 4 -207 14 -228 q -5 -154 -5 -186 q 1 -104 -5 -127 q 20 -63 8 -82 q 45 -29 31 -45 q 75 0 60 -14 l 53 0 l 154 730 l 268 730 l 165 0 z "},"ĵ":{"ha":253,"x_min":-138,"x_max":371,"o":"m 122 -85 q 106 -146 117 -116 q 75 -200 95 -176 q 26 -238 56 -224 q -45 -253 -3 -253 q -95 -248 -70 -253 q -138 -236 -121 -242 l -126 -157 l -65 -157 q 7 -90 1 -157 l 122 730 l 236 730 l 122 -85 m 371 817 l 264 817 l 218 926 l 140 817 l 25 817 l 171 1004 l 279 1004 l 371 817 z "},"ķ":{"ha":570,"x_min":26,"x_max":606,"o":"m 196 406 l 469 730 l 606 730 l 347 431 l 514 0 l 389 0 l 267 336 l 176 260 l 140 0 l 26 0 l 167 1004 l 281 1004 l 196 406 m 284 -200 l 235 -306 l 168 -306 l 212 -210 l 165 -210 l 183 -83 l 301 -83 l 284 -200 z "},"ĸ":{"ha":570,"x_min":26,"x_max":606,"o":"m 241 730 l 196 406 l 469 730 l 606 730 l 347 431 l 514 0 l 389 0 l 267 336 l 176 260 l 140 0 l 26 0 l 127 730 l 241 730 z "},"ĺ":{"ha":253,"x_min":22,"x_max":399,"o":"m 135 0 l 22 0 l 161 1004 l 275 1004 l 135 0 m 399 1223 l 249 1043 l 153 1043 l 272 1227 l 397 1227 l 399 1223 z "},"ļ":{"ha":253,"x_min":-11,"x_max":275,"o":"m 135 0 l 22 0 l 161 1004 l 275 1004 l 135 0 m 109 -200 l 60 -306 l -7 -306 l 37 -210 l -11 -210 l 7 -83 l 125 -83 l 109 -200 z "},"ľ":{"ha":321,"x_min":22,"x_max":446,"o":"m 135 0 l 22 0 l 161 1004 l 275 1004 l 135 0 m 427 815 l 338 631 l 262 631 l 333 803 l 287 803 l 308 953 l 446 953 l 427 815 z "},"ŀ":{"ha":374,"x_min":22,"x_max":419,"o":"m 135 0 l 22 0 l 161 1004 l 275 1004 l 135 0 m 398 400 l 258 400 l 279 554 l 419 554 l 398 400 z "},"ł":{"ha":253,"x_min":-43,"x_max":349,"o":"m 197 443 l 135 0 l 22 0 l 70 342 l -43 254 l -26 367 l 85 456 l 161 1004 l 275 1004 l 213 556 l 349 665 l 332 549 l 197 443 z "},"ń":{"ha":633,"x_min":31,"x_max":575,"o":"m 416 747 q 492 733 462 747 q 541 696 523 720 q 567 644 559 673 q 575 583 575 614 q 572 546 575 575 q 563 474 568 516 q 550 380 557 431 q 536 275 543 328 q 497 0 518 152 l 383 0 q 420 262 404 144 q 434 361 427 312 q 447 451 441 410 q 455 520 452 492 q 458 557 458 549 q 437 625 458 604 q 375 646 416 646 q 312 628 340 646 q 261 579 283 611 q 224 505 239 548 q 201 408 209 461 l 144 0 l 31 0 l 134 730 l 222 730 l 222 623 q 245 660 230 638 q 283 701 260 681 q 339 734 307 720 q 416 747 372 747 m 548 1000 l 398 821 l 302 821 l 421 1004 l 547 1004 l 548 1000 z "},"ņ":{"ha":633,"x_min":31,"x_max":575,"o":"m 416 747 q 492 733 462 747 q 541 696 523 720 q 567 644 559 673 q 575 583 575 614 q 572 546 575 575 q 563 474 568 516 q 550 380 557 431 q 536 275 543 328 q 497 0 518 152 l 383 0 q 420 262 404 144 q 434 361 427 312 q 447 451 441 410 q 455 520 452 492 q 458 557 458 549 q 437 625 458 604 q 375 646 416 646 q 312 628 340 646 q 261 579 283 611 q 224 505 239 548 q 201 408 209 461 l 144 0 l 31 0 l 134 730 l 222 730 l 222 623 q 245 660 230 638 q 283 701 260 681 q 339 734 307 720 q 416 747 372 747 m 289 -200 l 240 -306 l 173 -306 l 217 -210 l 170 -210 l 188 -83 l 306 -83 l 289 -200 z "},"ň":{"ha":633,"x_min":31,"x_max":575,"o":"m 416 747 q 492 733 462 747 q 541 696 523 720 q 567 644 559 673 q 575 583 575 614 q 572 546 575 575 q 563 474 568 516 q 550 380 557 431 q 536 275 543 328 q 497 0 518 152 l 383 0 q 420 262 404 144 q 434 361 427 312 q 447 451 441 410 q 455 520 452 492 q 458 557 458 549 q 437 625 458 604 q 375 646 416 646 q 312 628 340 646 q 261 579 283 611 q 224 505 239 548 q 201 408 209 461 l 144 0 l 31 0 l 134 730 l 222 730 l 222 623 q 245 660 230 638 q 283 701 260 681 q 339 734 307 720 q 416 747 372 747 m 425 817 l 317 817 l 226 1004 l 336 1004 l 382 895 l 456 1004 l 571 1004 l 425 817 z "},"ŉ":{"ha":796,"x_min":128,"x_max":738,"o":"m 248 834 l 199 728 l 132 728 l 176 825 l 128 825 l 146 951 l 264 951 l 248 834 m 579 747 q 655 733 625 747 q 704 696 686 720 q 730 644 722 673 q 738 583 738 614 q 734 546 738 575 q 726 474 731 516 q 713 380 720 431 q 699 275 706 328 q 660 0 681 152 l 546 0 q 583 262 566 144 q 597 361 590 312 q 609 451 604 410 q 618 520 614 492 q 621 557 621 549 q 600 625 621 604 q 538 646 578 646 q 474 628 503 646 q 424 579 446 611 q 387 505 401 548 q 364 408 372 461 l 307 0 l 193 0 l 296 730 l 385 730 l 385 623 q 408 660 393 638 q 446 701 422 681 q 502 734 469 720 q 579 747 535 747 z "},"ŋ":{"ha":633,"x_min":31,"x_max":575,"o":"m 416 747 q 492 733 462 747 q 541 696 523 720 q 567 644 559 673 q 575 583 575 614 q 571 543 575 576 q 561 462 568 511 q 547 355 555 414 q 530 235 538 296 q 486 -85 511 92 q 469 -149 480 -118 q 438 -202 458 -179 q 390 -239 418 -225 q 319 -253 361 -253 q 269 -248 294 -253 q 227 -236 243 -242 l 237 -157 l 298 -157 q 371 -90 365 -157 q 414 227 395 87 q 430 345 422 287 q 444 448 437 402 q 453 522 450 493 q 457 551 457 550 q 375 646 457 646 q 312 628 340 646 q 261 579 283 611 q 224 505 239 548 q 201 408 209 461 l 144 0 l 31 0 l 134 730 l 222 730 l 222 623 q 245 660 230 638 q 283 701 260 681 q 339 734 307 720 q 416 747 372 747 z "},"ō":{"ha":633,"x_min":46,"x_max":586,"o":"m 355 747 q 527 683 468 747 q 586 485 586 619 q 581 378 586 435 q 562 266 575 321 q 526 159 549 210 q 469 69 503 108 q 387 6 435 30 q 277 -17 340 -17 q 105 46 163 -17 q 46 243 46 109 q 52 350 46 293 q 70 463 57 406 q 106 570 83 519 q 163 661 129 622 q 245 724 197 701 q 355 747 292 747 m 355 646 q 283 624 313 646 q 231 567 252 602 q 197 488 210 532 q 176 401 184 444 q 166 320 169 358 q 164 258 164 282 q 191 127 164 170 q 277 85 217 85 q 349 107 319 85 q 401 166 380 130 q 436 247 422 202 q 456 336 449 292 q 466 419 463 380 q 468 484 468 458 q 440 605 468 564 q 355 646 412 646 m 550 832 l 203 832 l 218 932 l 565 932 l 550 832 z "},"ŏ":{"ha":633,"x_min":46,"x_max":586,"o":"m 355 747 q 527 683 468 747 q 586 485 586 619 q 581 378 586 435 q 562 266 575 321 q 526 159 549 210 q 469 69 503 108 q 387 6 435 30 q 277 -17 340 -17 q 105 46 163 -17 q 46 243 46 109 q 52 350 46 293 q 70 463 57 406 q 106 570 83 519 q 163 661 129 622 q 245 724 197 701 q 355 747 292 747 m 355 646 q 283 624 313 646 q 231 567 252 602 q 197 488 210 532 q 176 401 184 444 q 166 320 169 358 q 164 258 164 282 q 191 127 164 170 q 277 85 217 85 q 349 107 319 85 q 401 166 380 130 q 436 247 422 202 q 456 336 449 292 q 466 419 463 380 q 468 484 468 458 q 440 605 468 564 q 355 646 412 646 m 578 1004 q 560 957 574 981 q 521 913 545 933 q 465 882 497 894 q 394 869 433 869 q 326 880 355 869 q 275 908 296 890 q 244 947 255 925 q 233 991 233 969 l 233 998 q 235 1004 233 1001 l 323 1004 q 330 989 324 997 q 345 974 335 981 q 369 963 355 967 q 400 958 382 958 q 433 963 418 958 q 460 974 448 967 q 479 989 471 981 q 489 1004 487 997 l 578 1004 z "},"ő":{"ha":633,"x_min":46,"x_max":592,"o":"m 355 747 q 527 683 468 747 q 586 485 586 619 q 581 378 586 435 q 562 266 575 321 q 526 159 549 210 q 469 69 503 108 q 387 6 435 30 q 277 -17 340 -17 q 105 46 163 -17 q 46 243 46 109 q 52 350 46 293 q 70 463 57 406 q 106 570 83 519 q 163 661 129 622 q 245 724 197 701 q 355 747 292 747 m 355 646 q 283 624 313 646 q 231 567 252 602 q 197 488 210 532 q 176 401 184 444 q 166 320 169 358 q 164 258 164 282 q 191 127 164 170 q 277 85 217 85 q 349 107 319 85 q 401 166 380 130 q 436 247 422 202 q 456 336 449 292 q 466 419 463 380 q 468 484 468 458 q 440 605 468 564 q 355 646 412 646 m 592 1000 l 475 821 l 379 821 l 465 1004 l 591 1004 l 592 1000 m 412 1000 l 295 821 l 199 821 l 285 1004 l 410 1004 l 412 1000 z "},"ǿ":{"ha":696,"x_min":78,"x_max":618,"o":"m 562 677 q 618 485 618 612 q 612 378 618 435 q 594 266 607 321 q 558 159 581 210 q 501 69 535 108 q 419 6 467 30 q 309 -17 372 -17 q 184 9 235 -17 l 154 -45 l 78 -45 l 132 52 q 78 243 78 113 q 83 350 78 293 q 102 463 89 406 q 138 570 115 519 q 195 661 161 622 q 277 724 229 701 q 387 747 324 747 q 454 740 424 747 q 510 720 484 733 l 542 775 l 618 775 l 562 677 m 240 107 q 309 85 264 85 q 381 107 351 85 q 434 166 412 130 q 468 247 455 202 q 488 336 481 292 q 497 419 495 380 q 500 484 500 458 q 498 521 500 503 q 493 554 496 538 l 240 107 m 387 646 q 315 624 345 646 q 263 567 284 602 q 229 488 242 532 q 208 401 216 444 q 198 320 201 358 q 196 258 196 282 q 198 214 196 235 q 203 176 199 194 l 456 623 q 387 646 427 646 m 553 1000 l 404 821 l 307 821 l 427 1004 l 552 1004 l 553 1000 z "},"ũ":{"ha":633,"x_min":58,"x_max":605,"o":"m 500 0 l 411 0 l 411 107 q 388 70 403 92 q 350 30 373 49 q 293 -3 326 10 q 216 -17 260 -17 q 141 -3 171 -17 q 92 34 111 11 q 66 86 74 57 q 58 147 58 116 q 62 185 58 155 q 71 257 65 214 q 83 351 76 300 q 97 456 90 403 q 136 730 115 579 l 250 730 q 212 469 229 586 q 198 369 205 418 q 186 279 192 320 q 178 210 181 239 q 175 174 175 182 q 196 106 175 127 q 258 85 218 85 q 322 102 293 85 q 373 151 351 119 q 410 226 395 182 q 432 322 425 269 l 489 730 l 603 730 l 500 0 m 605 1004 q 591 955 602 980 q 565 908 581 929 q 525 873 549 887 q 472 860 502 860 q 428 867 448 860 q 390 881 408 873 q 353 896 371 889 q 313 903 334 903 q 280 893 294 903 q 259 860 266 884 l 180 860 q 193 909 184 884 q 219 956 203 935 q 258 991 235 977 q 312 1004 281 1004 q 355 998 335 1004 q 394 983 375 991 q 431 968 412 975 q 471 961 450 961 q 504 971 489 961 q 524 1004 518 981 l 605 1004 z "},"ū":{"ha":633,"x_min":58,"x_max":603,"o":"m 500 0 l 411 0 l 411 107 q 388 70 403 92 q 350 30 373 49 q 293 -3 326 10 q 216 -17 260 -17 q 141 -3 171 -17 q 92 34 111 11 q 66 86 74 57 q 58 147 58 116 q 62 185 58 155 q 71 257 65 214 q 83 351 76 300 q 97 456 90 403 q 136 730 115 579 l 250 730 q 212 469 229 586 q 198 369 205 418 q 186 279 192 320 q 178 210 181 239 q 175 174 175 182 q 196 106 175 127 q 258 85 218 85 q 322 102 293 85 q 373 151 351 119 q 410 226 395 182 q 432 322 425 269 l 489 730 l 603 730 l 500 0 m 550 832 l 203 832 l 218 932 l 565 932 l 550 832 z "},"ŭ":{"ha":633,"x_min":58,"x_max":603,"o":"m 500 0 l 411 0 l 411 107 q 388 70 403 92 q 350 30 373 49 q 293 -3 326 10 q 216 -17 260 -17 q 141 -3 171 -17 q 92 34 111 11 q 66 86 74 57 q 58 147 58 116 q 62 185 58 155 q 71 257 65 214 q 83 351 76 300 q 97 456 90 403 q 136 730 115 579 l 250 730 q 212 469 229 586 q 198 369 205 418 q 186 279 192 320 q 178 210 181 239 q 175 174 175 182 q 196 106 175 127 q 258 85 218 85 q 322 102 293 85 q 373 151 351 119 q 410 226 395 182 q 432 322 425 269 l 489 730 l 603 730 l 500 0 m 578 1004 q 560 957 574 981 q 521 913 545 933 q 465 882 497 894 q 394 869 433 869 q 326 880 355 869 q 275 908 296 890 q 244 947 255 925 q 233 991 233 969 l 233 998 q 235 1004 233 1001 l 323 1004 q 330 989 324 997 q 345 974 335 981 q 369 963 355 967 q 400 958 382 958 q 433 963 418 958 q 460 974 448 967 q 479 989 471 981 q 489 1004 487 997 l 578 1004 z "},"ů":{"ha":633,"x_min":58,"x_max":603,"o":"m 500 0 l 411 0 l 411 107 q 388 70 403 92 q 350 30 373 49 q 293 -3 326 10 q 216 -17 260 -17 q 141 -3 171 -17 q 92 34 111 11 q 66 86 74 57 q 58 147 58 116 q 62 185 58 155 q 71 257 65 214 q 83 351 76 300 q 97 456 90 403 q 136 730 115 579 l 250 730 q 212 469 229 586 q 198 369 205 418 q 186 279 192 320 q 178 210 181 239 q 175 174 175 182 q 196 106 175 127 q 258 85 218 85 q 322 102 293 85 q 373 151 351 119 q 410 226 395 182 q 432 322 425 269 l 489 730 l 603 730 l 500 0 m 399 1023 q 446 1015 425 1023 q 484 990 468 1006 q 509 953 500 975 q 518 907 518 932 q 507 853 518 878 q 477 810 496 829 q 433 782 458 792 q 381 771 408 771 q 333 780 355 771 q 295 804 311 788 q 270 841 279 819 q 261 888 261 862 q 273 943 261 918 q 303 986 284 968 q 348 1014 323 1004 q 399 1023 372 1023 m 395 968 q 367 962 380 968 q 344 946 353 956 q 329 922 334 936 q 323 892 323 908 q 328 867 323 879 q 340 846 332 855 q 360 832 349 838 q 385 827 372 827 q 413 832 399 827 q 436 848 426 838 q 451 872 446 859 q 457 903 457 886 q 452 927 457 916 q 439 948 448 939 q 420 962 431 957 q 395 968 408 968 z "},"ű":{"ha":633,"x_min":58,"x_max":603,"o":"m 500 0 l 411 0 l 411 107 q 388 70 403 92 q 350 30 373 49 q 293 -3 326 10 q 216 -17 260 -17 q 141 -3 171 -17 q 92 34 111 11 q 66 86 74 57 q 58 147 58 116 q 62 185 58 155 q 71 257 65 214 q 83 351 76 300 q 97 456 90 403 q 136 730 115 579 l 250 730 q 212 469 229 586 q 198 369 205 418 q 186 279 192 320 q 178 210 181 239 q 175 174 175 182 q 196 106 175 127 q 258 85 218 85 q 322 102 293 85 q 373 151 351 119 q 410 226 395 182 q 432 322 425 269 l 489 730 l 603 730 l 500 0 m 592 1000 l 475 821 l 379 821 l 465 1004 l 591 1004 l 592 1000 m 412 1000 l 295 821 l 199 821 l 285 1004 l 410 1004 l 412 1000 z "},"ų":{"ha":633,"x_min":58,"x_max":603,"o":"m 500 0 q 481 -21 491 -9 q 462 -49 471 -34 q 448 -81 454 -64 q 443 -115 443 -98 q 455 -156 443 -139 q 496 -174 467 -174 l 541 -174 l 530 -244 q 486 -259 507 -254 q 443 -264 464 -264 q 401 -259 421 -264 q 365 -241 380 -254 q 339 -207 349 -228 q 329 -154 329 -186 q 336 -104 329 -127 q 355 -63 343 -81 q 381 -28 366 -44 q 411 1 395 -13 l 411 107 q 388 70 403 92 q 350 30 373 49 q 293 -3 326 10 q 216 -17 260 -17 q 141 -3 171 -17 q 92 34 111 11 q 66 86 74 57 q 58 147 58 116 q 62 185 58 155 q 71 257 65 214 q 83 351 76 300 q 97 456 90 403 q 136 730 115 579 l 250 730 q 212 469 229 586 q 198 369 205 418 q 186 279 192 320 q 178 210 181 239 q 175 174 175 182 q 196 106 175 127 q 258 85 218 85 q 322 102 293 85 q 373 151 351 119 q 410 226 395 182 q 432 322 425 269 l 489 730 l 603 730 l 500 0 z "},"ŕ":{"ha":379,"x_min":22,"x_max":412,"o":"m 359 747 q 380 745 371 747 q 397 741 390 743 q 412 736 406 739 l 396 618 l 358 618 q 305 605 331 618 q 257 568 279 593 q 219 507 235 544 q 196 422 203 471 l 136 0 l 22 0 l 125 730 l 214 730 l 214 614 q 236 658 224 635 q 266 701 248 682 q 306 734 283 721 q 359 747 328 747 m 357 1000 l 208 821 l 111 821 l 231 1004 l 356 1004 l 357 1000 z "},"ŗ":{"ha":379,"x_min":-9,"x_max":412,"o":"m 359 747 q 380 745 371 747 q 397 741 390 743 q 412 736 406 739 l 396 618 l 358 618 q 305 605 331 618 q 257 568 279 593 q 219 507 235 544 q 196 422 203 471 l 136 0 l 22 0 l 125 730 l 214 730 l 214 614 q 236 658 224 635 q 266 701 248 682 q 306 734 283 721 q 359 747 328 747 m 111 -200 l 62 -306 l -5 -306 l 39 -210 l -9 -210 l 9 -83 l 127 -83 l 111 -200 z "},"ř":{"ha":379,"x_min":22,"x_max":412,"o":"m 359 747 q 380 745 371 747 q 397 741 390 743 q 412 736 406 739 l 396 618 l 358 618 q 305 605 331 618 q 257 568 279 593 q 219 507 235 544 q 196 422 203 471 l 136 0 l 22 0 l 125 730 l 214 730 l 214 614 q 236 658 224 635 q 266 701 248 682 q 306 734 283 721 q 359 747 328 747 m 235 817 l 127 817 l 35 1004 l 146 1004 l 192 895 l 265 1004 l 380 1004 l 235 817 z "},"ś":{"ha":570,"x_min":29,"x_max":530,"o":"m 322 747 q 417 728 378 747 q 482 677 457 709 q 519 604 507 645 q 530 518 530 562 l 412 518 q 404 580 412 555 q 380 620 395 605 q 347 641 366 635 q 310 647 329 647 q 278 641 294 647 q 247 624 261 635 q 224 596 233 613 q 215 558 215 580 q 236 491 215 517 q 287 445 256 465 q 354 408 318 426 q 421 365 390 390 q 472 302 452 340 q 493 205 493 264 q 476 111 493 153 q 429 41 460 70 q 355 -2 399 13 q 258 -17 312 -17 q 169 -1 211 -17 q 96 44 127 15 q 47 115 65 73 q 29 208 29 157 q 30 230 29 219 q 32 253 30 241 l 150 253 q 146 208 146 229 q 156 152 146 176 q 182 114 165 129 q 222 91 199 98 q 269 83 244 83 q 313 92 294 83 q 346 114 332 100 q 368 147 360 128 q 375 187 375 166 q 363 240 375 218 q 332 281 351 263 q 287 314 312 299 q 236 344 262 329 q 185 377 210 359 q 140 417 160 395 q 109 471 121 440 q 97 542 97 501 q 111 623 97 585 q 154 688 125 660 q 224 731 182 715 q 322 747 267 747 m 519 1000 l 370 821 l 273 821 l 393 1004 l 518 1004 l 519 1000 z "},"ŝ":{"ha":570,"x_min":29,"x_max":530,"o":"m 322 747 q 417 728 378 747 q 482 677 457 709 q 519 604 507 645 q 530 518 530 562 l 412 518 q 404 580 412 555 q 380 620 395 605 q 347 641 366 635 q 310 647 329 647 q 278 641 294 647 q 247 624 261 635 q 224 596 233 613 q 215 558 215 580 q 236 491 215 517 q 287 445 256 465 q 354 408 318 426 q 421 365 390 390 q 472 302 452 340 q 493 205 493 264 q 476 111 493 153 q 429 41 460 70 q 355 -2 399 13 q 258 -17 312 -17 q 169 -1 211 -17 q 96 44 127 15 q 47 115 65 73 q 29 208 29 157 q 30 230 29 219 q 32 253 30 241 l 150 253 q 146 208 146 229 q 156 152 146 176 q 182 114 165 129 q 222 91 199 98 q 269 83 244 83 q 313 92 294 83 q 346 114 332 100 q 368 147 360 128 q 375 187 375 166 q 363 240 375 218 q 332 281 351 263 q 287 314 312 299 q 236 344 262 329 q 185 377 210 359 q 140 417 160 395 q 109 471 121 440 q 97 542 97 501 q 111 623 97 585 q 154 688 125 660 q 224 731 182 715 q 322 747 267 747 m 513 817 l 406 817 l 361 926 l 283 817 l 168 817 l 313 1004 l 422 1004 l 513 817 z "},"ş":{"ha":570,"x_min":29,"x_max":530,"o":"m 412 518 q 404 580 412 555 q 380 620 395 605 q 347 641 366 635 q 310 647 329 647 q 278 641 294 647 q 247 624 261 635 q 224 596 233 613 q 215 558 215 580 q 236 491 215 517 q 287 445 256 465 q 354 408 318 426 q 421 365 390 390 q 472 302 452 340 q 493 205 493 264 q 477 113 493 153 q 431 43 461 72 q 359 -1 401 15 q 265 -17 317 -16 l 255 -50 q 294 -56 275 -52 q 326 -70 312 -61 q 349 -92 340 -79 q 357 -125 357 -106 q 339 -190 357 -165 q 297 -229 322 -215 q 244 -248 273 -243 q 195 -253 216 -253 q 135 -250 166 -253 q 80 -241 104 -247 l 90 -174 l 195 -174 q 236 -165 220 -174 q 251 -132 251 -157 q 241 -113 251 -119 q 208 -107 231 -107 l 162 -107 l 191 -8 q 126 21 156 1 q 75 67 97 40 q 41 131 54 95 q 29 208 29 166 q 30 230 29 219 q 32 253 30 241 l 150 253 q 146 208 146 229 q 156 152 146 176 q 182 114 165 129 q 222 91 199 98 q 269 83 244 83 q 313 92 294 83 q 346 114 332 100 q 368 147 360 128 q 375 187 375 166 q 363 240 375 218 q 332 281 351 263 q 287 314 312 299 q 236 344 262 329 q 185 377 210 359 q 140 417 160 395 q 109 471 121 440 q 97 542 97 501 q 111 623 97 585 q 154 688 125 660 q 224 731 182 715 q 322 747 267 747 q 417 728 378 747 q 482 677 457 709 q 519 604 507 645 q 530 518 530 562 l 412 518 z "},"ţ":{"ha":317,"x_min":47,"x_max":346,"o":"m 248 730 l 346 730 l 332 629 l 233 629 q 199 389 214 496 q 186 299 192 343 q 175 220 180 255 q 167 162 170 185 q 164 136 164 139 q 215 85 164 85 l 256 85 l 244 5 q 204 -8 228 -3 q 160 -14 180 -14 q 107 -4 128 -14 q 72 22 85 5 q 53 59 59 38 q 47 104 47 81 q 51 137 47 111 q 59 201 54 163 q 70 286 64 239 q 83 380 77 333 q 119 629 99 492 l 57 629 l 71 730 l 134 730 l 163 933 l 282 933 l 248 730 m 182 -200 l 134 -306 l 66 -306 l 111 -210 l 63 -210 l 81 -83 l 199 -83 l 182 -200 z "},"ť":{"ha":403,"x_min":47,"x_max":567,"o":"m 248 730 l 346 730 l 332 629 l 233 629 q 199 389 214 496 q 186 299 192 343 q 175 220 180 255 q 167 162 170 185 q 164 136 164 139 q 215 85 164 85 l 256 85 l 244 5 q 204 -8 228 -3 q 160 -14 180 -14 q 107 -4 128 -14 q 72 22 85 5 q 53 59 59 38 q 47 104 47 81 q 51 137 47 111 q 59 201 54 163 q 70 286 64 239 q 83 380 77 333 q 119 629 99 492 l 57 629 l 71 730 l 134 730 l 163 933 l 282 933 l 248 730 m 548 815 l 459 631 l 382 631 l 454 803 l 408 803 l 429 953 l 567 953 l 548 815 z "},"ŧ":{"ha":317,"x_min":26,"x_max":346,"o":"m 233 629 q 227 589 230 612 q 221 545 224 570 q 213 490 217 520 l 306 490 l 291 391 l 199 391 q 186 300 193 345 q 175 221 180 256 q 167 162 170 185 q 164 136 164 139 q 215 85 164 85 l 256 85 l 244 5 q 204 -8 228 -3 q 160 -14 180 -14 q 107 -4 128 -14 q 72 22 85 5 q 53 59 59 38 q 47 104 47 81 q 51 139 47 111 q 59 206 54 166 q 71 294 64 245 q 85 391 78 342 l 26 391 l 41 490 l 99 490 q 107 545 103 520 q 113 589 111 570 q 119 629 116 612 l 57 629 l 71 730 l 134 730 l 163 933 l 282 933 l 248 730 l 346 730 l 332 629 l 233 629 z "},"ŵ":{"ha":822,"x_min":60,"x_max":878,"o":"m 595 0 l 468 0 q 460 185 463 109 q 454 312 456 261 q 451 393 452 363 q 450 440 450 423 q 449 463 449 456 l 449 475 q 450 520 449 496 q 452 564 450 544 l 454 608 l 449 608 q 435 541 443 575 q 421 478 429 512 q 403 416 412 445 l 268 0 l 140 0 l 60 730 l 170 730 l 211 319 q 214 282 212 304 q 218 235 216 260 q 222 182 220 210 q 224 129 223 155 l 229 129 q 242 196 235 163 q 255 258 248 224 q 272 319 263 291 l 403 730 l 539 730 l 558 319 q 559 302 559 313 q 559 271 559 292 l 559 129 l 566 129 q 580 193 572 160 q 596 254 587 221 q 616 319 605 288 l 771 730 l 878 730 l 595 0 m 650 817 l 543 817 l 497 926 l 419 817 l 304 817 l 450 1004 l 558 1004 l 650 817 z "},"ẁ":{"ha":822,"x_min":60,"x_max":878,"o":"m 595 0 l 468 0 q 460 185 463 109 q 454 312 456 261 q 451 393 452 363 q 450 440 450 423 q 449 463 449 456 l 449 475 q 450 520 449 496 q 452 564 450 544 l 454 608 l 449 608 q 435 541 443 575 q 421 478 429 512 q 403 416 412 445 l 268 0 l 140 0 l 60 730 l 170 730 l 211 319 q 214 282 212 304 q 218 235 216 260 q 222 182 220 210 q 224 129 223 155 l 229 129 q 242 196 235 163 q 255 258 248 224 q 272 319 263 291 l 403 730 l 539 730 l 558 319 q 559 302 559 313 q 559 271 559 292 l 559 129 l 566 129 q 580 193 572 160 q 596 254 587 221 q 616 319 605 288 l 771 730 l 878 730 l 595 0 m 566 821 l 469 821 l 345 1000 l 347 1004 l 472 1004 l 566 821 z "},"ẃ":{"ha":822,"x_min":60,"x_max":878,"o":"m 595 0 l 468 0 q 460 185 463 109 q 454 312 456 261 q 451 393 452 363 q 450 440 450 423 q 449 463 449 456 l 449 475 q 450 520 449 496 q 452 564 450 544 l 454 608 l 449 608 q 435 541 443 575 q 421 478 429 512 q 403 416 412 445 l 268 0 l 140 0 l 60 730 l 170 730 l 211 319 q 214 282 212 304 q 218 235 216 260 q 222 182 220 210 q 224 129 223 155 l 229 129 q 242 196 235 163 q 255 258 248 224 q 272 319 263 291 l 403 730 l 539 730 l 558 319 q 559 302 559 313 q 559 271 559 292 l 559 129 l 566 129 q 580 193 572 160 q 596 254 587 221 q 616 319 605 288 l 771 730 l 878 730 l 595 0 m 656 1000 l 506 821 l 410 821 l 529 1004 l 654 1004 l 656 1000 z "},"ẅ":{"ha":822,"x_min":60,"x_max":878,"o":"m 595 0 l 468 0 q 460 185 463 109 q 454 312 456 261 q 451 393 452 363 q 450 440 450 423 q 449 463 449 456 l 449 475 q 450 520 449 496 q 452 564 450 544 l 454 608 l 449 608 q 435 541 443 575 q 421 478 429 512 q 403 416 412 445 l 268 0 l 140 0 l 60 730 l 170 730 l 211 319 q 214 282 212 304 q 218 235 216 260 q 222 182 220 210 q 224 129 223 155 l 229 129 q 242 196 235 163 q 255 258 248 224 q 272 319 263 291 l 403 730 l 539 730 l 558 319 q 559 302 559 313 q 559 271 559 292 l 559 129 l 566 129 q 580 193 572 160 q 596 254 587 221 q 616 319 605 288 l 771 730 l 878 730 l 595 0 m 448 872 l 328 872 l 346 1004 l 467 1004 l 448 872 m 656 872 l 536 872 l 554 1004 l 675 1004 l 656 872 z "},"ŷ":{"ha":570,"x_min":-31,"x_max":623,"o":"m 325 37 q 271 -75 299 -22 q 209 -167 243 -127 q 136 -230 176 -207 q 49 -253 96 -253 q 5 -251 25 -253 q -31 -241 -15 -248 l -20 -163 l 20 -163 q 65 -155 43 -163 q 110 -128 88 -147 q 150 -78 131 -109 q 186 0 170 -47 l 65 730 l 186 730 l 269 147 l 275 147 l 500 730 l 623 730 l 325 37 m 534 817 l 427 817 l 381 926 l 303 817 l 188 817 l 334 1004 l 442 1004 l 534 817 z "},"ỳ":{"ha":570,"x_min":-31,"x_max":623,"o":"m 325 37 q 271 -75 299 -22 q 209 -167 243 -127 q 136 -230 176 -207 q 49 -253 96 -253 q 5 -251 25 -253 q -31 -241 -15 -248 l -20 -163 l 20 -163 q 65 -155 43 -163 q 110 -128 88 -147 q 150 -78 131 -109 q 186 0 170 -47 l 65 730 l 186 730 l 269 147 l 275 147 l 500 730 l 623 730 l 325 37 m 450 821 l 353 821 l 229 1000 l 231 1004 l 356 1004 l 450 821 z "},"ź":{"ha":570,"x_min":3,"x_max":575,"o":"m 571 677 l 175 102 l 509 102 l 494 0 l 3 0 l 7 54 l 401 629 l 109 629 l 122 730 l 575 730 l 571 677 m 533 1000 l 383 821 l 287 821 l 406 1004 l 532 1004 l 533 1000 z "},"ż":{"ha":570,"x_min":3,"x_max":575,"o":"m 571 677 l 175 102 l 509 102 l 494 0 l 3 0 l 7 54 l 401 629 l 109 629 l 122 730 l 575 730 l 571 677 m 428 872 l 307 872 l 326 1004 l 446 1004 l 428 872 z "},"⁄":{"ha":191,"x_min":-293,"x_max":507,"o":"m -205 -17 l -293 -17 l 421 970 l 507 970 l -205 -17 z "},"⅛":{"ha":950,"x_min":41,"x_max":900,"o":"m 182 -17 l 94 -17 l 808 970 l 895 970 l 182 -17 m 726 241 q 690 232 706 241 q 663 208 674 223 q 646 173 652 193 q 640 132 640 153 q 655 82 640 100 q 701 64 670 64 q 764 94 741 64 q 786 175 786 124 q 771 224 786 206 q 726 241 757 241 m 249 475 l 350 475 l 339 395 l 41 395 l 53 475 l 163 475 l 214 833 l 103 833 l 111 893 q 149 901 127 895 q 192 914 170 906 q 237 932 215 922 q 277 953 259 942 l 317 953 l 249 475 m 765 567 q 824 557 799 567 q 866 529 850 547 q 891 486 883 511 q 900 433 900 462 q 880 349 900 389 q 823 282 860 309 q 863 240 851 264 q 875 184 875 215 q 864 109 875 146 q 831 45 853 73 q 775 0 808 17 q 697 -17 742 -17 q 630 -6 657 -17 q 585 22 602 4 q 559 65 567 41 q 551 118 551 90 q 573 211 551 167 q 639 283 594 255 q 610 326 620 301 q 600 379 600 351 q 612 451 600 416 q 645 511 624 485 q 697 552 667 536 q 765 567 728 567 m 761 486 q 728 477 743 486 q 705 453 714 468 q 691 420 696 439 q 686 382 686 401 q 700 337 686 353 q 737 321 713 321 q 766 328 752 321 q 790 348 779 334 q 807 379 801 361 q 814 422 814 398 q 799 470 814 453 q 761 486 785 486 z "},"⅜":{"ha":950,"x_min":49,"x_max":896,"o":"m 174 -17 l 86 -17 l 800 970 l 886 970 l 174 -17 m 722 241 q 686 232 702 241 q 659 208 670 223 q 642 173 648 193 q 636 132 636 153 q 651 82 636 100 q 697 64 666 64 q 760 94 737 64 q 782 175 782 124 q 767 224 782 206 q 722 241 753 241 m 262 970 q 365 937 328 970 q 401 840 401 903 q 378 744 401 780 q 315 686 354 708 q 357 644 341 671 q 374 576 374 616 q 359 497 374 532 q 320 437 345 462 q 264 400 296 413 q 197 387 232 387 q 86 424 123 387 q 49 524 49 460 q 50 551 49 536 q 53 576 51 565 l 142 576 q 138 547 138 555 q 138 532 138 538 q 196 467 138 467 q 231 473 214 467 q 259 493 247 479 q 279 528 271 507 q 286 578 286 549 q 281 610 286 597 q 266 630 275 623 q 245 640 257 637 q 220 643 233 643 l 179 643 l 191 722 l 232 722 q 261 729 247 722 q 287 748 276 735 q 306 781 298 761 q 313 827 313 800 q 297 875 313 860 q 260 890 281 890 q 210 869 231 890 q 182 803 189 848 l 179 785 l 92 785 l 96 810 q 116 876 102 846 q 153 926 131 905 q 202 958 174 947 q 262 970 230 970 m 761 567 q 820 557 795 567 q 862 529 846 547 q 887 486 879 511 q 896 433 896 462 q 876 349 896 389 q 819 282 856 309 q 859 240 847 264 q 871 184 871 215 q 860 109 871 146 q 827 45 849 73 q 771 0 804 17 q 693 -17 738 -17 q 626 -6 653 -17 q 581 22 598 4 q 555 65 563 41 q 547 118 547 90 q 569 211 547 167 q 635 283 590 255 q 606 326 616 301 q 596 379 596 351 q 608 451 596 416 q 641 511 620 485 q 693 552 663 536 q 761 567 724 567 m 757 486 q 724 477 738 486 q 701 453 710 468 q 687 420 692 439 q 682 382 682 401 q 696 337 682 353 q 733 321 709 321 q 762 328 748 321 q 786 348 775 334 q 803 379 797 361 q 810 422 810 398 q 795 470 810 453 q 757 486 781 486 z "},"⅝":{"ha":950,"x_min":52,"x_max":897,"o":"m 762 567 q 822 557 796 567 q 864 529 847 547 q 889 486 880 511 q 897 433 897 462 q 877 349 897 389 q 821 282 857 309 q 860 240 848 264 q 872 184 872 215 q 861 109 872 146 q 828 45 850 73 q 772 0 806 17 q 694 -17 739 -17 q 627 -6 654 -17 q 582 22 600 4 q 556 65 564 41 q 549 118 549 90 q 570 211 549 167 q 636 283 591 255 q 607 326 617 301 q 597 379 597 351 q 609 451 597 416 q 643 511 621 485 q 694 552 664 536 q 762 567 725 567 m 400 864 l 205 864 l 178 725 q 217 751 195 740 q 268 762 239 762 q 352 727 319 762 q 385 619 385 691 q 370 517 385 562 q 330 441 355 472 q 271 394 304 410 q 199 378 237 378 q 91 416 130 378 q 52 524 52 454 q 52 542 52 533 q 54 561 53 551 l 143 561 q 142 549 142 555 l 142 538 q 159 479 142 500 q 204 458 177 458 q 235 467 219 458 q 264 493 251 475 q 286 538 277 511 q 294 603 294 566 q 280 663 294 642 q 240 684 265 684 q 196 667 217 684 q 157 624 174 651 l 81 637 l 144 953 l 412 953 l 400 864 m 174 -17 l 86 -17 l 800 970 l 886 970 l 174 -17 m 724 241 q 687 232 703 241 q 660 208 671 223 q 643 173 649 193 q 637 132 637 153 q 652 82 637 100 q 699 64 667 64 q 761 94 739 64 q 783 175 783 124 q 769 224 783 206 q 724 241 754 241 m 758 486 q 725 477 739 486 q 702 453 711 468 q 688 420 693 439 q 684 382 684 401 q 697 337 684 353 q 734 321 711 321 q 763 328 749 321 q 787 348 777 334 q 805 379 798 361 q 811 422 811 398 q 797 470 811 453 q 758 486 782 486 z "},"⅞":{"ha":950,"x_min":49,"x_max":892,"o":"m 136 -17 l 49 -17 l 762 970 l 848 970 l 136 -17 m 718 241 q 682 232 698 241 q 655 208 666 223 q 638 173 644 193 q 632 132 632 153 q 647 82 632 100 q 693 64 662 64 q 755 94 733 64 q 778 175 778 124 q 763 224 778 206 q 718 241 749 241 m 441 895 q 364 791 403 847 q 292 672 325 735 q 237 540 260 609 q 208 397 214 471 l 111 397 q 145 534 121 468 q 198 660 168 600 q 262 771 229 720 q 329 865 296 823 l 111 865 l 123 953 l 452 953 l 441 895 m 757 567 q 816 557 791 567 q 858 529 842 547 q 883 486 875 511 q 892 433 892 462 q 872 349 892 389 q 815 282 852 309 q 854 240 842 264 q 867 184 867 215 q 856 109 867 146 q 823 45 845 73 q 767 0 800 17 q 689 -17 734 -17 q 622 -6 649 -17 q 576 22 594 4 q 551 65 559 41 q 543 118 543 90 q 565 211 543 167 q 631 283 586 255 q 602 326 612 301 q 591 379 591 351 q 603 451 591 416 q 637 511 615 485 q 689 552 659 536 q 757 567 720 567 m 753 486 q 720 477 734 486 q 696 453 706 468 q 682 420 687 439 q 677 382 677 401 q 691 337 677 353 q 729 321 705 321 q 758 328 744 321 q 782 348 771 334 q 799 379 793 361 q 806 422 806 398 q 791 470 806 453 q 753 486 777 486 z "},"ⁿ":{"ha":415,"x_min":79,"x_max":449,"o":"m 342 1021 q 393 1011 372 1021 q 426 986 414 1002 q 444 950 439 970 q 449 909 449 930 q 447 883 449 903 q 440 834 444 863 q 432 771 437 806 q 422 700 427 736 q 396 513 410 616 l 311 513 q 337 691 326 611 q 347 759 342 725 q 355 820 351 792 q 360 866 358 847 q 363 892 363 886 q 313 946 363 946 q 272 935 291 946 q 239 903 254 924 q 216 854 225 883 q 201 790 206 825 l 163 513 l 79 513 l 149 1010 l 216 1010 l 216 936 q 231 961 221 946 q 255 988 240 975 q 292 1011 271 1002 q 342 1021 313 1021 z "},"′":{"ha":218,"x_min":75,"x_max":236,"o":"m 236 949 l 171 730 l 75 730 l 110 953 l 235 953 l 236 949 z "},"″":{"ha":404,"x_min":75,"x_max":412,"o":"m 412 949 l 347 730 l 252 730 l 286 953 l 411 953 l 412 949 m 236 949 l 171 730 l 75 730 l 110 953 l 235 953 l 236 949 z "},"‛":{"ha":253,"x_min":136,"x_max":294,"o":"m 273 803 l 228 803 l 249 631 l 172 631 l 136 815 l 155 953 l 294 953 l 273 803 z "},"∙":{"ha":379,"x_min":132,"x_max":293,"o":"m 272 400 l 132 400 l 153 554 l 293 554 l 272 400 z "},"―":{"ha":1139,"x_min":134,"x_max":1000,"o":"m 985 323 l 134 323 l 149 428 l 1000 428 l 985 323 z "},"‗":{"ha":694,"x_min":-28,"x_max":633,"o":"m 623 -172 l -9 -172 l 1 -98 l 633 -98 l 623 -172 m 604 -301 l -28 -301 l -17 -228 l 615 -228 l 604 -301 z "},"‾":{"ha":694,"x_min":94,"x_max":799,"o":"m 789 1099 l 94 1099 l 103 1173 l 799 1173 l 789 1099 z "},"‼":{"ha":633,"x_min":53,"x_max":633,"o":"m 633 953 q 620 890 629 933 q 601 788 612 846 q 576 660 589 730 q 549 517 563 590 q 522 372 535 444 q 496 237 508 300 l 410 237 q 444 595 427 416 q 476 953 462 774 l 633 953 m 192 0 l 53 0 l 74 150 l 212 150 l 192 0 m 490 0 l 351 0 l 372 150 l 511 150 l 490 0 m 335 953 q 322 890 330 933 q 302 788 313 846 q 277 660 291 730 q 250 517 264 590 q 223 372 237 444 q 197 237 210 300 l 111 237 q 145 595 128 416 q 178 953 163 774 l 335 953 z "},"−":{"ha":665,"x_min":52,"x_max":611,"o":"m 596 296 l 52 296 l 66 412 l 611 412 l 596 296 z "},"≡":{"ha":664,"x_min":9,"x_max":653,"o":"m 636 600 l 92 600 l 109 717 l 653 717 l 636 600 m 554 9 l 9 9 l 25 125 l 570 125 l 554 9 m 596 304 l 52 304 l 66 421 l 611 421 l 596 304 z "},"≠":{"ha":762,"x_min":85,"x_max":686,"o":"m 559 558 l 686 558 l 669 441 l 484 441 l 368 262 l 644 262 l 629 147 l 294 147 l 221 35 l 136 35 l 210 147 l 85 147 l 100 262 l 283 262 l 399 441 l 125 441 l 142 558 l 475 558 l 550 672 l 635 672 l 559 558 z "},"≈":{"ha":762,"x_min":9,"x_max":749,"o":"m 689 157 q 635 105 666 127 q 570 70 608 85 q 484 54 532 54 q 414 68 446 54 q 350 97 382 81 q 286 127 319 113 q 215 140 254 140 q 136 124 172 140 q 71 89 99 109 q 9 37 38 66 l 28 168 q 82 219 51 197 q 146 255 109 239 q 233 271 184 271 q 281 264 258 271 q 325 248 303 258 q 367 228 346 239 q 409 207 387 216 q 453 191 430 197 q 501 184 475 184 q 581 200 544 184 q 646 236 618 216 q 707 288 679 258 l 689 157 m 730 453 q 676 401 707 424 q 612 366 650 382 q 525 350 574 350 q 455 363 488 350 q 392 393 423 377 q 328 422 361 409 q 257 436 296 436 q 177 420 214 436 q 112 385 140 404 q 52 334 79 362 l 69 464 q 123 515 92 493 q 188 551 150 535 q 275 567 227 567 q 345 553 313 567 q 408 524 377 540 q 472 494 439 508 q 543 481 505 481 q 623 496 586 481 q 688 532 660 512 q 749 583 721 554 l 730 453 z "}}}
